STARTFONT 2.1
FONT -memleek-leggie-medium-r-normal--18----c-90-iso10646-1
SIZE 18 75 75
FONTBOUNDINGBOX 9 18 0 -3
STARTPROPERTIES 18
AVERAGE_WIDTH 90
CAP_HEIGHT 11
CHARSET_ENCODING "1"
CHARSET_REGISTRY "ISO10646"
COMMENT "Please visit https://memleek.org/leggie"
COPYRIGHT "2012-2018 W. Kerr. Licensed under CC BY 4.0"
DEFAULT_CHAR 65535
FAMILY_NAME "leggie"
FONT "leggie"
FONT_ASCENT 15
FONT_DESCENT 3
FOUNDRY "memleek"
PIXEL_SIZE 18
SETWIDTH_NAME "Normal"
SLANT "R"
SPACING "C"
WEIGHT_NAME "Medium"
X_HEIGHT 7
ENDPROPERTIES
CHARS 1764
STARTCHAR SPACE
ENCODING 32
SWIDTH 480 0
DWIDTH 9 0
BBX 9 18 0 -3
BITMAP
0000
0000
0000
0000
0000
0000
0000
0000
0000
0000
0000
0000
0000
0000
0000
0000
0000
0000
ENDCHAR
STARTCHAR EXCLAMATION MARK
ENCODING 33
SWIDTH 480 0
DWIDTH 9 0
BBX 9 18 0 -3
BITMAP
0000
0000
0000
0000
0800
0800
0800
0800
0800
0800
0800
0800
0000
0000
0800
0000
0000
0000
ENDCHAR
STARTCHAR QUOTATION MARK
ENCODING 34
SWIDTH 480 0
DWIDTH 9 0
BBX 9 18 0 -3
BITMAP
0000
0000
0000
0000
2200
2200
2200
2200
0000
0000
0000
0000
0000
0000
0000
0000
0000
0000
ENDCHAR
STARTCHAR NUMBER SIGN
ENCODING 35
SWIDTH 480 0
DWIDTH 9 0
BBX 9 18 0 -3
BITMAP
0000
0000
0000
0000
2200
2200
2200
7F00
2200
2200
2200
7F00
2200
2200
2200
0000
0000
0000
ENDCHAR
STARTCHAR DOLLAR SIGN
ENCODING 36
SWIDTH 480 0
DWIDTH 9 0
BBX 9 18 0 -3
BITMAP
0000
0000
0400
0400
3F00
4000
4000
4000
4000
3E00
0100
0100
0100
0100
7E00
1000
1000
0000
ENDCHAR
STARTCHAR PERCENT SIGN
ENCODING 37
SWIDTH 480 0
DWIDTH 9 0
BBX 9 18 0 -3
BITMAP
0000
0000
0000
0000
3000
4800
4900
3200
0400
0800
1000
2600
4900
0900
0600
0000
0000
0000
ENDCHAR
STARTCHAR AMPERSAND
ENCODING 38
SWIDTH 480 0
DWIDTH 9 0
BBX 9 18 0 -3
BITMAP
0000
0000
0000
0000
3C00
4200
4200
4200
4400
3800
4100
4200
4400
4A00
3100
0000
0000
0000
ENDCHAR
STARTCHAR APOSTROPHE
ENCODING 39
SWIDTH 480 0
DWIDTH 9 0
BBX 9 18 0 -3
BITMAP
0000
0000
0000
0000
0800
0800
0800
0800
0000
0000
0000
0000
0000
0000
0000
0000
0000
0000
ENDCHAR
STARTCHAR LEFT PARENTHESIS
ENCODING 40
SWIDTH 480 0
DWIDTH 9 0
BBX 9 18 0 -3
BITMAP
0000
0400
0800
1000
1000
1000
1000
1000
1000
1000
1000
1000
1000
1000
1000
1000
0800
0400
ENDCHAR
STARTCHAR RIGHT PARENTHESIS
ENCODING 41
SWIDTH 480 0
DWIDTH 9 0
BBX 9 18 0 -3
BITMAP
0000
1000
0800
0400
0400
0400
0400
0400
0400
0400
0400
0400
0400
0400
0400
0400
0800
1000
ENDCHAR
STARTCHAR ASTERISK
ENCODING 42
SWIDTH 480 0
DWIDTH 9 0
BBX 9 18 0 -3
BITMAP
0000
0000
0000
0000
0000
0000
2200
1400
0800
7F00
0800
1400
2200
0000
0000
0000
0000
0000
ENDCHAR
STARTCHAR PLUS SIGN
ENCODING 43
SWIDTH 480 0
DWIDTH 9 0
BBX 9 18 0 -3
BITMAP
0000
0000
0000
0000
0000
0000
0800
0800
0800
7F00
0800
0800
0800
0000
0000
0000
0000
0000
ENDCHAR
STARTCHAR COMMA
ENCODING 44
SWIDTH 480 0
DWIDTH 9 0
BBX 9 18 0 -3
BITMAP
0000
0000
0000
0000
0000
0000
0000
0000
0000
0000
0000
0000
0000
0000
0800
0800
1000
0000
ENDCHAR
STARTCHAR HYPHEN-MINUS
ENCODING 45
SWIDTH 480 0
DWIDTH 9 0
BBX 9 18 0 -3
BITMAP
0000
0000
0000
0000
0000
0000
0000
0000
0000
7F00
0000
0000
0000
0000
0000
0000
0000
0000
ENDCHAR
STARTCHAR FULL STOP
ENCODING 46
SWIDTH 480 0
DWIDTH 9 0
BBX 9 18 0 -3
BITMAP
0000
0000
0000
0000
0000
0000
0000
0000
0000
0000
0000
0000
0000
0000
0800
0000
0000
0000
ENDCHAR
STARTCHAR SOLIDUS
ENCODING 47
SWIDTH 480 0
DWIDTH 9 0
BBX 9 18 0 -3
BITMAP
0000
0000
0000
0100
0100
0200
0200
0400
0400
0800
0800
1000
1000
2000
2000
4000
4000
0000
ENDCHAR
STARTCHAR DIGIT ZERO
ENCODING 48
SWIDTH 480 0
DWIDTH 9 0
BBX 9 18 0 -3
BITMAP
0000
0000
0000
0000
3E00
4100
4100
4300
4500
4900
5100
6100
4100
4100
3E00
0000
0000
0000
ENDCHAR
STARTCHAR DIGIT ONE
ENCODING 49
SWIDTH 480 0
DWIDTH 9 0
BBX 9 18 0 -3
BITMAP
0000
0000
0000
0000
0200
0600
0A00
1200
2200
0200
0200
0200
0200
0200
0200
0000
0000
0000
ENDCHAR
STARTCHAR DIGIT TWO
ENCODING 50
SWIDTH 480 0
DWIDTH 9 0
BBX 9 18 0 -3
BITMAP
0000
0000
0000
0000
7E00
0100
0100
0100
0200
0200
0400
0800
1000
2000
7F00
0000
0000
0000
ENDCHAR
STARTCHAR DIGIT THREE
ENCODING 51
SWIDTH 480 0
DWIDTH 9 0
BBX 9 18 0 -3
BITMAP
0000
0000
0000
0000
7E00
0100
0100
0100
0100
0E00
0100
0100
0100
0100
7E00
0000
0000
0000
ENDCHAR
STARTCHAR DIGIT FOUR
ENCODING 52
SWIDTH 480 0
DWIDTH 9 0
BBX 9 18 0 -3
BITMAP
0000
0000
0000
0000
0100
0300
0500
0900
1100
2100
7F00
0100
0100
0100
0100
0000
0000
0000
ENDCHAR
STARTCHAR DIGIT FIVE
ENCODING 53
SWIDTH 480 0
DWIDTH 9 0
BBX 9 18 0 -3
BITMAP
0000
0000
0000
0000
7F00
4000
4000
4000
7E00
0100
0100
0100
0100
0100
7E00
0000
0000
0000
ENDCHAR
STARTCHAR DIGIT SIX
ENCODING 54
SWIDTH 480 0
DWIDTH 9 0
BBX 9 18 0 -3
BITMAP
0000
0000
0000
0000
3E00
4000
4000
4000
7E00
4100
4100
4100
4100
4100
3E00
0000
0000
0000
ENDCHAR
STARTCHAR DIGIT SEVEN
ENCODING 55
SWIDTH 480 0
DWIDTH 9 0
BBX 9 18 0 -3
BITMAP
0000
0000
0000
0000
7F00
0100
0100
0100
0200
0400
0800
0800
0800
0800
0800
0000
0000
0000
ENDCHAR
STARTCHAR DIGIT EIGHT
ENCODING 56
SWIDTH 480 0
DWIDTH 9 0
BBX 9 18 0 -3
BITMAP
0000
0000
0000
0000
3E00
4100
4100
4100
4100
3E00
4100
4100
4100
4100
3E00
0000
0000
0000
ENDCHAR
STARTCHAR DIGIT NINE
ENCODING 57
SWIDTH 480 0
DWIDTH 9 0
BBX 9 18 0 -3
BITMAP
0000
0000
0000
0000
3E00
4100
4100
4100
4100
4100
3F00
0100
0100
0100
3E00
0000
0000
0000
ENDCHAR
STARTCHAR COLON
ENCODING 58
SWIDTH 480 0
DWIDTH 9 0
BBX 9 18 0 -3
BITMAP
0000
0000
0000
0000
0000
0000
0000
0000
0800
0000
0000
0000
0000
0000
0800
0000
0000
0000
ENDCHAR
STARTCHAR SEMICOLON
ENCODING 59
SWIDTH 480 0
DWIDTH 9 0
BBX 9 18 0 -3
BITMAP
0000
0000
0000
0000
0000
0000
0000
0000
0800
0000
0000
0000
0000
0000
0800
0800
1000
0000
ENDCHAR
STARTCHAR LESS-THAN SIGN
ENCODING 60
SWIDTH 480 0
DWIDTH 9 0
BBX 9 18 0 -3
BITMAP
0000
0000
0000
0100
0200
0400
0800
1000
2000
4000
2000
1000
0800
0400
0200
0100
0000
0000
ENDCHAR
STARTCHAR EQUALS SIGN
ENCODING 61
SWIDTH 480 0
DWIDTH 9 0
BBX 9 18 0 -3
BITMAP
0000
0000
0000
0000
0000
0000
0000
7F00
0000
0000
0000
7F00
0000
0000
0000
0000
0000
0000
ENDCHAR
STARTCHAR GREATER-THAN SIGN
ENCODING 62
SWIDTH 480 0
DWIDTH 9 0
BBX 9 18 0 -3
BITMAP
0000
0000
0000
4000
2000
1000
0800
0400
0200
0100
0200
0400
0800
1000
2000
4000
0000
0000
ENDCHAR
STARTCHAR QUESTION MARK
ENCODING 63
SWIDTH 480 0
DWIDTH 9 0
BBX 9 18 0 -3
BITMAP
0000
0000
0000
0000
7E00
0100
0100
0100
0200
0400
0800
0800
0000
0000
0800
0000
0000
0000
ENDCHAR
STARTCHAR COMMERCIAL AT
ENCODING 64
SWIDTH 480 0
DWIDTH 9 0
BBX 9 18 0 -3
BITMAP
0000
0000
0000
0000
3E00
4100
4100
5F00
6100
6100
6100
6100
5E00
4000
4000
3E00
0000
0000
ENDCHAR
STARTCHAR LATIN CAPITAL LETTER A
ENCODING 65
SWIDTH 480 0
DWIDTH 9 0
BBX 9 18 0 -3
BITMAP
0000
0000
0000
0000
3E00
4100
4100
4100
4100
4100
7F00
4100
4100
4100
4100
0000
0000
0000
ENDCHAR
STARTCHAR LATIN CAPITAL LETTER B
ENCODING 66
SWIDTH 480 0
DWIDTH 9 0
BBX 9 18 0 -3
BITMAP
0000
0000
0000
0000
7E00
4100
4100
4100
4100
7E00
4100
4100
4100
4100
7E00
0000
0000
0000
ENDCHAR
STARTCHAR LATIN CAPITAL LETTER C
ENCODING 67
SWIDTH 480 0
DWIDTH 9 0
BBX 9 18 0 -3
BITMAP
0000
0000
0000
0000
3F00
4000
4000
4000
4000
4000
4000
4000
4000
4000
3F00
0000
0000
0000
ENDCHAR
STARTCHAR LATIN CAPITAL LETTER D
ENCODING 68
SWIDTH 480 0
DWIDTH 9 0
BBX 9 18 0 -3
BITMAP
0000
0000
0000
0000
7E00
4100
4100
4100
4100
4100
4100
4100
4100
4100
7E00
0000
0000
0000
ENDCHAR
STARTCHAR LATIN CAPITAL LETTER E
ENCODING 69
SWIDTH 480 0
DWIDTH 9 0
BBX 9 18 0 -3
BITMAP
0000
0000
0000
0000
7F00
4000
4000
4000
4000
7800
4000
4000
4000
4000
7F00
0000
0000
0000
ENDCHAR
STARTCHAR LATIN CAPITAL LETTER F
ENCODING 70
SWIDTH 480 0
DWIDTH 9 0
BBX 9 18 0 -3
BITMAP
0000
0000
0000
0000
7F00
4000
4000
4000
4000
7800
4000
4000
4000
4000
4000
0000
0000
0000
ENDCHAR
STARTCHAR LATIN CAPITAL LETTER G
ENCODING 71
SWIDTH 480 0
DWIDTH 9 0
BBX 9 18 0 -3
BITMAP
0000
0000
0000
0000
3F00
4000
4000
4000
4000
4700
4100
4100
4100
4100
3F00
0000
0000
0000
ENDCHAR
STARTCHAR LATIN CAPITAL LETTER H
ENCODING 72
SWIDTH 480 0
DWIDTH 9 0
BBX 9 18 0 -3
BITMAP
0000
0000
0000
0000
4100
4100
4100
4100
4100
7F00
4100
4100
4100
4100
4100
0000
0000
0000
ENDCHAR
STARTCHAR LATIN CAPITAL LETTER I
ENCODING 73
SWIDTH 480 0
DWIDTH 9 0
BBX 9 18 0 -3
BITMAP
0000
0000
0000
0000
1C00
0800
0800
0800
0800
0800
0800
0800
0800
0800
1C00
0000
0000
0000
ENDCHAR
STARTCHAR LATIN CAPITAL LETTER J
ENCODING 74
SWIDTH 480 0
DWIDTH 9 0
BBX 9 18 0 -3
BITMAP
0000
0000
0000
0000
0100
0100
0100
0100
0100
0100
0100
0100
0100
4100
3E00
0000
0000
0000
ENDCHAR
STARTCHAR LATIN CAPITAL LETTER K
ENCODING 75
SWIDTH 480 0
DWIDTH 9 0
BBX 9 18 0 -3
BITMAP
0000
0000
0000
0000
4100
4200
4400
4800
5000
6000
5000
4800
4400
4200
4100
0000
0000
0000
ENDCHAR
STARTCHAR LATIN CAPITAL LETTER L
ENCODING 76
SWIDTH 480 0
DWIDTH 9 0
BBX 9 18 0 -3
BITMAP
0000
0000
0000
0000
4000
4000
4000
4000
4000
4000
4000
4000
4000
4000
7F00
0000
0000
0000
ENDCHAR
STARTCHAR LATIN CAPITAL LETTER M
ENCODING 77
SWIDTH 480 0
DWIDTH 9 0
BBX 9 18 0 -3
BITMAP
0000
0000
0000
0000
4100
6300
5500
4900
4100
4100
4100
4100
4100
4100
4100
0000
0000
0000
ENDCHAR
STARTCHAR LATIN CAPITAL LETTER N
ENCODING 78
SWIDTH 480 0
DWIDTH 9 0
BBX 9 18 0 -3
BITMAP
0000
0000
0000
0000
4100
4100
4100
6100
5100
4900
4500
4300
4100
4100
4100
0000
0000
0000
ENDCHAR
STARTCHAR LATIN CAPITAL LETTER O
ENCODING 79
SWIDTH 480 0
DWIDTH 9 0
BBX 9 18 0 -3
BITMAP
0000
0000
0000
0000
3E00
4100
4100
4100
4100
4100
4100
4100
4100
4100
3E00
0000
0000
0000
ENDCHAR
STARTCHAR LATIN CAPITAL LETTER P
ENCODING 80
SWIDTH 480 0
DWIDTH 9 0
BBX 9 18 0 -3
BITMAP
0000
0000
0000
0000
7E00
4100
4100
4100
4100
4100
7E00
4000
4000
4000
4000
0000
0000
0000
ENDCHAR
STARTCHAR LATIN CAPITAL LETTER Q
ENCODING 81
SWIDTH 480 0
DWIDTH 9 0
BBX 9 18 0 -3
BITMAP
0000
0000
0000
0000
3E00
4100
4100
4100
4100
4100
4100
4900
4500
4200
3D00
0000
0000
0000
ENDCHAR
STARTCHAR LATIN CAPITAL LETTER R
ENCODING 82
SWIDTH 480 0
DWIDTH 9 0
BBX 9 18 0 -3
BITMAP
0000
0000
0000
0000
7E00
4100
4100
4100
4100
4100
7E00
4200
4200
4100
4100
0000
0000
0000
ENDCHAR
STARTCHAR LATIN CAPITAL LETTER S
ENCODING 83
SWIDTH 480 0
DWIDTH 9 0
BBX 9 18 0 -3
BITMAP
0000
0000
0000
0000
3F00
4000
4000
4000
4000
3E00
0100
0100
0100
0100
7E00
0000
0000
0000
ENDCHAR
STARTCHAR LATIN CAPITAL LETTER T
ENCODING 84
SWIDTH 480 0
DWIDTH 9 0
BBX 9 18 0 -3
BITMAP
0000
0000
0000
0000
7F00
0800
0800
0800
0800
0800
0800
0800
0800
0800
0800
0000
0000
0000
ENDCHAR
STARTCHAR LATIN CAPITAL LETTER U
ENCODING 85
SWIDTH 480 0
DWIDTH 9 0
BBX 9 18 0 -3
BITMAP
0000
0000
0000
0000
4100
4100
4100
4100
4100
4100
4100
4100
4100
4100
3E00
0000
0000
0000
ENDCHAR
STARTCHAR LATIN CAPITAL LETTER V
ENCODING 86
SWIDTH 480 0
DWIDTH 9 0
BBX 9 18 0 -3
BITMAP
0000
0000
0000
0000
4100
4100
4100
4100
4100
2200
2200
2200
1400
1400
0800
0000
0000
0000
ENDCHAR
STARTCHAR LATIN CAPITAL LETTER W
ENCODING 87
SWIDTH 480 0
DWIDTH 9 0
BBX 9 18 0 -3
BITMAP
0000
0000
0000
0000
4100
4100
4100
4100
4100
4100
4100
4900
5500
6300
4100
0000
0000
0000
ENDCHAR
STARTCHAR LATIN CAPITAL LETTER X
ENCODING 88
SWIDTH 480 0
DWIDTH 9 0
BBX 9 18 0 -3
BITMAP
0000
0000
0000
0000
4100
4100
4100
2200
1400
0800
1400
2200
4100
4100
4100
0000
0000
0000
ENDCHAR
STARTCHAR LATIN CAPITAL LETTER Y
ENCODING 89
SWIDTH 480 0
DWIDTH 9 0
BBX 9 18 0 -3
BITMAP
0000
0000
0000
0000
4100
4100
4100
2200
1400
0800
0800
0800
0800
0800
0800
0000
0000
0000
ENDCHAR
STARTCHAR LATIN CAPITAL LETTER Z
ENCODING 90
SWIDTH 480 0
DWIDTH 9 0
BBX 9 18 0 -3
BITMAP
0000
0000
0000
0000
7F00
0100
0100
0200
0400
0800
1000
2000
4000
4000
7F00
0000
0000
0000
ENDCHAR
STARTCHAR LEFT SQUARE BRACKET
ENCODING 91
SWIDTH 480 0
DWIDTH 9 0
BBX 9 18 0 -3
BITMAP
0000
0000
1C00
1000
1000
1000
1000
1000
1000
1000
1000
1000
1000
1000
1000
1000
1000
1C00
ENDCHAR
STARTCHAR REVERSE SOLIDUS
ENCODING 92
SWIDTH 480 0
DWIDTH 9 0
BBX 9 18 0 -3
BITMAP
0000
0000
0000
4000
4000
2000
2000
1000
1000
0800
0800
0400
0400
0200
0200
0100
0100
0000
ENDCHAR
STARTCHAR RIGHT SQUARE BRACKET
ENCODING 93
SWIDTH 480 0
DWIDTH 9 0
BBX 9 18 0 -3
BITMAP
0000
0000
1C00
0400
0400
0400
0400
0400
0400
0400
0400
0400
0400
0400
0400
0400
0400
1C00
ENDCHAR
STARTCHAR CIRCUMFLEX ACCENT
ENCODING 94
SWIDTH 480 0
DWIDTH 9 0
BBX 9 18 0 -3
BITMAP
0000
0000
0000
0000
0800
1400
2200
0000
0000
0000
0000
0000
0000
0000
0000
0000
0000
0000
ENDCHAR
STARTCHAR LOW LINE
ENCODING 95
SWIDTH 480 0
DWIDTH 9 0
BBX 9 18 0 -3
BITMAP
0000
0000
0000
0000
0000
0000
0000
0000
0000
0000
0000
0000
0000
0000
0000
0000
7F00
0000
ENDCHAR
STARTCHAR GRAVE ACCENT
ENCODING 96
SWIDTH 480 0
DWIDTH 9 0
BBX 9 18 0 -3
BITMAP
0000
0000
0000
0000
1000
0800
0400
0000
0000
0000
0000
0000
0000
0000
0000
0000
0000
0000
ENDCHAR
STARTCHAR LATIN SMALL LETTER A
ENCODING 97
SWIDTH 480 0
DWIDTH 9 0
BBX 9 18 0 -3
BITMAP
0000
0000
0000
0000
0000
0000
0000
0000
3E00
0100
0100
3F00
4100
4100
3F00
0000
0000
0000
ENDCHAR
STARTCHAR LATIN SMALL LETTER B
ENCODING 98
SWIDTH 480 0
DWIDTH 9 0
BBX 9 18 0 -3
BITMAP
0000
0000
0000
4000
4000
4000
4000
4000
7E00
4100
4100
4100
4100
4100
7E00
0000
0000
0000
ENDCHAR
STARTCHAR LATIN SMALL LETTER C
ENCODING 99
SWIDTH 480 0
DWIDTH 9 0
BBX 9 18 0 -3
BITMAP
0000
0000
0000
0000
0000
0000
0000
0000
3F00
4000
4000
4000
4000
4000
3F00
0000
0000
0000
ENDCHAR
STARTCHAR LATIN SMALL LETTER D
ENCODING 100
SWIDTH 480 0
DWIDTH 9 0
BBX 9 18 0 -3
BITMAP
0000
0000
0000
0100
0100
0100
0100
0100
3F00
4100
4100
4100
4100
4100
3F00
0000
0000
0000
ENDCHAR
STARTCHAR LATIN SMALL LETTER E
ENCODING 101
SWIDTH 480 0
DWIDTH 9 0
BBX 9 18 0 -3
BITMAP
0000
0000
0000
0000
0000
0000
0000
0000
3E00
4100
4100
7F00
4000
4000
3E00
0000
0000
0000
ENDCHAR
STARTCHAR LATIN SMALL LETTER F
ENCODING 102
SWIDTH 480 0
DWIDTH 9 0
BBX 9 18 0 -3
BITMAP
0000
0000
0000
0E00
1000
1000
1000
1000
1C00
1000
1000
1000
1000
1000
1000
0000
0000
0000
ENDCHAR
STARTCHAR LATIN SMALL LETTER G
ENCODING 103
SWIDTH 480 0
DWIDTH 9 0
BBX 9 18 0 -3
BITMAP
0000
0000
0000
0000
0000
0000
0000
0000
3F00
4100
4100
4100
4100
4100
3F00
0100
0100
1E00
ENDCHAR
STARTCHAR LATIN SMALL LETTER H
ENCODING 104
SWIDTH 480 0
DWIDTH 9 0
BBX 9 18 0 -3
BITMAP
0000
0000
0000
4000
4000
4000
4000
4000
7E00
4100
4100
4100
4100
4100
4100
0000
0000
0000
ENDCHAR
STARTCHAR LATIN SMALL LETTER I
ENCODING 105
SWIDTH 480 0
DWIDTH 9 0
BBX 9 18 0 -3
BITMAP
0000
0000
0000
0000
0000
0800
0000
0000
1800
0800
0800
0800
0800
0800
0800
0000
0000
0000
ENDCHAR
STARTCHAR LATIN SMALL LETTER J
ENCODING 106
SWIDTH 480 0
DWIDTH 9 0
BBX 9 18 0 -3
BITMAP
0000
0000
0000
0000
0000
0800
0000
0000
1800
0800
0800
0800
0800
0800
0800
0800
0800
1000
ENDCHAR
STARTCHAR LATIN SMALL LETTER K
ENCODING 107
SWIDTH 480 0
DWIDTH 9 0
BBX 9 18 0 -3
BITMAP
0000
0000
0000
2000
2000
2000
2000
2000
2200
2400
2800
3000
2800
2400
2200
0000
0000
0000
ENDCHAR
STARTCHAR LATIN SMALL LETTER L
ENCODING 108
SWIDTH 480 0
DWIDTH 9 0
BBX 9 18 0 -3
BITMAP
0000
0000
0000
1000
1000
1000
1000
1000
1000
1000
1000
1000
1000
1000
0E00
0000
0000
0000
ENDCHAR
STARTCHAR LATIN SMALL LETTER M
ENCODING 109
SWIDTH 480 0
DWIDTH 9 0
BBX 9 18 0 -3
BITMAP
0000
0000
0000
0000
0000
0000
0000
0000
7600
4900
4900
4900
4900
4900
4100
0000
0000
0000
ENDCHAR
STARTCHAR LATIN SMALL LETTER N
ENCODING 110
SWIDTH 480 0
DWIDTH 9 0
BBX 9 18 0 -3
BITMAP
0000
0000
0000
0000
0000
0000
0000
0000
7E00
4100
4100
4100
4100
4100
4100
0000
0000
0000
ENDCHAR
STARTCHAR LATIN SMALL LETTER O
ENCODING 111
SWIDTH 480 0
DWIDTH 9 0
BBX 9 18 0 -3
BITMAP
0000
0000
0000
0000
0000
0000
0000
0000
3E00
4100
4100
4100
4100
4100
3E00
0000
0000
0000
ENDCHAR
STARTCHAR LATIN SMALL LETTER P
ENCODING 112
SWIDTH 480 0
DWIDTH 9 0
BBX 9 18 0 -3
BITMAP
0000
0000
0000
0000
0000
0000
0000
0000
7E00
4100
4100
4100
4100
4100
7E00
4000
4000
4000
ENDCHAR
STARTCHAR LATIN SMALL LETTER Q
ENCODING 113
SWIDTH 480 0
DWIDTH 9 0
BBX 9 18 0 -3
BITMAP
0000
0000
0000
0000
0000
0000
0000
0000
3F00
4100
4100
4100
4100
4100
3F00
0100
0100
0100
ENDCHAR
STARTCHAR LATIN SMALL LETTER R
ENCODING 114
SWIDTH 480 0
DWIDTH 9 0
BBX 9 18 0 -3
BITMAP
0000
0000
0000
0000
0000
0000
0000
0000
5F00
6000
4000
4000
4000
4000
4000
0000
0000
0000
ENDCHAR
STARTCHAR LATIN SMALL LETTER S
ENCODING 115
SWIDTH 480 0
DWIDTH 9 0
BBX 9 18 0 -3
BITMAP
0000
0000
0000
0000
0000
0000
0000
0000
3F00
4000
4000
3E00
0100
0100
7E00
0000
0000
0000
ENDCHAR
STARTCHAR LATIN SMALL LETTER T
ENCODING 116
SWIDTH 480 0
DWIDTH 9 0
BBX 9 18 0 -3
BITMAP
0000
0000
0000
1000
1000
1000
1000
1000
3C00
1000
1000
1000
1000
1000
0E00
0000
0000
0000
ENDCHAR
STARTCHAR LATIN SMALL LETTER U
ENCODING 117
SWIDTH 480 0
DWIDTH 9 0
BBX 9 18 0 -3
BITMAP
0000
0000
0000
0000
0000
0000
0000
0000
4100
4100
4100
4100
4100
4100
3F00
0000
0000
0000
ENDCHAR
STARTCHAR LATIN SMALL LETTER V
ENCODING 118
SWIDTH 480 0
DWIDTH 9 0
BBX 9 18 0 -3
BITMAP
0000
0000
0000
0000
0000
0000
0000
0000
4100
4100
2200
2200
1400
1400
0800
0000
0000
0000
ENDCHAR
STARTCHAR LATIN SMALL LETTER W
ENCODING 119
SWIDTH 480 0
DWIDTH 9 0
BBX 9 18 0 -3
BITMAP
0000
0000
0000
0000
0000
0000
0000
0000
4100
4100
4100
4900
5500
6300
4100
0000
0000
0000
ENDCHAR
STARTCHAR LATIN SMALL LETTER X
ENCODING 120
SWIDTH 480 0
DWIDTH 9 0
BBX 9 18 0 -3
BITMAP
0000
0000
0000
0000
0000
0000
0000
0000
4100
2200
1400
0800
1400
2200
4100
0000
0000
0000
ENDCHAR
STARTCHAR LATIN SMALL LETTER Y
ENCODING 121
SWIDTH 480 0
DWIDTH 9 0
BBX 9 18 0 -3
BITMAP
0000
0000
0000
0000
0000
0000
0000
0000
4100
4100
4100
4100
4100
4100
3F00
0100
0100
1E00
ENDCHAR
STARTCHAR LATIN SMALL LETTER Z
ENCODING 122
SWIDTH 480 0
DWIDTH 9 0
BBX 9 18 0 -3
BITMAP
0000
0000
0000
0000
0000
0000
0000
0000
7F00
0200
0400
0800
1000
2000
7F00
0000
0000
0000
ENDCHAR
STARTCHAR LEFT CURLY BRACKET
ENCODING 123
SWIDTH 480 0
DWIDTH 9 0
BBX 9 18 0 -3
BITMAP
0000
0000
0400
0800
0800
0800
0800
0800
0800
1000
1000
0800
0800
0800
0800
0800
0800
0400
ENDCHAR
STARTCHAR VERTICAL LINE
ENCODING 124
SWIDTH 480 0
DWIDTH 9 0
BBX 9 18 0 -3
BITMAP
0000
0000
0800
0800
0800
0800
0800
0800
0800
0800
0800
0800
0800
0800
0800
0800
0800
0800
ENDCHAR
STARTCHAR RIGHT CURLY BRACKET
ENCODING 125
SWIDTH 480 0
DWIDTH 9 0
BBX 9 18 0 -3
BITMAP
0000
0000
1000
0800
0800
0800
0800
0800
0800
0400
0400
0800
0800
0800
0800
0800
0800
1000
ENDCHAR
STARTCHAR TILDE
ENCODING 126
SWIDTH 480 0
DWIDTH 9 0
BBX 9 18 0 -3
BITMAP
0000
0000
0000
0000
0000
0000
0000
0000
0000
3000
4900
0600
0000
0000
0000
0000
0000
0000
ENDCHAR
STARTCHAR NO-BREAK SPACE
ENCODING 160
SWIDTH 480 0
DWIDTH 9 0
BBX 9 18 0 -3
BITMAP
0000
0000
0000
0000
0000
0000
0000
0000
0000
0000
0000
0000
0000
0000
0000
0000
0000
0000
ENDCHAR
STARTCHAR INVERTED EXCLAMATION MARK
ENCODING 161
SWIDTH 480 0
DWIDTH 9 0
BBX 9 18 0 -3
BITMAP
0000
0000
0000
0000
0000
0000
0000
0000
0800
0000
0000
0800
0800
0800
0800
0800
0800
0800
ENDCHAR
STARTCHAR CENT SIGN
ENCODING 162
SWIDTH 480 0
DWIDTH 9 0
BBX 9 18 0 -3
BITMAP
0000
0000
0000
0000
0000
0000
0400
0400
3F00
4000
4000
4000
4000
4000
3F00
0800
0800
0000
ENDCHAR
STARTCHAR POUND SIGN
ENCODING 163
SWIDTH 480 0
DWIDTH 9 0
BBX 9 18 0 -3
BITMAP
0000
0000
0000
0000
1E00
2000
2000
2000
2000
7800
2000
2000
2000
2000
7F00
0000
0000
0000
ENDCHAR
STARTCHAR CURRENCY SIGN
ENCODING 164
SWIDTH 480 0
DWIDTH 9 0
BBX 9 18 0 -3
BITMAP
0000
0000
0000
0000
0000
0000
4100
2A00
1400
2200
1400
2A00
4100
0000
0000
0000
0000
0000
ENDCHAR
STARTCHAR YEN SIGN
ENCODING 165
SWIDTH 480 0
DWIDTH 9 0
BBX 9 18 0 -3
BITMAP
0000
0000
0000
0000
4100
4100
4100
2200
1400
0800
3E00
0800
3E00
0800
0800
0000
0000
0000
ENDCHAR
STARTCHAR BROKEN BAR
ENCODING 166
SWIDTH 480 0
DWIDTH 9 0
BBX 9 18 0 -3
BITMAP
0000
0000
0800
0800
0800
0800
0800
0800
0800
0000
0000
0800
0800
0800
0800
0800
0800
0800
ENDCHAR
STARTCHAR SECTION SIGN
ENCODING 167
SWIDTH 480 0
DWIDTH 9 0
BBX 9 18 0 -3
BITMAP
0000
0000
3F00
4000
4000
4000
4000
3E00
4100
4100
4100
4100
3E00
0100
0100
0100
0100
7E00
ENDCHAR
STARTCHAR DIAERESIS
ENCODING 168
SWIDTH 480 0
DWIDTH 9 0
BBX 9 18 0 -3
BITMAP
0000
0000
1400
0000
0000
0000
0000
0000
0000
0000
0000
0000
0000
0000
0000
0000
0000
0000
ENDCHAR
STARTCHAR COPYRIGHT SIGN
ENCODING 169
SWIDTH 480 0
DWIDTH 9 0
BBX 9 18 0 -3
BITMAP
0000
0000
0000
0000
3E00
4100
4100
4D00
5100
5100
5100
4D00
4100
4100
3E00
0000
0000
0000
ENDCHAR
STARTCHAR FEMININE ORDINAL INDICATOR
ENCODING 170
SWIDTH 480 0
DWIDTH 9 0
BBX 9 18 0 -3
BITMAP
0000
0000
0000
0000
3E00
0100
0100
3F00
4100
4100
3F00
0000
0000
0000
0000
0000
0000
0000
ENDCHAR
STARTCHAR LEFT-POINTING DOUBLE ANGLE QUOTATION MARK
ENCODING 171
SWIDTH 480 0
DWIDTH 9 0
BBX 9 18 0 -3
BITMAP
0000
0000
0000
0000
0000
0000
0900
1200
2400
4800
2400
1200
0900
0000
0000
0000
0000
0000
ENDCHAR
STARTCHAR NOT SIGN
ENCODING 172
SWIDTH 480 0
DWIDTH 9 0
BBX 9 18 0 -3
BITMAP
0000
0000
0000
0000
0000
0000
0000
0000
0000
7F00
0100
0000
0000
0000
0000
0000
0000
0000
ENDCHAR
STARTCHAR SOFT HYPHEN
ENCODING 173
SWIDTH 480 0
DWIDTH 9 0
BBX 9 18 0 -3
BITMAP
0000
0000
0000
0000
0000
0000
0000
0000
0000
1C00
0000
0000
0000
0000
0000
0000
0000
0000
ENDCHAR
STARTCHAR REGISTERED SIGN
ENCODING 174
SWIDTH 480 0
DWIDTH 9 0
BBX 9 18 0 -3
BITMAP
3E00
4100
4100
5900
5500
5500
5900
5500
4100
4100
3E00
0000
0000
0000
0000
0000
0000
0000
ENDCHAR
STARTCHAR MACRON
ENCODING 175
SWIDTH 480 0
DWIDTH 9 0
BBX 9 18 0 -3
BITMAP
0000
0000
3E00
0000
0000
0000
0000
0000
0000
0000
0000
0000
0000
0000
0000
0000
0000
0000
ENDCHAR
STARTCHAR DEGREE SIGN
ENCODING 176
SWIDTH 480 0
DWIDTH 9 0
BBX 9 18 0 -3
BITMAP
0000
0000
0000
0000
1C00
2200
2200
2200
1C00
0000
0000
0000
0000
0000
0000
0000
0000
0000
ENDCHAR
STARTCHAR PLUS-MINUS SIGN
ENCODING 177
SWIDTH 480 0
DWIDTH 9 0
BBX 9 18 0 -3
BITMAP
0000
0000
0000
0000
0000
0800
0800
0800
7F00
0800
0800
0800
0000
7F00
0000
0000
0000
0000
ENDCHAR
STARTCHAR SUPERSCRIPT TWO
ENCODING 178
SWIDTH 480 0
DWIDTH 9 0
BBX 9 18 0 -3
BITMAP
7E00
0100
0100
0100
0200
0200
0400
0800
1000
2000
7F00
0000
0000
0000
0000
0000
0000
0000
ENDCHAR
STARTCHAR SUPERSCRIPT THREE
ENCODING 179
SWIDTH 480 0
DWIDTH 9 0
BBX 9 18 0 -3
BITMAP
7E00
0100
0100
0100
0100
0E00
0100
0100
0100
0100
7E00
0000
0000
0000
0000
0000
0000
0000
ENDCHAR
STARTCHAR ACUTE ACCENT
ENCODING 180
SWIDTH 480 0
DWIDTH 9 0
BBX 9 18 0 -3
BITMAP
0200
0400
0800
0000
0000
0000
0000
0000
0000
0000
0000
0000
0000
0000
0000
0000
0000
0000
ENDCHAR
STARTCHAR MICRO SIGN
ENCODING 181
SWIDTH 480 0
DWIDTH 9 0
BBX 9 18 0 -3
BITMAP
0000
0000
0000
0000
0000
0000
0000
0000
4100
4100
4100
4100
4100
4100
7E00
4000
4000
4000
ENDCHAR
STARTCHAR PILCROW SIGN
ENCODING 182
SWIDTH 480 0
DWIDTH 9 0
BBX 9 18 0 -3
BITMAP
0000
0000
0000
0000
3F00
7900
7900
7900
7900
3900
0900
0900
0900
0900
0900
0000
0000
0000
ENDCHAR
STARTCHAR MIDDLE DOT
ENCODING 183
SWIDTH 480 0
DWIDTH 9 0
BBX 9 18 0 -3
BITMAP
0000
0000
0000
0000
0000
0000
0000
0000
0000
0800
0000
0000
0000
0000
0000
0000
0000
0000
ENDCHAR
STARTCHAR CEDILLA
ENCODING 184
SWIDTH 480 0
DWIDTH 9 0
BBX 9 18 0 -3
BITMAP
0000
0000
0000
0000
0000
0000
0000
0000
0000
0000
0000
0000
0000
0000
0000
0800
0400
1800
ENDCHAR
STARTCHAR SUPERSCRIPT ONE
ENCODING 185
SWIDTH 480 0
DWIDTH 9 0
BBX 9 18 0 -3
BITMAP
0200
0600
0A00
1200
2200
0200
0200
0200
0200
0200
0200
0000
0000
0000
0000
0000
0000
0000
ENDCHAR
STARTCHAR MASCULINE ORDINAL INDICATOR
ENCODING 186
SWIDTH 480 0
DWIDTH 9 0
BBX 9 18 0 -3
BITMAP
0000
0000
0000
0000
3E00
4100
4100
4100
4100
4100
3E00
0000
0000
0000
0000
0000
0000
0000
ENDCHAR
STARTCHAR RIGHT-POINTING DOUBLE ANGLE QUOTATION MARK
ENCODING 187
SWIDTH 480 0
DWIDTH 9 0
BBX 9 18 0 -3
BITMAP
0000
0000
0000
0000
0000
0000
4800
2400
1200
0900
1200
2400
4800
0000
0000
0000
0000
0000
ENDCHAR
STARTCHAR VULGAR FRACTION ONE QUARTER
ENCODING 188
SWIDTH 480 0
DWIDTH 9 0
BBX 9 18 0 -3
BITMAP
0000
1000
3000
5000
1000
1000
1000
1000
1000
0000
0100
0300
0500
0900
1F00
0100
0100
0100
ENDCHAR
STARTCHAR VULGAR FRACTION ONE HALF
ENCODING 189
SWIDTH 480 0
DWIDTH 9 0
BBX 9 18 0 -3
BITMAP
0000
1000
3000
5000
1000
1000
1000
1000
1000
0000
3E00
0100
0100
0200
0400
0800
1000
3F00
ENDCHAR
STARTCHAR VULGAR FRACTION THREE QUARTERS
ENCODING 190
SWIDTH 480 0
DWIDTH 9 0
BBX 9 18 0 -3
BITMAP
0000
7800
0400
0400
1800
0400
0400
0400
7800
0000
0100
0300
0500
0900
1F00
0100
0100
0100
ENDCHAR
STARTCHAR INVERTED QUESTION MARK
ENCODING 191
SWIDTH 480 0
DWIDTH 9 0
BBX 9 18 0 -3
BITMAP
0000
0000
0000
0000
0000
0000
0000
0000
0800
0000
0000
0800
0800
1000
2000
4000
4000
3F00
ENDCHAR
STARTCHAR LATIN CAPITAL LETTER A WITH GRAVE
ENCODING 192
SWIDTH 480 0
DWIDTH 9 0
BBX 9 18 0 -3
BITMAP
2000
1000
0800
0000
3E00
4100
4100
4100
4100
4100
7F00
4100
4100
4100
4100
0000
0000
0000
ENDCHAR
STARTCHAR LATIN CAPITAL LETTER A WITH ACUTE
ENCODING 193
SWIDTH 480 0
DWIDTH 9 0
BBX 9 18 0 -3
BITMAP
0200
0400
0800
0000
3E00
4100
4100
4100
4100
4100
7F00
4100
4100
4100
4100
0000
0000
0000
ENDCHAR
STARTCHAR LATIN CAPITAL LETTER A WITH CIRCUMFLEX
ENCODING 194
SWIDTH 480 0
DWIDTH 9 0
BBX 9 18 0 -3
BITMAP
0800
1400
2200
0000
3E00
4100
4100
4100
4100
4100
7F00
4100
4100
4100
4100
0000
0000
0000
ENDCHAR
STARTCHAR LATIN CAPITAL LETTER A WITH TILDE
ENCODING 195
SWIDTH 480 0
DWIDTH 9 0
BBX 9 18 0 -3
BITMAP
3000
4900
0600
0000
3E00
4100
4100
4100
4100
4100
7F00
4100
4100
4100
4100
0000
0000
0000
ENDCHAR
STARTCHAR LATIN CAPITAL LETTER A WITH DIAERESIS
ENCODING 196
SWIDTH 480 0
DWIDTH 9 0
BBX 9 18 0 -3
BITMAP
0000
2200
0000
0000
3E00
4100
4100
4100
4100
4100
7F00
4100
4100
4100
4100
0000
0000
0000
ENDCHAR
STARTCHAR LATIN CAPITAL LETTER A WITH RING ABOVE
ENCODING 197
SWIDTH 480 0
DWIDTH 9 0
BBX 9 18 0 -3
BITMAP
0800
1400
0800
0000
3E00
4100
4100
4100
4100
4100
7F00
4100
4100
4100
4100
0000
0000
0000
ENDCHAR
STARTCHAR LATIN CAPITAL LETTER AE
ENCODING 198
SWIDTH 480 0
DWIDTH 9 0
BBX 9 18 0 -3
BITMAP
0000
0000
0000
0000
7F80
8800
8800
8800
8800
8E00
F800
8800
8800
8800
8F80
0000
0000
0000
ENDCHAR
STARTCHAR LATIN CAPITAL LETTER C WITH CEDILLA
ENCODING 199
SWIDTH 480 0
DWIDTH 9 0
BBX 9 18 0 -3
BITMAP
0000
0000
0000
0000
3F00
4000
4000
4000
4000
4000
4000
4000
4000
4000
3F00
0800
0400
1800
ENDCHAR
STARTCHAR LATIN CAPITAL LETTER E WITH GRAVE
ENCODING 200
SWIDTH 480 0
DWIDTH 9 0
BBX 9 18 0 -3
BITMAP
2000
1000
0800
0000
7F00
4000
4000
4000
4000
7800
4000
4000
4000
4000
7F00
0000
0000
0000
ENDCHAR
STARTCHAR LATIN CAPITAL LETTER E WITH ACUTE
ENCODING 201
SWIDTH 480 0
DWIDTH 9 0
BBX 9 18 0 -3
BITMAP
0200
0400
0800
0000
7F00
4000
4000
4000
4000
7800
4000
4000
4000
4000
7F00
0000
0000
0000
ENDCHAR
STARTCHAR LATIN CAPITAL LETTER E WITH CIRCUMFLEX
ENCODING 202
SWIDTH 480 0
DWIDTH 9 0
BBX 9 18 0 -3
BITMAP
0800
1400
2200
0000
7F00
4000
4000
4000
4000
7800
4000
4000
4000
4000
7F00
0000
0000
0000
ENDCHAR
STARTCHAR LATIN CAPITAL LETTER E WITH DIAERESIS
ENCODING 203
SWIDTH 480 0
DWIDTH 9 0
BBX 9 18 0 -3
BITMAP
0000
2200
0000
0000
7F00
4000
4000
4000
4000
7800
4000
4000
4000
4000
7F00
0000
0000
0000
ENDCHAR
STARTCHAR LATIN CAPITAL LETTER I WITH GRAVE
ENCODING 204
SWIDTH 480 0
DWIDTH 9 0
BBX 9 18 0 -3
BITMAP
2000
1000
0800
0000
1C00
0800
0800
0800
0800
0800
0800
0800
0800
0800
1C00
0000
0000
0000
ENDCHAR
STARTCHAR LATIN CAPITAL LETTER I WITH ACUTE
ENCODING 205
SWIDTH 480 0
DWIDTH 9 0
BBX 9 18 0 -3
BITMAP
0200
0400
0800
0000
1C00
0800
0800
0800
0800
0800
0800
0800
0800
0800
1C00
0000
0000
0000
ENDCHAR
STARTCHAR LATIN CAPITAL LETTER I WITH CIRCUMFLEX
ENCODING 206
SWIDTH 480 0
DWIDTH 9 0
BBX 9 18 0 -3
BITMAP
0800
1400
2200
0000
1C00
0800
0800
0800
0800
0800
0800
0800
0800
0800
1C00
0000
0000
0000
ENDCHAR
STARTCHAR LATIN CAPITAL LETTER I WITH DIAERESIS
ENCODING 207
SWIDTH 480 0
DWIDTH 9 0
BBX 9 18 0 -3
BITMAP
0000
2200
0000
0000
1C00
0800
0800
0800
0800
0800
0800
0800
0800
0800
1C00
0000
0000
0000
ENDCHAR
STARTCHAR LATIN CAPITAL LETTER ETH
ENCODING 208
SWIDTH 480 0
DWIDTH 9 0
BBX 9 18 0 -3
BITMAP
0000
0000
0000
0000
7E00
4100
4100
4100
4100
F900
4100
4100
4100
4100
7E00
0000
0000
0000
ENDCHAR
STARTCHAR LATIN CAPITAL LETTER N WITH TILDE
ENCODING 209
SWIDTH 480 0
DWIDTH 9 0
BBX 9 18 0 -3
BITMAP
3000
4900
0600
0000
4100
4100
4100
6100
5100
4900
4500
4300
4100
4100
4100
0000
0000
0000
ENDCHAR
STARTCHAR LATIN CAPITAL LETTER O WITH GRAVE
ENCODING 210
SWIDTH 480 0
DWIDTH 9 0
BBX 9 18 0 -3
BITMAP
2000
1000
0800
0000
3E00
4100
4100
4100
4100
4100
4100
4100
4100
4100
3E00
0000
0000
0000
ENDCHAR
STARTCHAR LATIN CAPITAL LETTER O WITH ACUTE
ENCODING 211
SWIDTH 480 0
DWIDTH 9 0
BBX 9 18 0 -3
BITMAP
0200
0400
0800
0000
3E00
4100
4100
4100
4100
4100
4100
4100
4100
4100
3E00
0000
0000
0000
ENDCHAR
STARTCHAR LATIN CAPITAL LETTER O WITH CIRCUMFLEX
ENCODING 212
SWIDTH 480 0
DWIDTH 9 0
BBX 9 18 0 -3
BITMAP
0800
1400
2200
0000
3E00
4100
4100
4100
4100
4100
4100
4100
4100
4100
3E00
0000
0000
0000
ENDCHAR
STARTCHAR LATIN CAPITAL LETTER O WITH TILDE
ENCODING 213
SWIDTH 480 0
DWIDTH 9 0
BBX 9 18 0 -3
BITMAP
3000
4900
0600
0000
3E00
4100
4100
4100
4100
4100
4100
4100
4100
4100
3E00
0000
0000
0000
ENDCHAR
STARTCHAR LATIN CAPITAL LETTER O WITH DIAERESIS
ENCODING 214
SWIDTH 480 0
DWIDTH 9 0
BBX 9 18 0 -3
BITMAP
0000
2200
0000
0000
3E00
4100
4100
4100
4100
4100
4100
4100
4100
4100
3E00
0000
0000
0000
ENDCHAR
STARTCHAR MULTIPLICATION SIGN
ENCODING 215
SWIDTH 480 0
DWIDTH 9 0
BBX 9 18 0 -3
BITMAP
0000
0000
0000
0000
0000
0000
4100
2200
1400
0800
1400
2200
4100
0000
0000
0000
0000
0000
ENDCHAR
STARTCHAR LATIN CAPITAL LETTER O WITH STROKE
ENCODING 216
SWIDTH 480 0
DWIDTH 9 0
BBX 9 18 0 -3
BITMAP
0000
0000
0000
0000
3F00
4300
4300
4500
4500
4900
5100
5100
6100
6100
7E00
0000
0000
0000
ENDCHAR
STARTCHAR LATIN CAPITAL LETTER U WITH GRAVE
ENCODING 217
SWIDTH 480 0
DWIDTH 9 0
BBX 9 18 0 -3
BITMAP
2000
1000
0800
0000
4100
4100
4100
4100
4100
4100
4100
4100
4100
4100
3E00
0000
0000
0000
ENDCHAR
STARTCHAR LATIN CAPITAL LETTER U WITH ACUTE
ENCODING 218
SWIDTH 480 0
DWIDTH 9 0
BBX 9 18 0 -3
BITMAP
0200
0400
0800
0000
4100
4100
4100
4100
4100
4100
4100
4100
4100
4100
3E00
0000
0000
0000
ENDCHAR
STARTCHAR LATIN CAPITAL LETTER U WITH CIRCUMFLEX
ENCODING 219
SWIDTH 480 0
DWIDTH 9 0
BBX 9 18 0 -3
BITMAP
0800
1400
2200
0000
4100
4100
4100
4100
4100
4100
4100
4100
4100
4100
3E00
0000
0000
0000
ENDCHAR
STARTCHAR LATIN CAPITAL LETTER U WITH DIAERESIS
ENCODING 220
SWIDTH 480 0
DWIDTH 9 0
BBX 9 18 0 -3
BITMAP
0000
2200
0000
0000
4100
4100
4100
4100
4100
4100
4100
4100
4100
4100
3E00
0000
0000
0000
ENDCHAR
STARTCHAR LATIN CAPITAL LETTER Y WITH ACUTE
ENCODING 221
SWIDTH 480 0
DWIDTH 9 0
BBX 9 18 0 -3
BITMAP
0200
0400
0800
0000
4100
4100
4100
2200
1400
0800
0800
0800
0800
0800
0800
0000
0000
0000
ENDCHAR
STARTCHAR LATIN CAPITAL LETTER THORN
ENCODING 222
SWIDTH 480 0
DWIDTH 9 0
BBX 9 18 0 -3
BITMAP
0000
0000
0000
0000
4000
4000
7E00
4100
4100
4100
4100
4100
7E00
4000
4000
0000
0000
0000
ENDCHAR
STARTCHAR LATIN SMALL LETTER SHARP S
ENCODING 223
SWIDTH 480 0
DWIDTH 9 0
BBX 9 18 0 -3
BITMAP
0000
0000
0000
3C00
4200
4200
4200
4200
4C00
4200
4100
4100
4100
4100
5E00
0000
0000
0000
ENDCHAR
STARTCHAR LATIN SMALL LETTER A WITH GRAVE
ENCODING 224
SWIDTH 480 0
DWIDTH 9 0
BBX 9 18 0 -3
BITMAP
0000
0000
0000
2000
1000
0800
0000
0000
3E00
0100
0100
3F00
4100
4100
3F00
0000
0000
0000
ENDCHAR
STARTCHAR LATIN SMALL LETTER A WITH ACUTE
ENCODING 225
SWIDTH 480 0
DWIDTH 9 0
BBX 9 18 0 -3
BITMAP
0000
0000
0000
0200
0400
0800
0000
0000
3E00
0100
0100
3F00
4100
4100
3F00
0000
0000
0000
ENDCHAR
STARTCHAR LATIN SMALL LETTER A WITH CIRCUMFLEX
ENCODING 226
SWIDTH 480 0
DWIDTH 9 0
BBX 9 18 0 -3
BITMAP
0000
0000
0000
0800
1400
2200
0000
0000
3E00
0100
0100
3F00
4100
4100
3F00
0000
0000
0000
ENDCHAR
STARTCHAR LATIN SMALL LETTER A WITH TILDE
ENCODING 227
SWIDTH 480 0
DWIDTH 9 0
BBX 9 18 0 -3
BITMAP
0000
0000
0000
3000
4900
0600
0000
0000
3E00
0100
0100
3F00
4100
4100
3F00
0000
0000
0000
ENDCHAR
STARTCHAR LATIN SMALL LETTER A WITH DIAERESIS
ENCODING 228
SWIDTH 480 0
DWIDTH 9 0
BBX 9 18 0 -3
BITMAP
0000
0000
0000
0000
0000
2200
0000
0000
3E00
0100
0100
3F00
4100
4100
3F00
0000
0000
0000
ENDCHAR
STARTCHAR LATIN SMALL LETTER A WITH RING ABOVE
ENCODING 229
SWIDTH 480 0
DWIDTH 9 0
BBX 9 18 0 -3
BITMAP
0000
0000
0000
0800
1400
0800
0000
0000
3E00
0100
0100
3F00
4100
4100
3F00
0000
0000
0000
ENDCHAR
STARTCHAR LATIN SMALL LETTER AE
ENCODING 230
SWIDTH 480 0
DWIDTH 9 0
BBX 9 18 0 -3
BITMAP
0000
0000
0000
0000
0000
0000
0000
0000
7700
0880
0880
7F80
8800
8800
7700
0000
0000
0000
ENDCHAR
STARTCHAR LATIN SMALL LETTER C WITH CEDILLA
ENCODING 231
SWIDTH 480 0
DWIDTH 9 0
BBX 9 18 0 -3
BITMAP
0000
0000
0000
0000
0000
0000
0000
0000
3F00
4000
4000
4000
4000
4000
3F00
0800
0400
1800
ENDCHAR
STARTCHAR LATIN SMALL LETTER E WITH GRAVE
ENCODING 232
SWIDTH 480 0
DWIDTH 9 0
BBX 9 18 0 -3
BITMAP
0000
0000
0000
2000
1000
0800
0000
0000
3E00
4100
4100
7F00
4000
4000
3E00
0000
0000
0000
ENDCHAR
STARTCHAR LATIN SMALL LETTER E WITH ACUTE
ENCODING 233
SWIDTH 480 0
DWIDTH 9 0
BBX 9 18 0 -3
BITMAP
0000
0000
0000
0200
0400
0800
0000
0000
3E00
4100
4100
7F00
4000
4000
3E00
0000
0000
0000
ENDCHAR
STARTCHAR LATIN SMALL LETTER E WITH CIRCUMFLEX
ENCODING 234
SWIDTH 480 0
DWIDTH 9 0
BBX 9 18 0 -3
BITMAP
0000
0000
0000
0800
1400
2200
0000
0000
3E00
4100
4100
7F00
4000
4000
3E00
0000
0000
0000
ENDCHAR
STARTCHAR LATIN SMALL LETTER E WITH DIAERESIS
ENCODING 235
SWIDTH 480 0
DWIDTH 9 0
BBX 9 18 0 -3
BITMAP
0000
0000
0000
0000
0000
2200
0000
0000
3E00
4100
4100
7F00
4000
4000
3E00
0000
0000
0000
ENDCHAR
STARTCHAR LATIN SMALL LETTER I WITH GRAVE
ENCODING 236
SWIDTH 480 0
DWIDTH 9 0
BBX 9 18 0 -3
BITMAP
0000
0000
0000
2000
1000
0800
0000
0000
1800
0800
0800
0800
0800
0800
0800
0000
0000
0000
ENDCHAR
STARTCHAR LATIN SMALL LETTER I WITH ACUTE
ENCODING 237
SWIDTH 480 0
DWIDTH 9 0
BBX 9 18 0 -3
BITMAP
0000
0000
0000
0200
0400
0800
0000
0000
1800
0800
0800
0800
0800
0800
0800
0000
0000
0000
ENDCHAR
STARTCHAR LATIN SMALL LETTER I WITH CIRCUMFLEX
ENCODING 238
SWIDTH 480 0
DWIDTH 9 0
BBX 9 18 0 -3
BITMAP
0000
0000
0000
0800
1400
2200
0000
0000
1800
0800
0800
0800
0800
0800
0800
0000
0000
0000
ENDCHAR
STARTCHAR LATIN SMALL LETTER I WITH DIAERESIS
ENCODING 239
SWIDTH 480 0
DWIDTH 9 0
BBX 9 18 0 -3
BITMAP
0000
0000
0000
0000
0000
2200
0000
0000
1800
0800
0800
0800
0800
0800
0800
0000
0000
0000
ENDCHAR
STARTCHAR LATIN SMALL LETTER ETH
ENCODING 240
SWIDTH 480 0
DWIDTH 9 0
BBX 9 18 0 -3
BITMAP
0000
0100
3200
0C00
1200
2200
0100
0100
3F00
4100
4100
4100
4100
4100
3E00
0000
0000
0000
ENDCHAR
STARTCHAR LATIN SMALL LETTER N WITH TILDE
ENCODING 241
SWIDTH 480 0
DWIDTH 9 0
BBX 9 18 0 -3
BITMAP
0000
0000
0000
3000
4900
0600
0000
0000
7E00
4100
4100
4100
4100
4100
4100
0000
0000
0000
ENDCHAR
STARTCHAR LATIN SMALL LETTER O WITH GRAVE
ENCODING 242
SWIDTH 480 0
DWIDTH 9 0
BBX 9 18 0 -3
BITMAP
0000
0000
0000
2000
1000
0800
0000
0000
3E00
4100
4100
4100
4100
4100
3E00
0000
0000
0000
ENDCHAR
STARTCHAR LATIN SMALL LETTER O WITH ACUTE
ENCODING 243
SWIDTH 480 0
DWIDTH 9 0
BBX 9 18 0 -3
BITMAP
0000
0000
0000
0200
0400
0800
0000
0000
3E00
4100
4100
4100
4100
4100
3E00
0000
0000
0000
ENDCHAR
STARTCHAR LATIN SMALL LETTER O WITH CIRCUMFLEX
ENCODING 244
SWIDTH 480 0
DWIDTH 9 0
BBX 9 18 0 -3
BITMAP
0000
0000
0000
0800
1400
2200
0000
0000
3E00
4100
4100
4100
4100
4100
3E00
0000
0000
0000
ENDCHAR
STARTCHAR LATIN SMALL LETTER O WITH TILDE
ENCODING 245
SWIDTH 480 0
DWIDTH 9 0
BBX 9 18 0 -3
BITMAP
0000
0000
0000
3000
4900
0600
0000
0000
3E00
4100
4100
4100
4100
4100
3E00
0000
0000
0000
ENDCHAR
STARTCHAR LATIN SMALL LETTER O WITH DIAERESIS
ENCODING 246
SWIDTH 480 0
DWIDTH 9 0
BBX 9 18 0 -3
BITMAP
0000
0000
0000
0000
0000
2200
0000
0000
3E00
4100
4100
4100
4100
4100
3E00
0000
0000
0000
ENDCHAR
STARTCHAR DIVISION SIGN
ENCODING 247
SWIDTH 480 0
DWIDTH 9 0
BBX 9 18 0 -3
BITMAP
0000
0000
0000
0000
0000
0000
0800
0000
0000
7F00
0000
0000
0800
0000
0000
0000
0000
0000
ENDCHAR
STARTCHAR LATIN SMALL LETTER O WITH STROKE
ENCODING 248
SWIDTH 480 0
DWIDTH 9 0
BBX 9 18 0 -3
BITMAP
0000
0000
0000
0000
0000
0000
0000
0000
3F00
4300
4500
4900
5100
6100
7E00
0000
0000
0000
ENDCHAR
STARTCHAR LATIN SMALL LETTER U WITH GRAVE
ENCODING 249
SWIDTH 480 0
DWIDTH 9 0
BBX 9 18 0 -3
BITMAP
0000
0000
0000
2000
1000
0800
0000
0000
4100
4100
4100
4100
4100
4100
3F00
0000
0000
0000
ENDCHAR
STARTCHAR LATIN SMALL LETTER U WITH ACUTE
ENCODING 250
SWIDTH 480 0
DWIDTH 9 0
BBX 9 18 0 -3
BITMAP
0000
0000
0000
0200
0400
0800
0000
0000
4100
4100
4100
4100
4100
4100
3F00
0000
0000
0000
ENDCHAR
STARTCHAR LATIN SMALL LETTER U WITH CIRCUMFLEX
ENCODING 251
SWIDTH 480 0
DWIDTH 9 0
BBX 9 18 0 -3
BITMAP
0000
0000
0000
0800
1400
2200
0000
0000
4100
4100
4100
4100
4100
4100
3F00
0000
0000
0000
ENDCHAR
STARTCHAR LATIN SMALL LETTER U WITH DIAERESIS
ENCODING 252
SWIDTH 480 0
DWIDTH 9 0
BBX 9 18 0 -3
BITMAP
0000
0000
0000
0000
0000
2200
0000
0000
4100
4100
4100
4100
4100
4100
3F00
0000
0000
0000
ENDCHAR
STARTCHAR LATIN SMALL LETTER Y WITH ACUTE
ENCODING 253
SWIDTH 480 0
DWIDTH 9 0
BBX 9 18 0 -3
BITMAP
0000
0000
0000
0200
0400
0800
0000
0000
4100
4100
4100
4100
4100
4100
3F00
0100
0100
1E00
ENDCHAR
STARTCHAR LATIN SMALL LETTER THORN
ENCODING 254
SWIDTH 480 0
DWIDTH 9 0
BBX 9 18 0 -3
BITMAP
0000
0000
0000
0000
0000
4000
4000
4000
7E00
4100
4100
4100
4100
4100
7E00
4000
4000
4000
ENDCHAR
STARTCHAR LATIN SMALL LETTER Y WITH DIAERESIS
ENCODING 255
SWIDTH 480 0
DWIDTH 9 0
BBX 9 18 0 -3
BITMAP
0000
0000
0000
0000
0000
2200
0000
0000
4100
4100
4100
4100
4100
4100
3F00
0100
0100
1E00
ENDCHAR
STARTCHAR LATIN CAPITAL LETTER A WITH MACRON
ENCODING 256
SWIDTH 480 0
DWIDTH 9 0
BBX 9 18 0 -3
BITMAP
0000
3E00
0000
0000
3E00
4100
4100
4100
4100
4100
7F00
4100
4100
4100
4100
0000
0000
0000
ENDCHAR
STARTCHAR LATIN SMALL LETTER A WITH MACRON
ENCODING 257
SWIDTH 480 0
DWIDTH 9 0
BBX 9 18 0 -3
BITMAP
0000
0000
0000
0000
0000
3E00
0000
0000
3E00
0100
0100
3F00
4100
4100
3F00
0000
0000
0000
ENDCHAR
STARTCHAR LATIN CAPITAL LETTER A WITH BREVE
ENCODING 258
SWIDTH 480 0
DWIDTH 9 0
BBX 9 18 0 -3
BITMAP
2200
2200
1C00
0000
3E00
4100
4100
4100
4100
4100
7F00
4100
4100
4100
4100
0000
0000
0000
ENDCHAR
STARTCHAR LATIN SMALL LETTER A WITH BREVE
ENCODING 259
SWIDTH 480 0
DWIDTH 9 0
BBX 9 18 0 -3
BITMAP
0000
0000
0000
2200
2200
1C00
0000
0000
3E00
0100
0100
3F00
4100
4100
3F00
0000
0000
0000
ENDCHAR
STARTCHAR LATIN CAPITAL LETTER A WITH OGONEK
ENCODING 260
SWIDTH 480 0
DWIDTH 9 0
BBX 9 18 0 -3
BITMAP
0000
0000
0000
0000
3E00
4100
4100
4100
4100
4100
7F00
4100
4100
4100
4100
0200
0200
0100
ENDCHAR
STARTCHAR LATIN SMALL LETTER A WITH OGONEK
ENCODING 261
SWIDTH 480 0
DWIDTH 9 0
BBX 9 18 0 -3
BITMAP
0000
0000
0000
0000
0000
0000
0000
0000
3E00
0100
0100
3F00
4100
4100
3F00
0100
0100
0080
ENDCHAR
STARTCHAR LATIN CAPITAL LETTER C WITH ACUTE
ENCODING 262
SWIDTH 480 0
DWIDTH 9 0
BBX 9 18 0 -3
BITMAP
0200
0400
0800
0000
3F00
4000
4000
4000
4000
4000
4000
4000
4000
4000
3F00
0000
0000
0000
ENDCHAR
STARTCHAR LATIN SMALL LETTER C WITH ACUTE
ENCODING 263
SWIDTH 480 0
DWIDTH 9 0
BBX 9 18 0 -3
BITMAP
0000
0000
0000
0200
0400
0800
0000
0000
3F00
4000
4000
4000
4000
4000
3F00
0000
0000
0000
ENDCHAR
STARTCHAR LATIN CAPITAL LETTER C WITH CIRCUMFLEX
ENCODING 264
SWIDTH 480 0
DWIDTH 9 0
BBX 9 18 0 -3
BITMAP
0800
1400
2200
0000
3F00
4000
4000
4000
4000
4000
4000
4000
4000
4000
3F00
0000
0000
0000
ENDCHAR
STARTCHAR LATIN SMALL LETTER C WITH CIRCUMFLEX
ENCODING 265
SWIDTH 480 0
DWIDTH 9 0
BBX 9 18 0 -3
BITMAP
0000
0000
0000
0800
1400
2200
0000
0000
3F00
4000
4000
4000
4000
4000
3F00
0000
0000
0000
ENDCHAR
STARTCHAR LATIN CAPITAL LETTER C WITH DOT ABOVE
ENCODING 266
SWIDTH 480 0
DWIDTH 9 0
BBX 9 18 0 -3
BITMAP
0000
0800
0000
0000
3F00
4000
4000
4000
4000
4000
4000
4000
4000
4000
3F00
0000
0000
0000
ENDCHAR
STARTCHAR LATIN SMALL LETTER C WITH DOT ABOVE
ENCODING 267
SWIDTH 480 0
DWIDTH 9 0
BBX 9 18 0 -3
BITMAP
0000
0000
0000
0000
0000
0800
0000
0000
3F00
4000
4000
4000
4000
4000
3F00
0000
0000
0000
ENDCHAR
STARTCHAR LATIN CAPITAL LETTER C WITH CARON
ENCODING 268
SWIDTH 480 0
DWIDTH 9 0
BBX 9 18 0 -3
BITMAP
2200
1400
0800
0000
3F00
4000
4000
4000
4000
4000
4000
4000
4000
4000
3F00
0000
0000
0000
ENDCHAR
STARTCHAR LATIN SMALL LETTER C WITH CARON
ENCODING 269
SWIDTH 480 0
DWIDTH 9 0
BBX 9 18 0 -3
BITMAP
0000
0000
0000
2200
1400
0800
0000
0000
3F00
4000
4000
4000
4000
4000
3F00
0000
0000
0000
ENDCHAR
STARTCHAR LATIN CAPITAL LETTER D WITH CARON
ENCODING 270
SWIDTH 480 0
DWIDTH 9 0
BBX 9 18 0 -3
BITMAP
2200
1400
0800
0000
7E00
4100
4100
4100
4100
4100
4100
4100
4100
4100
7E00
0000
0000
0000
ENDCHAR
STARTCHAR LATIN SMALL LETTER D WITH CARON
ENCODING 271
SWIDTH 480 0
DWIDTH 9 0
BBX 9 18 0 -3
BITMAP
0000
0000
0080
0280
0280
0300
0200
0200
3E00
4200
4200
4200
4200
4200
3E00
0000
0000
0000
ENDCHAR
STARTCHAR LATIN CAPITAL LETTER D WITH STROKE
ENCODING 272
SWIDTH 480 0
DWIDTH 9 0
BBX 9 18 0 -3
BITMAP
0000
0000
0000
0000
7E00
4100
4100
4100
4100
F900
4100
4100
4100
4100
7E00
0000
0000
0000
ENDCHAR
STARTCHAR LATIN SMALL LETTER D WITH STROKE
ENCODING 273
SWIDTH 480 0
DWIDTH 9 0
BBX 9 18 0 -3
BITMAP
0000
0000
0000
0100
0100
0F80
0100
0100
3F00
4100
4100
4100
4100
4100
3F00
0000
0000
0000
ENDCHAR
STARTCHAR LATIN CAPITAL LETTER E WITH MACRON
ENCODING 274
SWIDTH 480 0
DWIDTH 9 0
BBX 9 18 0 -3
BITMAP
0000
3E00
0000
0000
7F00
4000
4000
4000
4000
7800
4000
4000
4000
4000
7F00
0000
0000
0000
ENDCHAR
STARTCHAR LATIN SMALL LETTER E WITH MACRON
ENCODING 275
SWIDTH 480 0
DWIDTH 9 0
BBX 9 18 0 -3
BITMAP
0000
0000
0000
0000
0000
3E00
0000
0000
3E00
4100
4100
7F00
4000
4000
3E00
0000
0000
0000
ENDCHAR
STARTCHAR LATIN CAPITAL LETTER E WITH BREVE
ENCODING 276
SWIDTH 480 0
DWIDTH 9 0
BBX 9 18 0 -3
BITMAP
2200
2200
1C00
0000
7F00
4000
4000
4000
4000
7800
4000
4000
4000
4000
7F00
0000
0000
0000
ENDCHAR
STARTCHAR LATIN SMALL LETTER E WITH BREVE
ENCODING 277
SWIDTH 480 0
DWIDTH 9 0
BBX 9 18 0 -3
BITMAP
0000
0000
0000
2200
2200
1C00
0000
0000
3E00
4100
4100
7F00
4000
4000
3E00
0000
0000
0000
ENDCHAR
STARTCHAR LATIN CAPITAL LETTER E WITH DOT ABOVE
ENCODING 278
SWIDTH 480 0
DWIDTH 9 0
BBX 9 18 0 -3
BITMAP
0000
0800
0000
0000
7F00
4000
4000
4000
4000
7800
4000
4000
4000
4000
7F00
0000
0000
0000
ENDCHAR
STARTCHAR LATIN SMALL LETTER E WITH DOT ABOVE
ENCODING 279
SWIDTH 480 0
DWIDTH 9 0
BBX 9 18 0 -3
BITMAP
0000
0000
0000
0000
0000
0800
0000
0000
3E00
4100
4100
7F00
4000
4000
3E00
0000
0000
0000
ENDCHAR
STARTCHAR LATIN CAPITAL LETTER E WITH OGONEK
ENCODING 280
SWIDTH 480 0
DWIDTH 9 0
BBX 9 18 0 -3
BITMAP
0000
0000
0000
0000
7F00
4000
4000
4000
4000
7800
4000
4000
4000
4000
7F00
0100
0100
0080
ENDCHAR
STARTCHAR LATIN SMALL LETTER E WITH OGONEK
ENCODING 281
SWIDTH 480 0
DWIDTH 9 0
BBX 9 18 0 -3
BITMAP
0000
0000
0000
0000
0000
0000
0000
0000
3E00
4100
4100
7F00
4000
4000
3E00
0200
0200
0100
ENDCHAR
STARTCHAR LATIN CAPITAL LETTER E WITH CARON
ENCODING 282
SWIDTH 480 0
DWIDTH 9 0
BBX 9 18 0 -3
BITMAP
2200
1400
0800
0000
7F00
4000
4000
4000
4000
7800
4000
4000
4000
4000
7F00
0000
0000
0000
ENDCHAR
STARTCHAR LATIN SMALL LETTER E WITH CARON
ENCODING 283
SWIDTH 480 0
DWIDTH 9 0
BBX 9 18 0 -3
BITMAP
0000
0000
0000
2200
1400
0800
0000
0000
3E00
4100
4100
7F00
4000
4000
3E00
0000
0000
0000
ENDCHAR
STARTCHAR LATIN CAPITAL LETTER G WITH CIRCUMFLEX
ENCODING 284
SWIDTH 480 0
DWIDTH 9 0
BBX 9 18 0 -3
BITMAP
0800
1400
2200
0000
3F00
4000
4000
4000
4000
4700
4100
4100
4100
4100
3F00
0000
0000
0000
ENDCHAR
STARTCHAR LATIN SMALL LETTER G WITH CIRCUMFLEX
ENCODING 285
SWIDTH 480 0
DWIDTH 9 0
BBX 9 18 0 -3
BITMAP
0000
0000
0000
0800
1400
2200
0000
0000
3F00
4100
4100
4100
4100
4100
3F00
0100
0100
1E00
ENDCHAR
STARTCHAR LATIN CAPITAL LETTER G WITH BREVE
ENCODING 286
SWIDTH 480 0
DWIDTH 9 0
BBX 9 18 0 -3
BITMAP
2200
2200
1C00
0000
3F00
4000
4000
4000
4000
4700
4100
4100
4100
4100
3F00
0000
0000
0000
ENDCHAR
STARTCHAR LATIN SMALL LETTER G WITH BREVE
ENCODING 287
SWIDTH 480 0
DWIDTH 9 0
BBX 9 18 0 -3
BITMAP
0000
0000
0000
2200
2200
1C00
0000
0000
3F00
4100
4100
4100
4100
4100
3F00
0100
0100
1E00
ENDCHAR
STARTCHAR LATIN CAPITAL LETTER G WITH DOT ABOVE
ENCODING 288
SWIDTH 480 0
DWIDTH 9 0
BBX 9 18 0 -3
BITMAP
0000
0800
0000
0000
3F00
4000
4000
4000
4000
4700
4100
4100
4100
4100
3F00
0000
0000
0000
ENDCHAR
STARTCHAR LATIN SMALL LETTER G WITH DOT ABOVE
ENCODING 289
SWIDTH 480 0
DWIDTH 9 0
BBX 9 18 0 -3
BITMAP
0000
0000
0000
0000
0000
0800
0000
0000
3F00
4100
4100
4100
4100
4100
3F00
0100
0100
1E00
ENDCHAR
STARTCHAR LATIN CAPITAL LETTER G WITH CEDILLA
ENCODING 290
SWIDTH 480 0
DWIDTH 9 0
BBX 9 18 0 -3
BITMAP
0000
0000
0000
0000
3F00
4000
4000
4000
4000
4700
4100
4100
4100
4100
3F00
0800
0400
1800
ENDCHAR
STARTCHAR LATIN SMALL LETTER G WITH CEDILLA
ENCODING 291
SWIDTH 480 0
DWIDTH 9 0
BBX 9 18 0 -3
BITMAP
0000
0000
0000
0000
0C00
1000
0800
0000
3F00
4100
4100
4100
4100
4100
3F00
0100
0100
1E00
ENDCHAR
STARTCHAR LATIN CAPITAL LETTER H WITH CIRCUMFLEX
ENCODING 292
SWIDTH 480 0
DWIDTH 9 0
BBX 9 18 0 -3
BITMAP
0800
1400
2200
0000
4100
4100
4100
4100
4100
7F00
4100
4100
4100
4100
4100
0000
0000
0000
ENDCHAR
STARTCHAR LATIN SMALL LETTER H WITH CIRCUMFLEX
ENCODING 293
SWIDTH 480 0
DWIDTH 9 0
BBX 9 18 0 -3
BITMAP
0000
0400
0A00
5100
4000
4000
4000
4000
7E00
4100
4100
4100
4100
4100
4100
0000
0000
0000
ENDCHAR
STARTCHAR LATIN CAPITAL LETTER H WITH STROKE
ENCODING 294
SWIDTH 480 0
DWIDTH 9 0
BBX 9 18 0 -3
BITMAP
0000
0000
0000
0000
4100
4100
FF80
4100
4100
7F00
4100
4100
4100
4100
4100
0000
0000
0000
ENDCHAR
STARTCHAR LATIN SMALL LETTER H WITH STROKE
ENCODING 295
SWIDTH 480 0
DWIDTH 9 0
BBX 9 18 0 -3
BITMAP
0000
0000
0000
4000
4000
F800
4000
4000
7E00
4100
4100
4100
4100
4100
4100
0000
0000
0000
ENDCHAR
STARTCHAR LATIN CAPITAL LETTER I WITH TILDE
ENCODING 296
SWIDTH 480 0
DWIDTH 9 0
BBX 9 18 0 -3
BITMAP
3000
4900
0600
0000
1C00
0800
0800
0800
0800
0800
0800
0800
0800
0800
1C00
0000
0000
0000
ENDCHAR
STARTCHAR LATIN SMALL LETTER I WITH TILDE
ENCODING 297
SWIDTH 480 0
DWIDTH 9 0
BBX 9 18 0 -3
BITMAP
0000
0000
0000
3000
4900
0600
0000
0000
1800
0800
0800
0800
0800
0800
0800
0000
0000
0000
ENDCHAR
STARTCHAR LATIN CAPITAL LETTER I WITH MACRON
ENCODING 298
SWIDTH 480 0
DWIDTH 9 0
BBX 9 18 0 -3
BITMAP
0000
3E00
0000
0000
1C00
0800
0800
0800
0800
0800
0800
0800
0800
0800
1C00
0000
0000
0000
ENDCHAR
STARTCHAR LATIN SMALL LETTER I WITH MACRON
ENCODING 299
SWIDTH 480 0
DWIDTH 9 0
BBX 9 18 0 -3
BITMAP
0000
0000
0000
0000
0000
3C00
0000
0000
1800
0800
0800
0800
0800
0800
0800
0000
0000
0000
ENDCHAR
STARTCHAR LATIN CAPITAL LETTER I WITH BREVE
ENCODING 300
SWIDTH 480 0
DWIDTH 9 0
BBX 9 18 0 -3
BITMAP
2200
2200
1C00
0000
1C00
0800
0800
0800
0800
0800
0800
0800
0800
0800
1C00
0000
0000
0000
ENDCHAR
STARTCHAR LATIN SMALL LETTER I WITH BREVE
ENCODING 301
SWIDTH 480 0
DWIDTH 9 0
BBX 9 18 0 -3
BITMAP
0000
0000
0000
2200
2200
1C00
0000
0000
1800
0800
0800
0800
0800
0800
0800
0000
0000
0000
ENDCHAR
STARTCHAR LATIN CAPITAL LETTER I WITH OGONEK
ENCODING 302
SWIDTH 480 0
DWIDTH 9 0
BBX 9 18 0 -3
BITMAP
0000
0000
0000
0000
1C00
0800
0800
0800
0800
0800
0800
0800
0800
0800
1C00
0800
0800
0400
ENDCHAR
STARTCHAR LATIN SMALL LETTER I WITH OGONEK
ENCODING 303
SWIDTH 480 0
DWIDTH 9 0
BBX 9 18 0 -3
BITMAP
0000
0000
0000
0000
0000
0800
0000
0000
1800
0800
0800
0800
0800
0800
0800
0800
0800
0400
ENDCHAR
STARTCHAR LATIN CAPITAL LETTER I WITH DOT ABOVE
ENCODING 304
SWIDTH 480 0
DWIDTH 9 0
BBX 9 18 0 -3
BITMAP
0000
0800
0000
0000
1C00
0800
0800
0800
0800
0800
0800
0800
0800
0800
1C00
0000
0000
0000
ENDCHAR
STARTCHAR LATIN SMALL LETTER DOTLESS I
ENCODING 305
SWIDTH 480 0
DWIDTH 9 0
BBX 9 18 0 -3
BITMAP
0000
0000
0000
0000
0000
0000
0000
0000
1800
0800
0800
0800
0800
0800
0800
0000
0000
0000
ENDCHAR
STARTCHAR LATIN CAPITAL LIGATURE IJ
ENCODING 306
SWIDTH 480 0
DWIDTH 9 0
BBX 9 18 0 -3
BITMAP
0000
0000
0000
0000
E080
4080
4080
4080
4080
4080
4080
4080
4080
5080
EF00
0000
0000
0000
ENDCHAR
STARTCHAR LATIN SMALL LIGATURE IJ
ENCODING 307
SWIDTH 480 0
DWIDTH 9 0
BBX 9 18 0 -3
BITMAP
0000
0000
0000
0000
0000
2100
0000
0000
6300
2100
2100
2100
2100
2100
2100
0100
0100
0200
ENDCHAR
STARTCHAR LATIN CAPITAL LETTER J WITH CIRCUMFLEX
ENCODING 308
SWIDTH 480 0
DWIDTH 9 0
BBX 9 18 0 -3
BITMAP
0200
0500
0880
0000
0100
0100
0100
0100
0100
0100
0100
0100
0100
4100
3E00
0000
0000
0000
ENDCHAR
STARTCHAR LATIN SMALL LETTER J WITH CIRCUMFLEX
ENCODING 309
SWIDTH 480 0
DWIDTH 9 0
BBX 9 18 0 -3
BITMAP
0000
0000
0000
0800
1400
2200
0000
0000
1800
0800
0800
0800
0800
0800
0800
0800
0800
1000
ENDCHAR
STARTCHAR LATIN CAPITAL LETTER K WITH CEDILLA
ENCODING 310
SWIDTH 480 0
DWIDTH 9 0
BBX 9 18 0 -3
BITMAP
0000
0000
0000
0000
4100
4200
4400
4800
5000
6000
5000
4800
4400
4200
4100
0800
0400
1800
ENDCHAR
STARTCHAR LATIN SMALL LETTER K WITH CEDILLA
ENCODING 311
SWIDTH 480 0
DWIDTH 9 0
BBX 9 18 0 -3
BITMAP
0000
0000
0000
2000
2000
2000
2000
2000
2200
2400
2800
3000
2800
2400
2200
0800
0400
1800
ENDCHAR
STARTCHAR LATIN SMALL LETTER KRA
ENCODING 312
SWIDTH 480 0
DWIDTH 9 0
BBX 9 18 0 -3
BITMAP
0000
0000
0000
0000
0000
0000
0000
0000
2200
2400
2800
3000
2800
2400
2200
0000
0000
0000
ENDCHAR
STARTCHAR LATIN CAPITAL LETTER L WITH ACUTE
ENCODING 313
SWIDTH 480 0
DWIDTH 9 0
BBX 9 18 0 -3
BITMAP
1000
2000
4000
0000
4000
4000
4000
4000
4000
4000
4000
4000
4000
4000
7F00
0000
0000
0000
ENDCHAR
STARTCHAR LATIN SMALL LETTER L WITH ACUTE
ENCODING 314
SWIDTH 480 0
DWIDTH 9 0
BBX 9 18 0 -3
BITMAP
0400
0800
1000
0000
1000
1000
1000
1000
1000
1000
1000
1000
1000
1000
0E00
0000
0000
0000
ENDCHAR
STARTCHAR LATIN CAPITAL LETTER L WITH CEDILLA
ENCODING 315
SWIDTH 480 0
DWIDTH 9 0
BBX 9 18 0 -3
BITMAP
0000
0000
0000
0000
4000
4000
4000
4000
4000
4000
4000
4000
4000
4000
7F00
0800
0400
1800
ENDCHAR
STARTCHAR LATIN SMALL LETTER L WITH CEDILLA
ENCODING 316
SWIDTH 480 0
DWIDTH 9 0
BBX 9 18 0 -3
BITMAP
0000
0000
0000
1000
1000
1000
1000
1000
1000
1000
1000
1000
1000
1000
0E00
0800
0400
1800
ENDCHAR
STARTCHAR LATIN CAPITAL LETTER L WITH CARON
ENCODING 317
SWIDTH 480 0
DWIDTH 9 0
BBX 9 18 0 -3
BITMAP
0000
0000
0000
0000
4400
4800
5000
4000
4000
4000
4000
4000
4000
4000
7F00
0000
0000
0000
ENDCHAR
STARTCHAR LATIN SMALL LETTER L WITH CARON
ENCODING 318
SWIDTH 480 0
DWIDTH 9 0
BBX 9 18 0 -3
BITMAP
0000
0000
0000
1100
1200
1400
1000
1000
1000
1000
1000
1000
1000
1000
0E00
0000
0000
0000
ENDCHAR
STARTCHAR LATIN CAPITAL LETTER L WITH MIDDLE DOT
ENCODING 319
SWIDTH 480 0
DWIDTH 9 0
BBX 9 18 0 -3
BITMAP
0000
0000
0000
0000
4000
4000
4000
4000
4000
4800
4000
4000
4000
4000
7F00
0000
0000
0000
ENDCHAR
STARTCHAR LATIN SMALL LETTER L WITH MIDDLE DOT
ENCODING 320
SWIDTH 480 0
DWIDTH 9 0
BBX 9 18 0 -3
BITMAP
0000
0000
0000
1000
1000
1000
1000
1000
1000
1400
1000
1000
1000
1000
0E00
0000
0000
0000
ENDCHAR
STARTCHAR LATIN CAPITAL LETTER L WITH STROKE
ENCODING 321
SWIDTH 480 0
DWIDTH 9 0
BBX 9 18 0 -3
BITMAP
0000
0000
0000
0000
4000
4000
4800
5000
6000
4000
C000
4000
4000
4000
7F00
0000
0000
0000
ENDCHAR
STARTCHAR LATIN SMALL LETTER L WITH STROKE
ENCODING 322
SWIDTH 480 0
DWIDTH 9 0
BBX 9 18 0 -3
BITMAP
0000
0000
0000
1000
1000
1000
1000
1400
1800
1000
3000
5000
1000
1000
0E00
0000
0000
0000
ENDCHAR
STARTCHAR LATIN CAPITAL LETTER N WITH ACUTE
ENCODING 323
SWIDTH 480 0
DWIDTH 9 0
BBX 9 18 0 -3
BITMAP
0200
0400
0800
0000
4100
4100
4100
6100
5100
4900
4500
4300
4100
4100
4100
0000
0000
0000
ENDCHAR
STARTCHAR LATIN SMALL LETTER N WITH ACUTE
ENCODING 324
SWIDTH 480 0
DWIDTH 9 0
BBX 9 18 0 -3
BITMAP
0000
0000
0000
0200
0400
0800
0000
0000
7E00
4100
4100
4100
4100
4100
4100
0000
0000
0000
ENDCHAR
STARTCHAR LATIN CAPITAL LETTER N WITH CEDILLA
ENCODING 325
SWIDTH 480 0
DWIDTH 9 0
BBX 9 18 0 -3
BITMAP
0000
0000
0000
0000
4100
4100
4100
6100
5100
4900
4500
4300
4100
4100
4100
0800
0400
1800
ENDCHAR
STARTCHAR LATIN SMALL LETTER N WITH CEDILLA
ENCODING 326
SWIDTH 480 0
DWIDTH 9 0
BBX 9 18 0 -3
BITMAP
0000
0000
0000
0000
0000
0000
0000
0000
7E00
4100
4100
4100
4100
4100
4100
0800
0400
1800
ENDCHAR
STARTCHAR LATIN CAPITAL LETTER N WITH CARON
ENCODING 327
SWIDTH 480 0
DWIDTH 9 0
BBX 9 18 0 -3
BITMAP
2200
1400
0800
0000
4100
4100
4100
6100
5100
4900
4500
4300
4100
4100
4100
0000
0000
0000
ENDCHAR
STARTCHAR LATIN SMALL LETTER N WITH CARON
ENCODING 328
SWIDTH 480 0
DWIDTH 9 0
BBX 9 18 0 -3
BITMAP
0000
0000
0000
2200
1400
0800
0000
0000
7E00
4100
4100
4100
4100
4100
4100
0000
0000
0000
ENDCHAR
STARTCHAR LATIN SMALL LETTER N PRECEDED BY APOSTROPHE
ENCODING 329
SWIDTH 480 0
DWIDTH 9 0
BBX 9 18 0 -3
BITMAP
0000
0000
0000
4000
4000
4000
8000
0000
3F00
2080
2080
2080
2080
2080
2080
0000
0000
0000
ENDCHAR
STARTCHAR LATIN CAPITAL LETTER ENG
ENCODING 330
SWIDTH 480 0
DWIDTH 9 0
BBX 9 18 0 -3
BITMAP
0000
0000
0000
0000
4100
4100
4100
6100
5100
4900
4500
4300
4100
4100
4100
0100
0600
0000
ENDCHAR
STARTCHAR LATIN SMALL LETTER ENG
ENCODING 331
SWIDTH 480 0
DWIDTH 9 0
BBX 9 18 0 -3
BITMAP
0000
0000
0000
0000
0000
0000
0000
0000
7E00
4100
4100
4100
4100
4100
4100
0100
0600
0000
ENDCHAR
STARTCHAR LATIN CAPITAL LETTER O WITH MACRON
ENCODING 332
SWIDTH 480 0
DWIDTH 9 0
BBX 9 18 0 -3
BITMAP
0000
3E00
0000
0000
3E00
4100
4100
4100
4100
4100
4100
4100
4100
4100
3E00
0000
0000
0000
ENDCHAR
STARTCHAR LATIN SMALL LETTER O WITH MACRON
ENCODING 333
SWIDTH 480 0
DWIDTH 9 0
BBX 9 18 0 -3
BITMAP
0000
0000
0000
0000
0000
3E00
0000
0000
3E00
4100
4100
4100
4100
4100
3E00
0000
0000
0000
ENDCHAR
STARTCHAR LATIN CAPITAL LETTER O WITH BREVE
ENCODING 334
SWIDTH 480 0
DWIDTH 9 0
BBX 9 18 0 -3
BITMAP
2200
2200
1C00
0000
3E00
4100
4100
4100
4100
4100
4100
4100
4100
4100
3E00
0000
0000
0000
ENDCHAR
STARTCHAR LATIN SMALL LETTER O WITH BREVE
ENCODING 335
SWIDTH 480 0
DWIDTH 9 0
BBX 9 18 0 -3
BITMAP
0000
0000
0000
2200
2200
1C00
0000
0000
3E00
4100
4100
4100
4100
4100
3E00
0000
0000
0000
ENDCHAR
STARTCHAR LATIN CAPITAL LETTER O WITH DOUBLE ACUTE
ENCODING 336
SWIDTH 480 0
DWIDTH 9 0
BBX 9 18 0 -3
BITMAP
0900
1200
2400
0000
3E00
4100
4100
4100
4100
4100
4100
4100
4100
4100
3E00
0000
0000
0000
ENDCHAR
STARTCHAR LATIN SMALL LETTER O WITH DOUBLE ACUTE
ENCODING 337
SWIDTH 480 0
DWIDTH 9 0
BBX 9 18 0 -3
BITMAP
0000
0000
0000
0900
1200
2400
0000
0000
3E00
4100
4100
4100
4100
4100
3E00
0000
0000
0000
ENDCHAR
STARTCHAR LATIN CAPITAL LIGATURE OE
ENCODING 338
SWIDTH 480 0
DWIDTH 9 0
BBX 9 18 0 -3
BITMAP
0000
0000
0000
0000
7F80
8800
8800
8800
8800
8E00
8800
8800
8800
8800
7F80
0000
0000
0000
ENDCHAR
STARTCHAR LATIN SMALL LIGATURE OE
ENCODING 339
SWIDTH 480 0
DWIDTH 9 0
BBX 9 18 0 -3
BITMAP
0000
0000
0000
0000
0000
0000
0000
0000
7700
8880
8880
8F80
8800
8800
7700
0000
0000
0000
ENDCHAR
STARTCHAR LATIN CAPITAL LETTER R WITH ACUTE
ENCODING 340
SWIDTH 480 0
DWIDTH 9 0
BBX 9 18 0 -3
BITMAP
0200
0400
0800
0000
7E00
4100
4100
4100
4100
4100
7E00
4200
4200
4100
4100
0000
0000
0000
ENDCHAR
STARTCHAR LATIN SMALL LETTER R WITH ACUTE
ENCODING 341
SWIDTH 480 0
DWIDTH 9 0
BBX 9 18 0 -3
BITMAP
0000
0000
0000
0200
0400
0800
0000
0000
5F00
6000
4000
4000
4000
4000
4000
0000
0000
0000
ENDCHAR
STARTCHAR LATIN CAPITAL LETTER R WITH CEDILLA
ENCODING 342
SWIDTH 480 0
DWIDTH 9 0
BBX 9 18 0 -3
BITMAP
0000
0000
0000
0000
7E00
4100
4100
4100
4100
4100
7E00
4200
4200
4100
4100
0800
0400
1800
ENDCHAR
STARTCHAR LATIN SMALL LETTER R WITH CEDILLA
ENCODING 343
SWIDTH 480 0
DWIDTH 9 0
BBX 9 18 0 -3
BITMAP
0000
0000
0000
0000
0000
0000
0000
0000
5F00
6000
4000
4000
4000
4000
4000
4000
2000
C000
ENDCHAR
STARTCHAR LATIN CAPITAL LETTER R WITH CARON
ENCODING 344
SWIDTH 480 0
DWIDTH 9 0
BBX 9 18 0 -3
BITMAP
2200
1400
0800
0000
7E00
4100
4100
4100
4100
4100
7E00
4200
4200
4100
4100
0000
0000
0000
ENDCHAR
STARTCHAR LATIN SMALL LETTER R WITH CARON
ENCODING 345
SWIDTH 480 0
DWIDTH 9 0
BBX 9 18 0 -3
BITMAP
0000
0000
0000
2200
1400
0800
0000
0000
5F00
6000
4000
4000
4000
4000
4000
0000
0000
0000
ENDCHAR
STARTCHAR LATIN CAPITAL LETTER S WITH ACUTE
ENCODING 346
SWIDTH 480 0
DWIDTH 9 0
BBX 9 18 0 -3
BITMAP
0200
0400
0800
0000
3F00
4000
4000
4000
4000
3E00
0100
0100
0100
0100
7E00
0000
0000
0000
ENDCHAR
STARTCHAR LATIN SMALL LETTER S WITH ACUTE
ENCODING 347
SWIDTH 480 0
DWIDTH 9 0
BBX 9 18 0 -3
BITMAP
0000
0000
0000
0200
0400
0800
0000
0000
3F00
4000
4000
3E00
0100
0100
7E00
0000
0000
0000
ENDCHAR
STARTCHAR LATIN CAPITAL LETTER S WITH CIRCUMFLEX
ENCODING 348
SWIDTH 480 0
DWIDTH 9 0
BBX 9 18 0 -3
BITMAP
0800
1400
2200
0000
3F00
4000
4000
4000
4000
3E00
0100
0100
0100
0100
7E00
0000
0000
0000
ENDCHAR
STARTCHAR LATIN SMALL LETTER S WITH CIRCUMFLEX
ENCODING 349
SWIDTH 480 0
DWIDTH 9 0
BBX 9 18 0 -3
BITMAP
0000
0000
0000
0800
1400
2200
0000
0000
3F00
4000
4000
3E00
0100
0100
7E00
0000
0000
0000
ENDCHAR
STARTCHAR LATIN CAPITAL LETTER S WITH CEDILLA
ENCODING 350
SWIDTH 480 0
DWIDTH 9 0
BBX 9 18 0 -3
BITMAP
0000
0000
0000
0000
3F00
4000
4000
4000
4000
3E00
0100
0100
0100
0100
7E00
0800
0400
1800
ENDCHAR
STARTCHAR LATIN SMALL LETTER S WITH CEDILLA
ENCODING 351
SWIDTH 480 0
DWIDTH 9 0
BBX 9 18 0 -3
BITMAP
0000
0000
0000
0000
0000
0000
0000
0000
3F00
4000
4000
3E00
0100
0100
7E00
0800
0400
1800
ENDCHAR
STARTCHAR LATIN CAPITAL LETTER S WITH CARON
ENCODING 352
SWIDTH 480 0
DWIDTH 9 0
BBX 9 18 0 -3
BITMAP
2200
1400
0800
0000
3F00
4000
4000
4000
4000
3E00
0100
0100
0100
0100
7E00
0000
0000
0000
ENDCHAR
STARTCHAR LATIN SMALL LETTER S WITH CARON
ENCODING 353
SWIDTH 480 0
DWIDTH 9 0
BBX 9 18 0 -3
BITMAP
0000
0000
0000
2200
1400
0800
0000
0000
3F00
4000
4000
3E00
0100
0100
7E00
0000
0000
0000
ENDCHAR
STARTCHAR LATIN CAPITAL LETTER T WITH CEDILLA
ENCODING 354
SWIDTH 480 0
DWIDTH 9 0
BBX 9 18 0 -3
BITMAP
0000
0000
0000
0000
7F00
0800
0800
0800
0800
0800
0800
0800
0800
0800
0800
0800
0400
1800
ENDCHAR
STARTCHAR LATIN SMALL LETTER T WITH CEDILLA
ENCODING 355
SWIDTH 480 0
DWIDTH 9 0
BBX 9 18 0 -3
BITMAP
0000
0000
0000
1000
1000
1000
1000
1000
3C00
1000
1000
1000
1000
1000
0E00
0800
0400
1800
ENDCHAR
STARTCHAR LATIN CAPITAL LETTER T WITH CARON
ENCODING 356
SWIDTH 480 0
DWIDTH 9 0
BBX 9 18 0 -3
BITMAP
2200
1400
0800
0000
7F00
0800
0800
0800
0800
0800
0800
0800
0800
0800
0800
0000
0000
0000
ENDCHAR
STARTCHAR LATIN SMALL LETTER T WITH CARON
ENCODING 357
SWIDTH 480 0
DWIDTH 9 0
BBX 9 18 0 -3
BITMAP
0000
0000
0100
1200
1400
1000
1000
1000
3C00
1000
1000
1000
1000
1000
0E00
0000
0000
0000
ENDCHAR
STARTCHAR LATIN CAPITAL LETTER T WITH STROKE
ENCODING 358
SWIDTH 480 0
DWIDTH 9 0
BBX 9 18 0 -3
BITMAP
0000
0000
0000
0000
7F00
0800
0800
0800
0800
3E00
0800
0800
0800
0800
0800
0000
0000
0000
ENDCHAR
STARTCHAR LATIN SMALL LETTER T WITH STROKE
ENCODING 359
SWIDTH 480 0
DWIDTH 9 0
BBX 9 18 0 -3
BITMAP
0000
0000
0000
1000
1000
1000
1000
1000
3C00
1000
1000
3800
1000
1000
0E00
0000
0000
0000
ENDCHAR
STARTCHAR LATIN CAPITAL LETTER U WITH TILDE
ENCODING 360
SWIDTH 480 0
DWIDTH 9 0
BBX 9 18 0 -3
BITMAP
3000
4900
0600
0000
4100
4100
4100
4100
4100
4100
4100
4100
4100
4100
3E00
0000
0000
0000
ENDCHAR
STARTCHAR LATIN SMALL LETTER U WITH TILDE
ENCODING 361
SWIDTH 480 0
DWIDTH 9 0
BBX 9 18 0 -3
BITMAP
0000
0000
0000
3000
4900
0600
0000
0000
4100
4100
4100
4100
4100
4100
3F00
0000
0000
0000
ENDCHAR
STARTCHAR LATIN CAPITAL LETTER U WITH MACRON
ENCODING 362
SWIDTH 480 0
DWIDTH 9 0
BBX 9 18 0 -3
BITMAP
0000
3E00
0000
0000
4100
4100
4100
4100
4100
4100
4100
4100
4100
4100
3E00
0000
0000
0000
ENDCHAR
STARTCHAR LATIN SMALL LETTER U WITH MACRON
ENCODING 363
SWIDTH 480 0
DWIDTH 9 0
BBX 9 18 0 -3
BITMAP
0000
0000
0000
0000
0000
3E00
0000
0000
4100
4100
4100
4100
4100
4100
3F00
0000
0000
0000
ENDCHAR
STARTCHAR LATIN CAPITAL LETTER U WITH BREVE
ENCODING 364
SWIDTH 480 0
DWIDTH 9 0
BBX 9 18 0 -3
BITMAP
2200
2200
1C00
0000
4100
4100
4100
4100
4100
4100
4100
4100
4100
4100
3E00
0000
0000
0000
ENDCHAR
STARTCHAR LATIN SMALL LETTER U WITH BREVE
ENCODING 365
SWIDTH 480 0
DWIDTH 9 0
BBX 9 18 0 -3
BITMAP
0000
0000
0000
2200
2200
1C00
0000
0000
4100
4100
4100
4100
4100
4100
3F00
0000
0000
0000
ENDCHAR
STARTCHAR LATIN CAPITAL LETTER U WITH RING ABOVE
ENCODING 366
SWIDTH 480 0
DWIDTH 9 0
BBX 9 18 0 -3
BITMAP
0800
1400
0800
0000
4100
4100
4100
4100
4100
4100
4100
4100
4100
4100
3E00
0000
0000
0000
ENDCHAR
STARTCHAR LATIN SMALL LETTER U WITH RING ABOVE
ENCODING 367
SWIDTH 480 0
DWIDTH 9 0
BBX 9 18 0 -3
BITMAP
0000
0000
0000
0800
1400
0800
0000
0000
4100
4100
4100
4100
4100
4100
3F00
0000
0000
0000
ENDCHAR
STARTCHAR LATIN CAPITAL LETTER U WITH DOUBLE ACUTE
ENCODING 368
SWIDTH 480 0
DWIDTH 9 0
BBX 9 18 0 -3
BITMAP
0900
1200
2400
0000
4100
4100
4100
4100
4100
4100
4100
4100
4100
4100
3E00
0000
0000
0000
ENDCHAR
STARTCHAR LATIN SMALL LETTER U WITH DOUBLE ACUTE
ENCODING 369
SWIDTH 480 0
DWIDTH 9 0
BBX 9 18 0 -3
BITMAP
0000
0000
0000
0900
1200
2400
0000
0000
4100
4100
4100
4100
4100
4100
3F00
0000
0000
0000
ENDCHAR
STARTCHAR LATIN CAPITAL LETTER U WITH OGONEK
ENCODING 370
SWIDTH 480 0
DWIDTH 9 0
BBX 9 18 0 -3
BITMAP
0000
0000
0000
0000
4100
4100
4100
4100
4100
4100
4100
4100
4100
4100
3E00
0800
0400
1800
ENDCHAR
STARTCHAR LATIN SMALL LETTER U WITH OGONEK
ENCODING 371
SWIDTH 480 0
DWIDTH 9 0
BBX 9 18 0 -3
BITMAP
0000
0000
0000
0000
0000
0000
0000
0000
4100
4100
4100
4100
4100
4100
3F00
0100
0100
0080
ENDCHAR
STARTCHAR LATIN CAPITAL LETTER W WITH CIRCUMFLEX
ENCODING 372
SWIDTH 480 0
DWIDTH 9 0
BBX 9 18 0 -3
BITMAP
0800
1400
2200
0000
4100
4100
4100
4100
4100
4100
4100
4900
5500
6300
4100
0000
0000
0000
ENDCHAR
STARTCHAR LATIN SMALL LETTER W WITH CIRCUMFLEX
ENCODING 373
SWIDTH 480 0
DWIDTH 9 0
BBX 9 18 0 -3
BITMAP
0000
0000
0000
0800
1400
2200
0000
0000
4100
4100
4100
4900
5500
6300
4100
0000
0000
0000
ENDCHAR
STARTCHAR LATIN CAPITAL LETTER Y WITH CIRCUMFLEX
ENCODING 374
SWIDTH 480 0
DWIDTH 9 0
BBX 9 18 0 -3
BITMAP
0800
1400
2200
0000
4100
4100
4100
2200
1400
0800
0800
0800
0800
0800
0800
0000
0000
0000
ENDCHAR
STARTCHAR LATIN SMALL LETTER Y WITH CIRCUMFLEX
ENCODING 375
SWIDTH 480 0
DWIDTH 9 0
BBX 9 18 0 -3
BITMAP
0000
0000
0000
0800
1400
2200
0000
0000
4100
4100
4100
4100
4100
4100
3F00
0100
0100
1E00
ENDCHAR
STARTCHAR LATIN CAPITAL LETTER Y WITH DIAERESIS
ENCODING 376
SWIDTH 480 0
DWIDTH 9 0
BBX 9 18 0 -3
BITMAP
0000
2200
0000
0000
4100
4100
4100
2200
1400
0800
0800
0800
0800
0800
0800
0000
0000
0000
ENDCHAR
STARTCHAR LATIN CAPITAL LETTER Z WITH ACUTE
ENCODING 377
SWIDTH 480 0
DWIDTH 9 0
BBX 9 18 0 -3
BITMAP
0200
0400
0800
0000
7F00
0100
0100
0200
0400
0800
1000
2000
4000
4000
7E00
0000
0000
0000
ENDCHAR
STARTCHAR LATIN SMALL LETTER Z WITH ACUTE
ENCODING 378
SWIDTH 480 0
DWIDTH 9 0
BBX 9 18 0 -3
BITMAP
0000
0000
0000
0200
0400
0800
0000
0000
7F00
0200
0400
0800
1000
2000
7F00
0000
0000
0000
ENDCHAR
STARTCHAR LATIN CAPITAL LETTER Z WITH DOT ABOVE
ENCODING 379
SWIDTH 480 0
DWIDTH 9 0
BBX 9 18 0 -3
BITMAP
0000
0800
0000
0000
7F00
0100
0100
0200
0400
0800
1000
2000
4000
4000
7F00
0000
0000
0000
ENDCHAR
STARTCHAR LATIN SMALL LETTER Z WITH DOT ABOVE
ENCODING 380
SWIDTH 480 0
DWIDTH 9 0
BBX 9 18 0 -3
BITMAP
0000
0000
0000
0000
0000
0800
0000
0000
7F00
0200
0400
0800
1000
2000
7F00
0000
0000
0000
ENDCHAR
STARTCHAR LATIN CAPITAL LETTER Z WITH CARON
ENCODING 381
SWIDTH 480 0
DWIDTH 9 0
BBX 9 18 0 -3
BITMAP
2200
1400
0800
0000
7F00
0100
0100
0200
0400
0800
1000
2000
4000
4000
7F00
0000
0000
0000
ENDCHAR
STARTCHAR LATIN SMALL LETTER Z WITH CARON
ENCODING 382
SWIDTH 480 0
DWIDTH 9 0
BBX 9 18 0 -3
BITMAP
0000
0000
0000
2200
1400
0800
0000
0000
7F00
0200
0400
0800
1000
2000
7F00
0000
0000
0000
ENDCHAR
STARTCHAR LATIN SMALL LETTER LONG S
ENCODING 383
SWIDTH 480 0
DWIDTH 9 0
BBX 9 18 0 -3
BITMAP
0000
0000
0000
0000
0E00
1000
1000
1000
1000
1000
1000
1000
1000
1000
1000
0000
0000
0000
ENDCHAR
STARTCHAR LATIN CAPITAL LETTER REVERSED E
ENCODING 398
SWIDTH 480 0
DWIDTH 9 0
BBX 9 18 0 -3
BITMAP
0000
0000
0000
0000
7F00
0100
0100
0100
0100
0F00
0100
0100
0100
0100
7F00
0000
0000
0000
ENDCHAR
STARTCHAR LATIN CAPITAL LETTER SCHWA
ENCODING 399
SWIDTH 480 0
DWIDTH 9 0
BBX 9 18 0 -3
BITMAP
0000
0000
0000
0000
3E00
0100
0100
0100
0100
7F00
4100
4100
4100
4100
3E00
0000
0000
0000
ENDCHAR
STARTCHAR LATIN SMALL LETTER F WITH HOOK
ENCODING 402
SWIDTH 480 0
DWIDTH 9 0
BBX 9 18 0 -3
BITMAP
0000
0000
0000
0E00
1000
1000
1000
1000
3C00
1000
1000
1000
1000
1000
1000
1000
6000
0000
ENDCHAR
STARTCHAR LATIN CAPITAL LETTER O WITH HORN
ENCODING 416
SWIDTH 480 0
DWIDTH 9 0
BBX 9 18 0 -3
BITMAP
0000
0000
0000
0080
3E80
4180
4180
4100
4100
4100
4100
4100
4100
4100
3E00
0000
0000
0000
ENDCHAR
STARTCHAR LATIN SMALL LETTER O WITH HORN
ENCODING 417
SWIDTH 480 0
DWIDTH 9 0
BBX 9 18 0 -3
BITMAP
0000
0000
0000
0000
0000
0000
0000
0080
3E80
4180
4180
4100
4100
4100
3E00
0000
0000
0000
ENDCHAR
STARTCHAR LATIN CAPITAL LETTER U WITH HORN
ENCODING 431
SWIDTH 480 0
DWIDTH 9 0
BBX 9 18 0 -3
BITMAP
0000
0000
0000
0080
4180
4180
4180
4100
4100
4100
4100
4100
4100
4100
3E00
0000
0000
0000
ENDCHAR
STARTCHAR LATIN SMALL LETTER U WITH HORN
ENCODING 432
SWIDTH 480 0
DWIDTH 9 0
BBX 9 18 0 -3
BITMAP
0000
0000
0000
0000
0000
0000
0000
0080
4180
4180
4180
4100
4100
4100
3F00
0000
0000
0000
ENDCHAR
STARTCHAR LATIN CAPITAL LETTER Z WITH STROKE
ENCODING 437
SWIDTH 480 0
DWIDTH 9 0
BBX 9 18 0 -3
BITMAP
0000
0000
0000
0000
7F00
0100
0100
0200
0400
3E00
1000
2000
4000
4000
7F00
0000
0000
0000
ENDCHAR
STARTCHAR LATIN SMALL LETTER Z WITH STROKE
ENCODING 438
SWIDTH 480 0
DWIDTH 9 0
BBX 9 18 0 -3
BITMAP
0000
0000
0000
0000
0000
0000
0000
0000
7F00
0200
0400
3E00
1000
2000
7F00
0000
0000
0000
ENDCHAR
STARTCHAR LATIN CAPITAL LETTER EZH
ENCODING 439
SWIDTH 480 0
DWIDTH 9 0
BBX 9 18 0 -3
BITMAP
0000
0000
0000
0000
7F00
0200
0400
0800
1E00
0100
0100
0100
0100
0100
7E00
0000
0000
0000
ENDCHAR
STARTCHAR LATIN CAPITAL LETTER A WITH CARON
ENCODING 461
SWIDTH 480 0
DWIDTH 9 0
BBX 9 18 0 -3
BITMAP
2200
1400
0800
0000
3E00
4100
4100
4100
4100
4100
7F00
4100
4100
4100
4100
0000
0000
0000
ENDCHAR
STARTCHAR LATIN SMALL LETTER A WITH CARON
ENCODING 462
SWIDTH 480 0
DWIDTH 9 0
BBX 9 18 0 -3
BITMAP
0000
0000
0000
2200
1400
0800
0000
0000
3E00
0100
0100
3F00
4100
4100
3F00
0000
0000
0000
ENDCHAR
STARTCHAR LATIN CAPITAL LETTER I WITH CARON
ENCODING 463
SWIDTH 480 0
DWIDTH 9 0
BBX 9 18 0 -3
BITMAP
2200
1400
0800
0000
1C00
0800
0800
0800
0800
0800
0800
0800
0800
0800
1C00
0000
0000
0000
ENDCHAR
STARTCHAR LATIN SMALL LETTER I WITH CARON
ENCODING 464
SWIDTH 480 0
DWIDTH 9 0
BBX 9 18 0 -3
BITMAP
0000
0000
0000
2200
1400
0800
0000
0000
1800
0800
0800
0800
0800
0800
0800
0000
0000
0000
ENDCHAR
STARTCHAR LATIN CAPITAL LETTER O WITH CARON
ENCODING 465
SWIDTH 480 0
DWIDTH 9 0
BBX 9 18 0 -3
BITMAP
2200
1400
0800
0000
3E00
4100
4100
4100
4100
4100
4100
4100
4100
4100
3E00
0000
0000
0000
ENDCHAR
STARTCHAR LATIN SMALL LETTER O WITH CARON
ENCODING 466
SWIDTH 480 0
DWIDTH 9 0
BBX 9 18 0 -3
BITMAP
0000
0000
0000
2200
1400
0800
0000
0000
3E00
4100
4100
4100
4100
4100
3E00
0000
0000
0000
ENDCHAR
STARTCHAR LATIN CAPITAL LETTER U WITH CARON
ENCODING 467
SWIDTH 480 0
DWIDTH 9 0
BBX 9 18 0 -3
BITMAP
2200
1400
0800
0000
4100
4100
4100
4100
4100
4100
4100
4100
4100
4100
3E00
0000
0000
0000
ENDCHAR
STARTCHAR LATIN SMALL LETTER U WITH CARON
ENCODING 468
SWIDTH 480 0
DWIDTH 9 0
BBX 9 18 0 -3
BITMAP
0000
0000
0000
2200
1400
0800
0000
0000
4100
4100
4100
4100
4100
4100
3F00
0000
0000
0000
ENDCHAR
STARTCHAR LATIN CAPITAL LETTER U WITH DIAERESIS AND MACRON
ENCODING 469
SWIDTH 480 0
DWIDTH 9 0
BBX 9 18 0 -3
BITMAP
3E00
0000
2200
0000
4100
4100
4100
4100
4100
4100
4100
4100
4100
4100
3E00
0000
0000
0000
ENDCHAR
STARTCHAR LATIN SMALL LETTER U WITH DIAERESIS AND MACRON
ENCODING 470
SWIDTH 480 0
DWIDTH 9 0
BBX 9 18 0 -3
BITMAP
0000
0000
3E00
0000
0000
2200
0000
0000
4100
4100
4100
4100
4100
4100
3F00
0000
0000
0000
ENDCHAR
STARTCHAR LATIN CAPITAL LETTER U WITH DIAERESIS AND ACUTE
ENCODING 471
SWIDTH 480 0
DWIDTH 9 0
BBX 9 18 0 -3
BITMAP
0200
0400
4900
0000
4100
4100
4100
4100
4100
4100
4100
4100
4100
4100
3E00
0000
0000
0000
ENDCHAR
STARTCHAR LATIN SMALL LETTER U WITH DIAERESIS AND ACUTE
ENCODING 472
SWIDTH 480 0
DWIDTH 9 0
BBX 9 18 0 -3
BITMAP
0200
0400
0800
0000
0000
2200
0000
0000
4100
4100
4100
4100
4100
4100
3F00
0000
0000
0000
ENDCHAR
STARTCHAR LATIN CAPITAL LETTER U WITH DIAERESIS AND CARON
ENCODING 473
SWIDTH 480 0
DWIDTH 9 0
BBX 9 18 0 -3
BITMAP
2200
1400
4900
0000
4100
4100
4100
4100
4100
4100
4100
4100
4100
4100
3E00
0000
0000
0000
ENDCHAR
STARTCHAR LATIN SMALL LETTER U WITH DIAERESIS AND CARON
ENCODING 474
SWIDTH 480 0
DWIDTH 9 0
BBX 9 18 0 -3
BITMAP
2200
1400
0800
0000
0000
2200
0000
0000
4100
4100
4100
4100
4100
4100
3F00
0000
0000
0000
ENDCHAR
STARTCHAR LATIN CAPITAL LETTER U WITH DIAERESIS AND GRAVE
ENCODING 475
SWIDTH 480 0
DWIDTH 9 0
BBX 9 18 0 -3
BITMAP
2000
1000
4900
0000
4100
4100
4100
4100
4100
4100
4100
4100
4100
4100
3E00
0000
0000
0000
ENDCHAR
STARTCHAR LATIN SMALL LETTER U WITH DIAERESIS AND GRAVE
ENCODING 476
SWIDTH 480 0
DWIDTH 9 0
BBX 9 18 0 -3
BITMAP
2000
1000
0800
0000
0000
2200
0000
0000
4100
4100
4100
4100
4100
4100
3F00
0000
0000
0000
ENDCHAR
STARTCHAR LATIN SMALL LETTER TURNED E
ENCODING 477
SWIDTH 480 0
DWIDTH 9 0
BBX 9 18 0 -3
BITMAP
0000
0000
0000
0000
0000
0000
0000
0000
3E00
0100
0100
7F00
4100
4100
3E00
0000
0000
0000
ENDCHAR
STARTCHAR LATIN CAPITAL LETTER G WITH STROKE
ENCODING 484
SWIDTH 480 0
DWIDTH 9 0
BBX 9 18 0 -3
BITMAP
0000
0000
0000
0000
3F00
4000
4000
4000
4000
4700
4100
4F80
4100
4100
3F00
0000
0000
0000
ENDCHAR
STARTCHAR LATIN SMALL LETTER G WITH STROKE
ENCODING 485
SWIDTH 480 0
DWIDTH 9 0
BBX 9 18 0 -3
BITMAP
0000
0000
0000
0000
0000
0000
0000
0000
3F00
4100
4100
FF80
4100
4100
3F00
0100
0100
1E00
ENDCHAR
STARTCHAR LATIN CAPITAL LETTER G WITH CARON
ENCODING 486
SWIDTH 480 0
DWIDTH 9 0
BBX 9 18 0 -3
BITMAP
2200
1400
0800
0000
3F00
4000
4000
4000
4000
4700
4100
4100
4100
4100
3F00
0000
0000
0000
ENDCHAR
STARTCHAR LATIN SMALL LETTER G WITH CARON
ENCODING 487
SWIDTH 480 0
DWIDTH 9 0
BBX 9 18 0 -3
BITMAP
0000
0000
0000
2200
1400
0800
0000
0000
3F00
4100
4100
4100
4100
4100
3F00
0100
0100
1E00
ENDCHAR
STARTCHAR LATIN CAPITAL LETTER K WITH CARON
ENCODING 488
SWIDTH 480 0
DWIDTH 9 0
BBX 9 18 0 -3
BITMAP
2200
1400
0800
0000
4100
4200
4400
4800
5000
6000
5000
4800
4400
4200
4100
0000
0000
0000
ENDCHAR
STARTCHAR LATIN SMALL LETTER K WITH CARON
ENCODING 489
SWIDTH 480 0
DWIDTH 9 0
BBX 9 18 0 -3
BITMAP
2200
1400
0800
2000
2000
2000
2000
2000
2200
2400
2800
3000
2800
2400
2200
0000
0000
0000
ENDCHAR
STARTCHAR LATIN CAPITAL LETTER EZH WITH CARON
ENCODING 494
SWIDTH 480 0
DWIDTH 9 0
BBX 9 18 0 -3
BITMAP
2200
1400
0800
0000
7F00
0200
0400
0800
1E00
0100
0100
0100
0100
0100
7E00
0000
0000
0000
ENDCHAR
STARTCHAR LATIN SMALL LETTER EZH WITH CARON
ENCODING 495
SWIDTH 480 0
DWIDTH 9 0
BBX 9 18 0 -3
BITMAP
0000
0000
0000
2200
1400
0800
0000
0000
7F00
0200
0400
0800
1E00
0100
0100
0100
0100
7E00
ENDCHAR
STARTCHAR LATIN CAPITAL LETTER A WITH RING ABOVE AND ACUTE
ENCODING 506
SWIDTH 480 0
DWIDTH 9 0
BBX 9 18 0 -3
BITMAP
0400
0800
1400
0800
3E00
4100
4100
4100
4100
4100
7F00
4100
4100
4100
4100
0000
0000
0000
ENDCHAR
STARTCHAR LATIN SMALL LETTER A WITH RING ABOVE AND ACUTE
ENCODING 507
SWIDTH 480 0
DWIDTH 9 0
BBX 9 18 0 -3
BITMAP
0200
0400
0800
0000
0800
1400
0800
0000
3E00
0100
0100
3F00
4100
4100
3F00
0000
0000
0000
ENDCHAR
STARTCHAR LATIN CAPITAL LETTER AE WITH ACUTE
ENCODING 508
SWIDTH 480 0
DWIDTH 9 0
BBX 9 18 0 -3
BITMAP
0200
0400
0800
0000
7F80
8800
8800
8800
8800
8E00
F800
8800
8800
8800
8F80
0000
0000
0000
ENDCHAR
STARTCHAR LATIN SMALL LETTER AE WITH ACUTE
ENCODING 509
SWIDTH 480 0
DWIDTH 9 0
BBX 9 18 0 -3
BITMAP
0000
0000
0000
0200
0400
0800
0000
0000
7700
0880
0880
7F80
8800
8800
7700
0000
0000
0000
ENDCHAR
STARTCHAR LATIN CAPITAL LETTER O WITH STROKE AND ACUTE
ENCODING 510
SWIDTH 480 0
DWIDTH 9 0
BBX 9 18 0 -3
BITMAP
0200
0400
0800
0000
3F00
4300
4300
4500
4500
4900
5100
5100
6100
6100
7E00
0000
0000
0000
ENDCHAR
STARTCHAR LATIN SMALL LETTER O WITH STROKE AND ACUTE
ENCODING 511
SWIDTH 480 0
DWIDTH 9 0
BBX 9 18 0 -3
BITMAP
0000
0000
0000
0200
0400
0800
0000
0000
3F00
4300
4500
4900
5100
6100
7E00
0000
0000
0000
ENDCHAR
STARTCHAR LATIN CAPITAL LETTER S WITH COMMA BELOW
ENCODING 536
SWIDTH 480 0
DWIDTH 9 0
BBX 9 18 0 -3
BITMAP
0000
0000
0000
0000
3F00
4000
4000
4000
4000
3E00
0100
0100
0100
0100
7E00
0000
0800
1000
ENDCHAR
STARTCHAR LATIN SMALL LETTER S WITH COMMA BELOW
ENCODING 537
SWIDTH 480 0
DWIDTH 9 0
BBX 9 18 0 -3
BITMAP
0000
0000
0000
0000
0000
0000
0000
0000
3F00
4000
4000
3E00
0100
0100
7E00
0000
0800
1000
ENDCHAR
STARTCHAR LATIN CAPITAL LETTER T WITH COMMA BELOW
ENCODING 538
SWIDTH 480 0
DWIDTH 9 0
BBX 9 18 0 -3
BITMAP
0000
0000
0000
0000
7F00
0800
0800
0800
0800
0800
0800
0800
0800
0800
0800
0000
0800
1000
ENDCHAR
STARTCHAR LATIN SMALL LETTER T WITH COMMA BELOW
ENCODING 539
SWIDTH 480 0
DWIDTH 9 0
BBX 9 18 0 -3
BITMAP
0000
0000
0000
1000
1000
1000
1000
1000
3C00
1000
1000
1000
1000
1000
0E00
0000
0800
1000
ENDCHAR
STARTCHAR LATIN SMALL LETTER TURNED A
ENCODING 592
SWIDTH 480 0
DWIDTH 9 0
BBX 9 18 0 -3
BITMAP
0000
0000
0000
0000
0000
0000
0000
0000
7E00
4100
4100
7E00
4000
4000
3E00
0000
0000
0000
ENDCHAR
STARTCHAR LATIN SMALL LETTER ALPHA
ENCODING 593
SWIDTH 480 0
DWIDTH 9 0
BBX 9 18 0 -3
BITMAP
0000
0000
0000
0000
0000
0000
0000
0000
3F00
4100
4100
4100
4100
4100
3F00
0000
0000
0000
ENDCHAR
STARTCHAR LATIN SMALL LETTER TURNED ALPHA
ENCODING 594
SWIDTH 480 0
DWIDTH 9 0
BBX 9 18 0 -3
BITMAP
0000
0000
0000
0000
0000
0000
0000
0000
7E00
4100
4100
4100
4100
4100
7E00
0000
0000
0000
ENDCHAR
STARTCHAR LATIN SMALL LETTER B WITH HOOK
ENCODING 595
SWIDTH 480 0
DWIDTH 9 0
BBX 9 18 0 -3
BITMAP
0000
0000
2000
4000
4000
4000
4000
4000
7E00
4100
4100
4100
4100
4100
7E00
0000
0000
0000
ENDCHAR
STARTCHAR LATIN SMALL LETTER OPEN O
ENCODING 596
SWIDTH 480 0
DWIDTH 9 0
BBX 9 18 0 -3
BITMAP
0000
0000
0000
0000
0000
0000
0000
0000
7E00
0100
0100
0100
0100
0100
7E00
0000
0000
0000
ENDCHAR
STARTCHAR LATIN SMALL LETTER C WITH CURL
ENCODING 597
SWIDTH 480 0
DWIDTH 9 0
BBX 9 18 0 -3
BITMAP
0000
0000
0000
0000
0000
0000
0000
0000
3F00
4000
4000
4000
4200
4500
3E00
0400
0400
0000
ENDCHAR
STARTCHAR LATIN SMALL LETTER D WITH TAIL
ENCODING 598
SWIDTH 480 0
DWIDTH 9 0
BBX 9 18 0 -3
BITMAP
0000
0000
0000
0100
0100
0100
0100
0100
3F00
4100
4100
4100
4100
4100
3F00
0100
0080
0000
ENDCHAR
STARTCHAR LATIN SMALL LETTER D WITH HOOK
ENCODING 599
SWIDTH 480 0
DWIDTH 9 0
BBX 9 18 0 -3
BITMAP
0000
0000
0080
0100
0100
0100
0100
0100
3F00
4100
4100
4100
4100
4100
3F00
0000
0000
0000
ENDCHAR
STARTCHAR LATIN SMALL LETTER REVERSED E
ENCODING 600
SWIDTH 480 0
DWIDTH 9 0
BBX 9 18 0 -3
BITMAP
0000
0000
0000
0000
0000
0000
0000
0000
3E00
4100
4100
7F00
0100
0100
3E00
0000
0000
0000
ENDCHAR
STARTCHAR LATIN SMALL LETTER SCHWA
ENCODING 601
SWIDTH 480 0
DWIDTH 9 0
BBX 9 18 0 -3
BITMAP
0000
0000
0000
0000
0000
0000
0000
0000
3E00
0100
0100
7F00
4100
4100
3E00
0000
0000
0000
ENDCHAR
STARTCHAR LATIN SMALL LETTER SCHWA WITH HOOK
ENCODING 602
SWIDTH 480 0
DWIDTH 9 0
BBX 9 18 0 -3
BITMAP
0000
0000
0000
0000
0000
0000
0000
0000
7C00
0200
0200
FF00
8280
8280
7C00
0000
0000
0000
ENDCHAR
STARTCHAR LATIN SMALL LETTER OPEN E
ENCODING 603
SWIDTH 480 0
DWIDTH 9 0
BBX 9 18 0 -3
BITMAP
0000
0000
0000
0000
0000
0000
0000
0000
3F00
4000
4000
3800
4000
4000
3F00
0000
0000
0000
ENDCHAR
STARTCHAR LATIN SMALL LETTER REVERSED OPEN E
ENCODING 604
SWIDTH 480 0
DWIDTH 9 0
BBX 9 18 0 -3
BITMAP
0000
0000
0000
0000
0000
0000
0000
0000
7E00
0100
0100
0E00
0100
0100
7E00
0000
0000
0000
ENDCHAR
STARTCHAR LATIN SMALL LETTER REVERSED OPEN E WITH HOOK
ENCODING 605
SWIDTH 480 0
DWIDTH 9 0
BBX 9 18 0 -3
BITMAP
0000
0000
0000
0000
0000
0000
0000
0000
FC00
0200
0300
1C80
0280
0200
FC00
0000
0000
0000
ENDCHAR
STARTCHAR LATIN SMALL LETTER CLOSED REVERSED OPEN E
ENCODING 606
SWIDTH 480 0
DWIDTH 9 0
BBX 9 18 0 -3
BITMAP
0000
0000
0000
0000
0000
0000
0000
0000
3E00
4100
4100
4E00
4100
4100
3E00
0000
0000
0000
ENDCHAR
STARTCHAR LATIN SMALL LETTER DOTLESS J WITH STROKE
ENCODING 607
SWIDTH 480 0
DWIDTH 9 0
BBX 9 18 0 -3
BITMAP
0000
0000
0000
0000
0000
0000
0000
0000
1800
0800
3E00
0800
0800
0800
0800
0800
0800
1000
ENDCHAR
STARTCHAR LATIN SMALL LETTER G WITH HOOK
ENCODING 608
SWIDTH 480 0
DWIDTH 9 0
BBX 9 18 0 -3
BITMAP
0000
0000
0000
0000
0000
0000
0080
0100
3F00
4100
4100
4100
4100
4100
3F00
0100
0100
1E00
ENDCHAR
STARTCHAR LATIN SMALL LETTER SCRIPT G
ENCODING 609
SWIDTH 480 0
DWIDTH 9 0
BBX 9 18 0 -3
BITMAP
0000
0000
0000
0000
0000
0000
0000
0000
3F00
4100
4100
4100
4300
4500
3900
0100
0100
1E00
ENDCHAR
STARTCHAR LATIN LETTER SMALL CAPITAL G
ENCODING 610
SWIDTH 480 0
DWIDTH 9 0
BBX 9 18 0 -3
BITMAP
0000
0000
0000
0000
0000
0000
0000
0000
3F00
4000
4000
4700
4100
4100
3F00
0000
0000
0000
ENDCHAR
STARTCHAR LATIN SMALL LETTER GAMMA
ENCODING 611
SWIDTH 480 0
DWIDTH 9 0
BBX 9 18 0 -3
BITMAP
0000
0000
0000
0000
0000
0000
0000
0000
4100
4100
2200
2200
1400
1400
0800
1400
1400
0800
ENDCHAR
STARTCHAR LATIN SMALL LETTER RAMS HORN
ENCODING 612
SWIDTH 480 0
DWIDTH 9 0
BBX 9 18 0 -3
BITMAP
0000
0000
0000
0000
0000
0000
0000
0000
4100
2200
1400
0800
1400
1400
0800
0000
0000
0000
ENDCHAR
STARTCHAR LATIN SMALL LETTER TURNED H
ENCODING 613
SWIDTH 480 0
DWIDTH 9 0
BBX 9 18 0 -3
BITMAP
0000
0000
0000
0000
0000
0000
0000
0000
4100
4100
4100
4100
4100
4100
3F00
0100
0100
0100
ENDCHAR
STARTCHAR LATIN SMALL LETTER H WITH HOOK
ENCODING 614
SWIDTH 480 0
DWIDTH 9 0
BBX 9 18 0 -3
BITMAP
0000
0000
2000
4000
4000
4000
4000
4000
7E00
4100
4100
4100
4100
4100
4100
0000
0000
0000
ENDCHAR
STARTCHAR LATIN SMALL LETTER HENG WITH HOOK
ENCODING 615
SWIDTH 480 0
DWIDTH 9 0
BBX 9 18 0 -3
BITMAP
0000
0000
2000
4000
4000
4000
4000
4000
7E00
4100
4100
4100
4100
4100
4100
0600
0000
0000
ENDCHAR
STARTCHAR LATIN SMALL LETTER I WITH STROKE
ENCODING 616
SWIDTH 480 0
DWIDTH 9 0
BBX 9 18 0 -3
BITMAP
0000
0000
0000
0000
0000
0800
0000
0000
1800
0800
3E00
0800
0800
0800
0800
0000
0000
0000
ENDCHAR
STARTCHAR LATIN SMALL LETTER IOTA
ENCODING 617
SWIDTH 480 0
DWIDTH 9 0
BBX 9 18 0 -3
BITMAP
0000
0000
0000
0000
0000
0000
0000
0000
0800
0800
0800
0800
0800
0800
0400
0000
0000
0000
ENDCHAR
STARTCHAR LATIN LETTER SMALL CAPITAL I
ENCODING 618
SWIDTH 480 0
DWIDTH 9 0
BBX 9 18 0 -3
BITMAP
0000
0000
0000
0000
0000
0000
0000
0000
1C00
0800
0800
0800
0800
0800
1C00
0000
0000
0000
ENDCHAR
STARTCHAR LATIN SMALL LETTER L WITH MIDDLE TILDE
ENCODING 619
SWIDTH 480 0
DWIDTH 9 0
BBX 9 18 0 -3
BITMAP
0000
0000
0000
0800
0800
0800
0800
0800
3900
4E00
0800
0800
0800
0800
0700
0000
0000
0000
ENDCHAR
STARTCHAR LATIN SMALL LETTER L WITH BELT
ENCODING 620
SWIDTH 480 0
DWIDTH 9 0
BBX 9 18 0 -3
BITMAP
0000
0000
0000
0800
0800
0800
3800
4800
3E00
0800
0800
0800
0800
0800
0700
0000
0000
0000
ENDCHAR
STARTCHAR LATIN SMALL LETTER L WITH RETROFLEX HOOK
ENCODING 621
SWIDTH 480 0
DWIDTH 9 0
BBX 9 18 0 -3
BITMAP
0000
0000
0000
1000
1000
1000
1000
1000
1000
1000
1000
1000
1000
1000
0E00
0200
0200
0100
ENDCHAR
STARTCHAR LATIN SMALL LETTER LEZH
ENCODING 622
SWIDTH 480 0
DWIDTH 9 0
BBX 9 18 0 -3
BITMAP
0000
0000
0000
4000
4000
4000
4000
4000
7F00
4200
4400
4800
5E00
4100
3100
0100
2100
1E00
ENDCHAR
STARTCHAR LATIN SMALL LETTER TURNED M
ENCODING 623
SWIDTH 480 0
DWIDTH 9 0
BBX 9 18 0 -3
BITMAP
0000
0000
0000
0000
0000
0000
0000
0000
4100
4900
4900
4900
4900
4900
3700
0000
0000
0000
ENDCHAR
STARTCHAR LATIN SMALL LETTER TURNED M WITH LONG LEG
ENCODING 624
SWIDTH 480 0
DWIDTH 9 0
BBX 9 18 0 -3
BITMAP
0000
0000
0000
0000
0000
0000
0000
0000
4100
4900
4900
4900
4900
4900
3700
0100
0100
0100
ENDCHAR
STARTCHAR LATIN SMALL LETTER M WITH HOOK
ENCODING 625
SWIDTH 480 0
DWIDTH 9 0
BBX 9 18 0 -3
BITMAP
0000
0000
0000
0000
0000
0000
0000
0000
7600
4900
4900
4900
4900
4900
4100
0100
0200
0000
ENDCHAR
STARTCHAR LATIN SMALL LETTER N WITH LEFT HOOK
ENCODING 626
SWIDTH 480 0
DWIDTH 9 0
BBX 9 18 0 -3
BITMAP
0000
0000
0000
0000
0000
0000
0000
0000
7E00
4100
4100
4100
4100
4100
4100
4000
8000
0000
ENDCHAR
STARTCHAR LATIN SMALL LETTER N WITH RETROFLEX HOOK
ENCODING 627
SWIDTH 480 0
DWIDTH 9 0
BBX 9 18 0 -3
BITMAP
0000
0000
0000
0000
0000
0000
0000
0000
7E00
4100
4100
4100
4100
4100
4100
0100
0080
0000
ENDCHAR
STARTCHAR LATIN LETTER SMALL CAPITAL N
ENCODING 628
SWIDTH 480 0
DWIDTH 9 0
BBX 9 18 0 -3
BITMAP
0000
0000
0000
0000
0000
0000
0000
0000
4100
6100
5100
4900
4500
4300
4100
0000
0000
0000
ENDCHAR
STARTCHAR LATIN SMALL LETTER BARRED O
ENCODING 629
SWIDTH 480 0
DWIDTH 9 0
BBX 9 18 0 -3
BITMAP
0000
0000
0000
0000
0000
0000
0000
0000
3E00
4100
4100
7F00
4100
4100
3E00
0000
0000
0000
ENDCHAR
STARTCHAR LATIN LETTER SMALL CAPITAL OE
ENCODING 630
SWIDTH 480 0
DWIDTH 9 0
BBX 9 18 0 -3
BITMAP
0000
0000
0000
0000
0000
0000
0000
0000
7F80
8800
8800
8E00
8800
8800
7F80
0000
0000
0000
ENDCHAR
STARTCHAR LATIN SMALL LETTER CLOSED OMEGA
ENCODING 631
SWIDTH 480 0
DWIDTH 9 0
BBX 9 18 0 -3
BITMAP
0000
0000
0000
0000
0000
0000
0000
0000
3E00
4100
4100
4900
4900
4900
3600
0000
0000
0000
ENDCHAR
STARTCHAR LATIN SMALL LETTER PHI
ENCODING 632
SWIDTH 480 0
DWIDTH 9 0
BBX 9 18 0 -3
BITMAP
0000
0000
0000
0000
0000
0800
0800
0800
3E00
4900
4900
4900
4900
4900
3E00
0800
0800
0800
ENDCHAR
STARTCHAR LATIN SMALL LETTER TURNED R
ENCODING 633
SWIDTH 480 0
DWIDTH 9 0
BBX 9 18 0 -3
BITMAP
0000
0000
0000
0000
0000
0000
0000
0000
0100
0100
0100
0100
0100
0300
7D00
0000
0000
0000
ENDCHAR
STARTCHAR LATIN SMALL LETTER TURNED R WITH LONG LEG
ENCODING 634
SWIDTH 480 0
DWIDTH 9 0
BBX 9 18 0 -3
BITMAP
0000
0000
0000
0000
0000
0100
0100
0100
0100
0100
0100
0100
0100
0300
7D00
0000
0000
0000
ENDCHAR
STARTCHAR LATIN SMALL LETTER TURNED R WITH HOOK
ENCODING 635
SWIDTH 480 0
DWIDTH 9 0
BBX 9 18 0 -3
BITMAP
0000
0000
0000
0000
0000
0000
0000
0000
0100
0100
0100
0100
0100
0300
7D00
0100
0080
0000
ENDCHAR
STARTCHAR LATIN SMALL LETTER R WITH LONG LEG
ENCODING 636
SWIDTH 480 0
DWIDTH 9 0
BBX 9 18 0 -3
BITMAP
0000
0000
0000
0000
0000
0000
0000
0000
5F00
6000
4000
4000
4000
4000
4000
4000
4000
4000
ENDCHAR
STARTCHAR LATIN SMALL LETTER R WITH TAIL
ENCODING 637
SWIDTH 480 0
DWIDTH 9 0
BBX 9 18 0 -3
BITMAP
0000
0000
0000
0000
0000
0000
0000
0000
5F00
6000
4000
4000
4000
4000
4000
4000
2000
0000
ENDCHAR
STARTCHAR LATIN SMALL LETTER R WITH FISHHOOK
ENCODING 638
SWIDTH 480 0
DWIDTH 9 0
BBX 9 18 0 -3
BITMAP
0000
0000
0000
0000
0000
0000
0000
0000
1F00
2000
2000
2000
2000
2000
7000
0000
0000
0000
ENDCHAR
STARTCHAR LATIN SMALL LETTER REVERSED R WITH FISHHOOK
ENCODING 639
SWIDTH 480 0
DWIDTH 9 0
BBX 9 18 0 -3
BITMAP
0000
0000
0000
0000
0000
0000
0000
0000
7C00
0200
0200
0200
0200
0200
0700
0000
0000
0000
ENDCHAR
STARTCHAR LATIN LETTER SMALL CAPITAL R
ENCODING 640
SWIDTH 480 0
DWIDTH 9 0
BBX 9 18 0 -3
BITMAP
0000
0000
0000
0000
0000
0000
0000
0000
7E00
4100
4100
7E00
4400
4200
4100
0000
0000
0000
ENDCHAR
STARTCHAR LATIN LETTER SMALL CAPITAL INVERTED R
ENCODING 641
SWIDTH 480 0
DWIDTH 9 0
BBX 9 18 0 -3
BITMAP
0000
0000
0000
0000
0000
0000
0000
0000
4100
4200
4400
7E00
4100
4100
7E00
0000
0000
0000
ENDCHAR
STARTCHAR LATIN SMALL LETTER S WITH HOOK
ENCODING 642
SWIDTH 480 0
DWIDTH 9 0
BBX 9 18 0 -3
BITMAP
0000
0000
0000
0000
0000
0000
0000
0000
3F00
4000
4000
3E00
0100
0100
7E00
4000
2000
0000
ENDCHAR
STARTCHAR LATIN SMALL LETTER ESH
ENCODING 643
SWIDTH 480 0
DWIDTH 9 0
BBX 9 18 0 -3
BITMAP
0000
0000
0000
0700
0800
0800
0800
0800
0800
0800
0800
0800
0800
0800
0800
0800
0800
7000
ENDCHAR
STARTCHAR LATIN SMALL LETTER DOTLESS J WITH STROKE AND HOOK
ENCODING 644
SWIDTH 480 0
DWIDTH 9 0
BBX 9 18 0 -3
BITMAP
0000
0000
0000
0000
0000
0000
0400
0800
1800
0800
3E00
0800
0800
0800
0800
0800
0800
1000
ENDCHAR
STARTCHAR LATIN SMALL LETTER SQUAT REVERSED ESH
ENCODING 645
SWIDTH 480 0
DWIDTH 9 0
BBX 9 18 0 -3
BITMAP
0000
0000
0000
0000
0000
0000
0000
0000
7000
0800
0800
0800
0800
0800
0800
0800
0800
0700
ENDCHAR
STARTCHAR LATIN SMALL LETTER ESH WITH CURL
ENCODING 646
SWIDTH 480 0
DWIDTH 9 0
BBX 9 18 0 -3
BITMAP
0000
0000
0000
0700
0800
0800
0800
0800
0800
0800
0800
0800
0800
0800
0800
3E00
4800
3000
ENDCHAR
STARTCHAR LATIN SMALL LETTER TURNED T
ENCODING 647
SWIDTH 480 0
DWIDTH 9 0
BBX 9 18 0 -3
BITMAP
0000
0000
0000
0000
0000
0000
0000
0000
3800
0400
0400
0400
0400
0400
1E00
0400
0400
0400
ENDCHAR
STARTCHAR LATIN SMALL LETTER T WITH RETROFLEX HOOK
ENCODING 648
SWIDTH 480 0
DWIDTH 9 0
BBX 9 18 0 -3
BITMAP
0000
0000
0000
1000
1000
1000
1000
1000
3C00
1000
1000
1000
1000
1000
0E00
0200
0200
0100
ENDCHAR
STARTCHAR LATIN SMALL LETTER U BAR
ENCODING 649
SWIDTH 480 0
DWIDTH 9 0
BBX 9 18 0 -3
BITMAP
0000
0000
0000
0000
0000
0000
0000
0000
4100
4100
4100
FF80
4100
4100
3F00
0000
0000
0000
ENDCHAR
STARTCHAR LATIN SMALL LETTER UPSILON
ENCODING 650
SWIDTH 480 0
DWIDTH 9 0
BBX 9 18 0 -3
BITMAP
0000
0000
0000
0000
0000
0000
0000
0000
4100
2200
4100
4100
4100
4100
3E00
0000
0000
0000
ENDCHAR
STARTCHAR LATIN SMALL LETTER V WITH HOOK
ENCODING 651
SWIDTH 480 0
DWIDTH 9 0
BBX 9 18 0 -3
BITMAP
0000
0000
0000
0000
0000
0000
0200
0100
4100
4100
2200
2200
1400
1400
0800
0000
0000
0000
ENDCHAR
STARTCHAR LATIN SMALL LETTER TURNED V
ENCODING 652
SWIDTH 480 0
DWIDTH 9 0
BBX 9 18 0 -3
BITMAP
0000
0000
0000
0000
0000
0000
0000
0000
0800
1400
1400
2200
2200
4100
4100
0000
0000
0000
ENDCHAR
STARTCHAR LATIN SMALL LETTER TURNED W
ENCODING 653
SWIDTH 480 0
DWIDTH 9 0
BBX 9 18 0 -3
BITMAP
0000
0000
0000
0000
0000
0000
0000
0000
4100
6300
5500
4900
4100
4100
4100
0000
0000
0000
ENDCHAR
STARTCHAR LATIN SMALL LETTER TURNED Y
ENCODING 654
SWIDTH 480 0
DWIDTH 9 0
BBX 9 18 0 -3
BITMAP
0000
0000
0000
0000
0000
3C00
4000
4000
7E00
4100
4100
4100
4100
4100
4100
0000
0000
0000
ENDCHAR
STARTCHAR LATIN LETTER SMALL CAPITAL Y
ENCODING 655
SWIDTH 480 0
DWIDTH 9 0
BBX 9 18 0 -3
BITMAP
0000
0000
0000
0000
0000
0000
0000
0000
4100
4100
2200
1400
0800
0800
0800
0000
0000
0000
ENDCHAR
STARTCHAR LATIN SMALL LETTER Z WITH RETROFLEX HOOK
ENCODING 656
SWIDTH 480 0
DWIDTH 9 0
BBX 9 18 0 -3
BITMAP
0000
0000
0000
0000
0000
0000
0000
0000
7F00
0200
0400
0800
1000
2000
7F00
0100
0100
0080
ENDCHAR
STARTCHAR LATIN SMALL LETTER Z WITH CURL
ENCODING 657
SWIDTH 480 0
DWIDTH 9 0
BBX 9 18 0 -3
BITMAP
0000
0000
0000
0000
0000
0000
0000
0000
7F00
0200
0400
0800
1200
2500
7E00
0400
0400
0000
ENDCHAR
STARTCHAR LATIN SMALL LETTER EZH
ENCODING 658
SWIDTH 480 0
DWIDTH 9 0
BBX 9 18 0 -3
BITMAP
0000
0000
0000
0000
0000
0000
0000
0000
7F00
0200
0400
0800
1E00
0100
0100
0100
0100
7E00
ENDCHAR
STARTCHAR LATIN SMALL LETTER EZH WITH CURL
ENCODING 659
SWIDTH 480 0
DWIDTH 9 0
BBX 9 18 0 -3
BITMAP
0000
0000
0000
0000
0000
0000
0000
0000
7F00
0200
0400
0800
1E00
0100
2100
5100
3E00
1000
ENDCHAR
STARTCHAR LATIN LETTER GLOTTAL STOP
ENCODING 660
SWIDTH 480 0
DWIDTH 9 0
BBX 9 18 0 -3
BITMAP
0000
0000
0000
0000
7E00
0100
0100
0100
0200
0400
0800
0800
0800
0800
0800
0000
0000
0000
ENDCHAR
STARTCHAR LATIN LETTER PHARYNGEAL VOICED FRICATIVE
ENCODING 661
SWIDTH 480 0
DWIDTH 9 0
BBX 9 18 0 -3
BITMAP
0000
0000
0000
0000
3F00
4000
4000
4000
2000
1000
0800
0800
0800
0800
0800
0000
0000
0000
ENDCHAR
STARTCHAR LATIN LETTER INVERTED GLOTTAL STOP
ENCODING 662
SWIDTH 480 0
DWIDTH 9 0
BBX 9 18 0 -3
BITMAP
0000
0000
0000
0000
0800
0800
0800
0800
0800
0400
0200
0100
0100
0100
7E00
0000
0000
0000
ENDCHAR
STARTCHAR LATIN LETTER STRETCHED C
ENCODING 663
SWIDTH 480 0
DWIDTH 9 0
BBX 9 18 0 -3
BITMAP
0000
0000
0000
0000
3F00
4000
4000
4000
4000
4000
4000
4000
4000
4000
4000
4000
4000
3F00
ENDCHAR
STARTCHAR LATIN LETTER BILABIAL CLICK
ENCODING 664
SWIDTH 480 0
DWIDTH 9 0
BBX 9 18 0 -3
BITMAP
0000
0000
0000
0000
3E00
4100
4100
4100
4900
5D00
4900
4100
4100
4100
3E00
0000
0000
0000
ENDCHAR
STARTCHAR LATIN LETTER SMALL CAPITAL B
ENCODING 665
SWIDTH 480 0
DWIDTH 9 0
BBX 9 18 0 -3
BITMAP
0000
0000
0000
0000
0000
0000
0000
0000
7E00
4100
4100
7E00
4100
4100
7E00
0000
0000
0000
ENDCHAR
STARTCHAR LATIN SMALL LETTER CLOSED OPEN E
ENCODING 666
SWIDTH 480 0
DWIDTH 9 0
BBX 9 18 0 -3
BITMAP
0000
0000
0000
0000
0000
0000
0000
0000
3E00
4100
4100
3900
4100
4100
3E00
0000
0000
0000
ENDCHAR
STARTCHAR LATIN LETTER SMALL CAPITAL G WITH HOOK
ENCODING 667
SWIDTH 480 0
DWIDTH 9 0
BBX 9 18 0 -3
BITMAP
0000
0000
0000
0000
0000
0000
0080
0100
3F00
4000
4000
4700
4100
4100
3F00
0000
0000
0000
ENDCHAR
STARTCHAR LATIN LETTER SMALL CAPITAL H
ENCODING 668
SWIDTH 480 0
DWIDTH 9 0
BBX 9 18 0 -3
BITMAP
0000
0000
0000
0000
0000
0000
0000
0000
4100
4100
4100
7F00
4100
4100
4100
0000
0000
0000
ENDCHAR
STARTCHAR LATIN SMALL LETTER J WITH CROSSED-TAIL
ENCODING 669
SWIDTH 480 0
DWIDTH 9 0
BBX 9 18 0 -3
BITMAP
0000
0000
0000
0000
0000
0800
0000
0000
1800
0800
0800
0800
0800
0800
3E00
0800
0800
1000
ENDCHAR
STARTCHAR LATIN SMALL LETTER TURNED K
ENCODING 670
SWIDTH 480 0
DWIDTH 9 0
BBX 9 18 0 -3
BITMAP
0000
0000
0000
0000
0000
0000
0000
0000
2200
1200
0A00
0600
0A00
1200
2200
0200
0200
0200
ENDCHAR
STARTCHAR LATIN LETTER SMALL CAPITAL L
ENCODING 671
SWIDTH 480 0
DWIDTH 9 0
BBX 9 18 0 -3
BITMAP
0000
0000
0000
0000
0000
0000
0000
0000
4000
4000
4000
4000
4000
4000
7F00
0000
0000
0000
ENDCHAR
STARTCHAR LATIN SMALL LETTER Q WITH HOOK
ENCODING 672
SWIDTH 480 0
DWIDTH 9 0
BBX 9 18 0 -3
BITMAP
0000
0000
0000
0000
0000
0000
0080
0100
3F00
4100
4100
4100
4100
4100
3F00
0100
0100
0100
ENDCHAR
STARTCHAR LATIN LETTER GLOTTAL STOP WITH STROKE
ENCODING 673
SWIDTH 480 0
DWIDTH 9 0
BBX 9 18 0 -3
BITMAP
0000
0000
0000
0000
7E00
0100
0100
0100
0200
0400
0800
0800
3E00
0800
0800
0000
0000
0000
ENDCHAR
STARTCHAR LATIN LETTER REVERSED GLOTTAL STOP WITH STROKE
ENCODING 674
SWIDTH 480 0
DWIDTH 9 0
BBX 9 18 0 -3
BITMAP
0000
0000
0000
0000
3F00
4000
4000
4000
2000
1000
0800
0800
3E00
0800
0800
0000
0000
0000
ENDCHAR
STARTCHAR LATIN SMALL LETTER DZ DIGRAPH
ENCODING 675
SWIDTH 480 0
DWIDTH 9 0
BBX 9 18 0 -3
BITMAP
0000
0000
0000
0800
0800
0800
0800
0800
7F80
8880
8900
8A00
8C00
8800
7F80
0000
0000
0000
ENDCHAR
STARTCHAR LATIN SMALL LETTER DEZH DIGRAPH
ENCODING 676
SWIDTH 480 0
DWIDTH 9 0
BBX 9 18 0 -3
BITMAP
0000
0000
0000
0800
0800
0800
0800
0800
7F80
8880
8900
8A00
8F00
8880
7880
0080
0080
0F00
ENDCHAR
STARTCHAR LATIN SMALL LETTER DZ DIGRAPH WITH CURL
ENCODING 677
SWIDTH 480 0
DWIDTH 9 0
BBX 9 18 0 -3
BITMAP
0000
0000
0000
0800
0800
0800
0800
0800
7F80
8880
8900
8A00
8D00
8A80
7F00
0200
0200
0000
ENDCHAR
STARTCHAR LATIN SMALL LETTER TS DIGRAPH
ENCODING 678
SWIDTH 480 0
DWIDTH 9 0
BBX 9 18 0 -3
BITMAP
0000
0000
0000
4000
4000
4000
4000
4000
F780
4800
4800
4700
4080
4080
3F00
0000
0000
0000
ENDCHAR
STARTCHAR LATIN SMALL LETTER TESH DIGRAPH
ENCODING 679
SWIDTH 480 0
DWIDTH 9 0
BBX 9 18 0 -3
BITMAP
0000
0000
0000
4380
4400
4400
4400
4400
F400
4400
4400
4400
4400
4400
3C00
0400
0400
3800
ENDCHAR
STARTCHAR LATIN SMALL LETTER TC DIGRAPH WITH CURL
ENCODING 680
SWIDTH 480 0
DWIDTH 9 0
BBX 9 18 0 -3
BITMAP
0000
0000
0000
4000
4000
4000
4000
4000
F780
4800
4800
4800
4900
4A80
3F00
0200
0200
0000
ENDCHAR
STARTCHAR LATIN SMALL LETTER FENG DIGRAPH
ENCODING 681
SWIDTH 480 0
DWIDTH 9 0
BBX 9 18 0 -3
BITMAP
0000
0000
0000
0000
0000
0000
3000
4000
7600
4900
4900
4900
4900
4900
4100
0600
0000
0000
ENDCHAR
STARTCHAR LATIN SMALL LETTER LS DIGRAPH
ENCODING 682
SWIDTH 480 0
DWIDTH 9 0
BBX 9 18 0 -3
BITMAP
0000
0000
0000
8000
8000
8000
8000
8000
8780
8800
8800
8700
8080
8080
7F00
0000
0000
0000
ENDCHAR
STARTCHAR LATIN SMALL LETTER LZ DIGRAPH
ENCODING 683
SWIDTH 480 0
DWIDTH 9 0
BBX 9 18 0 -3
BITMAP
0000
0000
0000
8000
8000
8000
8000
8000
8F80
8080
8100
8200
8400
8800
7F80
0000
0000
0000
ENDCHAR
STARTCHAR LATIN LETTER BILABIAL PERCUSSIVE
ENCODING 684
SWIDTH 480 0
DWIDTH 9 0
BBX 9 18 0 -3
BITMAP
0000
0000
0000
0000
0000
0000
0000
0000
4100
2A00
1400
0000
4100
2A00
1400
0000
0000
0000
ENDCHAR
STARTCHAR LATIN LETTER BIDENTAL PERCUSSIVE
ENCODING 685
SWIDTH 480 0
DWIDTH 9 0
BBX 9 18 0 -3
BITMAP
0000
0000
0000
0000
0000
0000
0000
0000
7F00
4100
4100
0000
7F00
4100
4100
0000
0000
0000
ENDCHAR
STARTCHAR LATIN SMALL LETTER TURNED H WITH FISHHOOK
ENCODING 686
SWIDTH 480 0
DWIDTH 9 0
BBX 9 18 0 -3
BITMAP
0000
0000
0000
0000
0000
0000
8000
4000
4100
4100
4100
4100
4100
4100
3F00
0100
0100
0100
ENDCHAR
STARTCHAR LATIN SMALL LETTER TURNED H WITH FISHHOOK AND TAIL
ENCODING 687
SWIDTH 480 0
DWIDTH 9 0
BBX 9 18 0 -3
BITMAP
0000
0000
0000
0000
0000
0000
8000
4000
4100
4100
4100
4100
4100
4100
3F00
0100
0100
0080
ENDCHAR
STARTCHAR MODIFIER LETTER SMALL H
ENCODING 688
SWIDTH 480 0
DWIDTH 9 0
BBX 9 18 0 -3
BITMAP
4000
4000
4000
4000
7E00
4100
4100
4100
4100
4100
4100
0000
0000
0000
0000
0000
0000
0000
ENDCHAR
STARTCHAR MODIFIER LETTER SMALL H WITH HOOK
ENCODING 689
SWIDTH 480 0
DWIDTH 9 0
BBX 9 18 0 -3
BITMAP
2000
4000
4000
4000
7E00
4100
4100
4100
4100
4100
4100
0000
0000
0000
0000
0000
0000
0000
ENDCHAR
STARTCHAR MODIFIER LETTER SMALL J
ENCODING 690
SWIDTH 480 0
DWIDTH 9 0
BBX 9 18 0 -3
BITMAP
0000
0800
0000
0000
1800
0800
0800
0800
0800
0800
0800
0800
0800
1000
0000
0000
0000
0000
ENDCHAR
STARTCHAR MODIFIER LETTER SMALL R
ENCODING 691
SWIDTH 480 0
DWIDTH 9 0
BBX 9 18 0 -3
BITMAP
0000
0000
0000
0000
5F00
6000
4000
4000
4000
4000
4000
0000
0000
0000
0000
0000
0000
0000
ENDCHAR
STARTCHAR MODIFIER LETTER SMALL TURNED R
ENCODING 692
SWIDTH 480 0
DWIDTH 9 0
BBX 9 18 0 -3
BITMAP
0000
0000
0000
0000
0100
0100
0100
0100
0100
0300
7D00
0000
0000
0000
0000
0000
0000
0000
ENDCHAR
STARTCHAR MODIFIER LETTER SMALL TURNED R WITH HOOK
ENCODING 693
SWIDTH 480 0
DWIDTH 9 0
BBX 9 18 0 -3
BITMAP
0000
0000
0000
0000
0100
0100
0100
0100
0100
0300
7D00
0080
0000
0000
0000
0000
0000
0000
ENDCHAR
STARTCHAR MODIFIER LETTER SMALL CAPITAL INVERTED R
ENCODING 694
SWIDTH 480 0
DWIDTH 9 0
BBX 9 18 0 -3
BITMAP
0000
0000
0000
0000
4100
4200
4400
7E00
4100
4100
7E00
0000
0000
0000
0000
0000
0000
0000
ENDCHAR
STARTCHAR MODIFIER LETTER SMALL W
ENCODING 695
SWIDTH 480 0
DWIDTH 9 0
BBX 9 18 0 -3
BITMAP
0000
0000
0000
0000
4100
4100
4100
4900
5500
6300
4100
0000
0000
0000
0000
0000
0000
0000
ENDCHAR
STARTCHAR MODIFIER LETTER SMALL Y
ENCODING 696
SWIDTH 480 0
DWIDTH 9 0
BBX 9 18 0 -3
BITMAP
0000
0000
0000
0000
4100
4100
4100
4100
4100
4100
3F00
0100
0100
1E00
0000
0000
0000
0000
ENDCHAR
STARTCHAR MODIFIER LETTER PRIME
ENCODING 697
SWIDTH 480 0
DWIDTH 9 0
BBX 9 18 0 -3
BITMAP
0000
0000
0000
0000
0400
0800
1000
0000
0000
0000
0000
0000
0000
0000
0000
0000
0000
0000
ENDCHAR
STARTCHAR MODIFIER LETTER DOUBLE PRIME
ENCODING 698
SWIDTH 480 0
DWIDTH 9 0
BBX 9 18 0 -3
BITMAP
0000
0000
0000
0000
1200
2400
4800
0000
0000
0000
0000
0000
0000
0000
0000
0000
0000
0000
ENDCHAR
STARTCHAR MODIFIER LETTER TURNED COMMA
ENCODING 699
SWIDTH 480 0
DWIDTH 9 0
BBX 9 18 0 -3
BITMAP
0000
0000
0000
0000
0400
0800
0800
0000
0000
0000
0000
0000
0000
0000
0000
0000
0000
0000
ENDCHAR
STARTCHAR MODIFIER LETTER APOSTROPHE
ENCODING 700
SWIDTH 480 0
DWIDTH 9 0
BBX 9 18 0 -3
BITMAP
0000
0000
0000
0000
0800
0800
1000
0000
0000
0000
0000
0000
0000
0000
0000
0000
0000
0000
ENDCHAR
STARTCHAR MODIFIER LETTER REVERSED COMMA
ENCODING 701
SWIDTH 480 0
DWIDTH 9 0
BBX 9 18 0 -3
BITMAP
0000
0000
0000
0000
0800
0800
0400
0000
0000
0000
0000
0000
0000
0000
0000
0000
0000
0000
ENDCHAR
STARTCHAR MODIFIER LETTER RIGHT HALF RING
ENCODING 702
SWIDTH 480 0
DWIDTH 9 0
BBX 9 18 0 -3
BITMAP
0000
0000
0000
0000
0800
0400
0800
0000
0000
0000
0000
0000
0000
0000
0000
0000
0000
0000
ENDCHAR
STARTCHAR MODIFIER LETTER LEFT HALF RING
ENCODING 703
SWIDTH 480 0
DWIDTH 9 0
BBX 9 18 0 -3
BITMAP
0000
0000
0000
0000
0800
1000
0800
0000
0000
0000
0000
0000
0000
0000
0000
0000
0000
0000
ENDCHAR
STARTCHAR MODIFIER LETTER GLOTTAL STOP
ENCODING 704
SWIDTH 480 0
DWIDTH 9 0
BBX 9 18 0 -3
BITMAP
7E00
0100
0100
0100
0200
0400
0800
0800
0800
0800
0800
0000
0000
0000
0000
0000
0000
0000
ENDCHAR
STARTCHAR MODIFIER LETTER REVERSED GLOTTAL STOP
ENCODING 705
SWIDTH 480 0
DWIDTH 9 0
BBX 9 18 0 -3
BITMAP
3F00
4000
4000
4000
2000
1000
0800
0800
0800
0800
0800
0000
0000
0000
0000
0000
0000
0000
ENDCHAR
STARTCHAR MODIFIER LETTER LEFT ARROWHEAD
ENCODING 706
SWIDTH 480 0
DWIDTH 9 0
BBX 9 18 0 -3
BITMAP
0000
0000
0000
0000
0000
0000
0300
0C00
7000
0C00
0300
0000
0000
0000
0000
0000
0000
0000
ENDCHAR
STARTCHAR MODIFIER LETTER RIGHT ARROWHEAD
ENCODING 707
SWIDTH 480 0
DWIDTH 9 0
BBX 9 18 0 -3
BITMAP
0000
0000
0000
0000
0000
0000
6000
1800
0700
1800
6000
0000
0000
0000
0000
0000
0000
0000
ENDCHAR
STARTCHAR MODIFIER LETTER UP ARROWHEAD
ENCODING 708
SWIDTH 480 0
DWIDTH 9 0
BBX 9 18 0 -3
BITMAP
0000
0000
0000
0000
0800
0800
0800
1400
1400
2200
2200
0000
0000
0000
0000
0000
0000
0000
ENDCHAR
STARTCHAR MODIFIER LETTER DOWN ARROWHEAD
ENCODING 709
SWIDTH 480 0
DWIDTH 9 0
BBX 9 18 0 -3
BITMAP
0000
0000
0000
0000
2200
2200
1400
1400
0800
0800
0800
0000
0000
0000
0000
0000
0000
0000
ENDCHAR
STARTCHAR MODIFIER LETTER CIRCUMFLEX ACCENT
ENCODING 710
SWIDTH 480 0
DWIDTH 9 0
BBX 9 18 0 -3
BITMAP
0800
1400
2200
0000
0000
0000
0000
0000
0000
0000
0000
0000
0000
0000
0000
0000
0000
0000
ENDCHAR
STARTCHAR CARON
ENCODING 711
SWIDTH 480 0
DWIDTH 9 0
BBX 9 18 0 -3
BITMAP
2200
1400
0800
0000
0000
0000
0000
0000
0000
0000
0000
0000
0000
0000
0000
0000
0000
0000
ENDCHAR
STARTCHAR MODIFIER LETTER VERTICAL LINE
ENCODING 712
SWIDTH 480 0
DWIDTH 9 0
BBX 9 18 0 -3
BITMAP
0000
0000
0000
0000
0800
0800
0800
0000
0000
0000
0000
0000
0000
0000
0000
0000
0000
0000
ENDCHAR
STARTCHAR MODIFIER LETTER MACRON
ENCODING 713
SWIDTH 480 0
DWIDTH 9 0
BBX 9 18 0 -3
BITMAP
0000
3E00
0000
0000
0000
0000
0000
0000
0000
0000
0000
0000
0000
0000
0000
0000
0000
0000
ENDCHAR
STARTCHAR MODIFIER LETTER ACUTE ACCENT
ENCODING 714
SWIDTH 480 0
DWIDTH 9 0
BBX 9 18 0 -3
BITMAP
0200
0400
0800
0000
0000
0000
0000
0000
0000
0000
0000
0000
0000
0000
0000
0000
0000
0000
ENDCHAR
STARTCHAR MODIFIER LETTER GRAVE ACCENT
ENCODING 715
SWIDTH 480 0
DWIDTH 9 0
BBX 9 18 0 -3
BITMAP
2000
1000
0800
0000
0000
0000
0000
0000
0000
0000
0000
0000
0000
0000
0000
0000
0000
0000
ENDCHAR
STARTCHAR MODIFIER LETTER LOW VERTICAL LINE
ENCODING 716
SWIDTH 480 0
DWIDTH 9 0
BBX 9 18 0 -3
BITMAP
0000
0000
0000
0000
0000
0000
0000
0000
0000
0000
0000
0000
0000
0000
0000
0800
0800
0800
ENDCHAR
STARTCHAR MODIFIER LETTER LOW MACRON
ENCODING 717
SWIDTH 480 0
DWIDTH 9 0
BBX 9 18 0 -3
BITMAP
0000
0000
0000
0000
0000
0000
0000
0000
0000
0000
0000
0000
0000
0000
0000
0000
0000
3F00
ENDCHAR
STARTCHAR MODIFIER LETTER LOW GRAVE ACCENT
ENCODING 718
SWIDTH 480 0
DWIDTH 9 0
BBX 9 18 0 -3
BITMAP
0000
0000
0000
0000
0000
0000
0000
0000
0000
0000
0000
0000
0000
0000
0000
0800
0400
0200
ENDCHAR
STARTCHAR MODIFIER LETTER LOW ACUTE ACCENT
ENCODING 719
SWIDTH 480 0
DWIDTH 9 0
BBX 9 18 0 -3
BITMAP
0000
0000
0000
0000
0000
0000
0000
0000
0000
0000
0000
0000
0000
0000
0000
0800
1000
2000
ENDCHAR
STARTCHAR MODIFIER LETTER TRIANGULAR COLON
ENCODING 720
SWIDTH 480 0
DWIDTH 9 0
BBX 9 18 0 -3
BITMAP
0000
0000
0000
0000
0000
0000
0000
0000
1C00
0800
0000
0000
0000
0800
1C00
0000
0000
0000
ENDCHAR
STARTCHAR MODIFIER LETTER HALF TRIANGULAR COLON
ENCODING 721
SWIDTH 480 0
DWIDTH 9 0
BBX 9 18 0 -3
BITMAP
0000
0000
0000
0000
0000
0000
0000
0000
1C00
0800
0000
0000
0000
0000
0000
0000
0000
0000
ENDCHAR
STARTCHAR MODIFIER LETTER CENTRED RIGHT HALF RING
ENCODING 722
SWIDTH 480 0
DWIDTH 9 0
BBX 9 18 0 -3
BITMAP
0000
0000
0000
0000
0000
0000
0000
0000
0000
0000
0000
0800
0400
0800
0000
0000
0000
0000
ENDCHAR
STARTCHAR MODIFIER LETTER CENTRED LEFT HALF RING
ENCODING 723
SWIDTH 480 0
DWIDTH 9 0
BBX 9 18 0 -3
BITMAP
0000
0000
0000
0000
0000
0000
0000
0000
0000
0000
0000
0800
1000
0800
0000
0000
0000
0000
ENDCHAR
STARTCHAR MODIFIER LETTER UP TACK
ENCODING 724
SWIDTH 480 0
DWIDTH 9 0
BBX 9 18 0 -3
BITMAP
0000
0000
0000
0000
0000
0000
0000
0000
0800
0800
0800
7F00
0000
0000
0000
0000
0000
0000
ENDCHAR
STARTCHAR MODIFIER LETTER DOWN TACK
ENCODING 725
SWIDTH 480 0
DWIDTH 9 0
BBX 9 18 0 -3
BITMAP
0000
0000
0000
0000
0000
0000
0000
0000
0000
0000
0000
7F00
0800
0800
0800
0000
0000
0000
ENDCHAR
STARTCHAR MODIFIER LETTER PLUS SIGN
ENCODING 726
SWIDTH 480 0
DWIDTH 9 0
BBX 9 18 0 -3
BITMAP
0000
0000
0000
0000
0000
0000
0000
0000
0800
0800
0800
7F00
0800
0800
0800
0000
0000
0000
ENDCHAR
STARTCHAR MODIFIER LETTER MINUS SIGN
ENCODING 727
SWIDTH 480 0
DWIDTH 9 0
BBX 9 18 0 -3
BITMAP
0000
0000
0000
0000
0000
0000
0000
0000
0000
0000
0000
7F00
0000
0000
0000
0000
0000
0000
ENDCHAR
STARTCHAR BREVE
ENCODING 728
SWIDTH 480 0
DWIDTH 9 0
BBX 9 18 0 -3
BITMAP
2200
2200
1C00
0000
0000
0000
0000
0000
0000
0000
0000
0000
0000
0000
0000
0000
0000
0000
ENDCHAR
STARTCHAR DOT ABOVE
ENCODING 729
SWIDTH 480 0
DWIDTH 9 0
BBX 9 18 0 -3
BITMAP
0000
0800
0000
0000
0000
0000
0000
0000
0000
0000
0000
0000
0000
0000
0000
0000
0000
0000
ENDCHAR
STARTCHAR RING ABOVE
ENCODING 730
SWIDTH 480 0
DWIDTH 9 0
BBX 9 18 0 -3
BITMAP
0800
1400
0800
0000
0000
0000
0000
0000
0000
0000
0000
0000
0000
0000
0000
0000
0000
0000
ENDCHAR
STARTCHAR OGONEK
ENCODING 731
SWIDTH 480 0
DWIDTH 9 0
BBX 9 18 0 -3
BITMAP
0000
0000
0000
0000
0000
0000
0000
0000
0000
0000
0000
0000
0000
0000
0000
0800
0800
0400
ENDCHAR
STARTCHAR SMALL TILDE
ENCODING 732
SWIDTH 480 0
DWIDTH 9 0
BBX 9 18 0 -3
BITMAP
0000
0000
0000
0000
0000
0A00
1400
0000
0000
0000
0000
0000
0000
0000
0000
0000
0000
0000
ENDCHAR
STARTCHAR DOUBLE ACUTE ACCENT
ENCODING 733
SWIDTH 480 0
DWIDTH 9 0
BBX 9 18 0 -3
BITMAP
0900
1200
2400
0000
0000
0000
0000
0000
0000
0000
0000
0000
0000
0000
0000
0000
0000
0000
ENDCHAR
STARTCHAR MODIFIER LETTER RHOTIC HOOK
ENCODING 734
SWIDTH 480 0
DWIDTH 9 0
BBX 9 18 0 -3
BITMAP
0000
0000
0000
0000
0000
0000
0000
0000
0000
0000
4000
A000
2400
1800
0000
0000
0000
0000
ENDCHAR
STARTCHAR MODIFIER LETTER CROSS ACCENT
ENCODING 735
SWIDTH 480 0
DWIDTH 9 0
BBX 9 18 0 -3
BITMAP
2200
1400
0800
1400
2200
0000
0000
0000
0000
0000
0000
0000
0000
0000
0000
0000
0000
0000
ENDCHAR
STARTCHAR MODIFIER LETTER SMALL GAMMA
ENCODING 736
SWIDTH 480 0
DWIDTH 9 0
BBX 9 18 0 -3
BITMAP
0000
4100
4100
2200
2200
1400
1400
0800
1400
1400
0800
0000
0000
0000
0000
0000
0000
0000
ENDCHAR
STARTCHAR MODIFIER LETTER SMALL L
ENCODING 737
SWIDTH 480 0
DWIDTH 9 0
BBX 9 18 0 -3
BITMAP
1000
1000
1000
1000
1000
1000
1000
1000
1000
1000
0E00
0000
0000
0000
0000
0000
0000
0000
ENDCHAR
STARTCHAR MODIFIER LETTER SMALL S
ENCODING 738
SWIDTH 480 0
DWIDTH 9 0
BBX 9 18 0 -3
BITMAP
0000
0000
0000
0000
3F00
4000
4000
3E00
0100
0100
7E00
0000
0000
0000
0000
0000
0000
0000
ENDCHAR
STARTCHAR MODIFIER LETTER SMALL X
ENCODING 739
SWIDTH 480 0
DWIDTH 9 0
BBX 9 18 0 -3
BITMAP
0000
0000
0000
0000
4100
2200
1400
0800
1400
2200
4100
0000
0000
0000
0000
0000
0000
0000
ENDCHAR
STARTCHAR MODIFIER LETTER SMALL REVERSED GLOTTAL STOP
ENCODING 740
SWIDTH 480 0
DWIDTH 9 0
BBX 9 18 0 -3
BITMAP
0000
0000
0000
0000
3F00
4000
4000
2000
1000
0800
0800
0000
0000
0000
0000
0000
0000
0000
ENDCHAR
STARTCHAR MODIFIER LETTER EXTRA-HIGH TONE BAR
ENCODING 741
SWIDTH 480 0
DWIDTH 9 0
BBX 9 18 0 -3
BITMAP
0000
0000
0000
0000
0000
0000
0000
0000
7F00
0100
0100
0100
0100
0100
0100
0000
0000
0000
ENDCHAR
STARTCHAR MODIFIER LETTER HIGH TONE BAR
ENCODING 742
SWIDTH 480 0
DWIDTH 9 0
BBX 9 18 0 -3
BITMAP
0000
0000
0000
0000
0000
0000
0000
0000
0100
7F00
0100
0100
0100
0100
0100
0000
0000
0000
ENDCHAR
STARTCHAR MODIFIER LETTER MID TONE BAR
ENCODING 743
SWIDTH 480 0
DWIDTH 9 0
BBX 9 18 0 -3
BITMAP
0000
0000
0000
0000
0000
0000
0000
0000
0100
0100
0100
7F00
0100
0100
0100
0000
0000
0000
ENDCHAR
STARTCHAR MODIFIER LETTER LOW TONE BAR
ENCODING 744
SWIDTH 480 0
DWIDTH 9 0
BBX 9 18 0 -3
BITMAP
0000
0000
0000
0000
0000
0000
0000
0000
0100
0100
0100
0100
0100
7F00
0100
0000
0000
0000
ENDCHAR
STARTCHAR MODIFIER LETTER EXTRA-LOW TONE BAR
ENCODING 745
SWIDTH 480 0
DWIDTH 9 0
BBX 9 18 0 -3
BITMAP
0000
0000
0000
0000
0000
0000
0000
0000
0100
0100
0100
0100
0100
0100
7F00
0000
0000
0000
ENDCHAR
STARTCHAR MODIFIER LETTER YIN DEPARTING TONE MARK
ENCODING 746
SWIDTH 480 0
DWIDTH 9 0
BBX 9 18 0 -3
BITMAP
0000
0000
0000
0000
0000
0000
0000
0000
4000
4000
4000
4000
4000
4000
7F00
0000
0000
0000
ENDCHAR
STARTCHAR MODIFIER LETTER YANG DEPARTING TONE MARK
ENCODING 747
SWIDTH 480 0
DWIDTH 9 0
BBX 9 18 0 -3
BITMAP
0000
0000
0000
0000
0000
0000
0000
0000
4000
4000
4000
7F00
4000
4000
4000
0000
0000
0000
ENDCHAR
STARTCHAR MODIFIER LETTER VOICING
ENCODING 748
SWIDTH 480 0
DWIDTH 9 0
BBX 9 18 0 -3
BITMAP
0000
0000
0000
0000
0000
0000
0000
0000
0000
0000
0000
0000
0000
0000
0000
1400
0800
0000
ENDCHAR
STARTCHAR MODIFIER LETTER UNASPIRATED
ENCODING 749
SWIDTH 480 0
DWIDTH 9 0
BBX 9 18 0 -3
BITMAP
7F00
0000
7F00
0000
0000
0000
0000
0000
0000
0000
0000
0000
0000
0000
0000
0000
0000
0000
ENDCHAR
STARTCHAR MODIFIER LETTER DOUBLE APOSTROPHE
ENCODING 750
SWIDTH 480 0
DWIDTH 9 0
BBX 9 18 0 -3
BITMAP
0000
0000
0000
0000
1400
1400
2800
0000
0000
0000
0000
0000
0000
0000
0000
0000
0000
0000
ENDCHAR
STARTCHAR GREEK YPOGEGRAMMENI
ENCODING 890
SWIDTH 480 0
DWIDTH 9 0
BBX 9 18 0 -3
BITMAP
0000
0000
0000
0000
0000
0000
0000
0000
0000
0000
0000
0000
0000
0000
0000
0800
0800
0800
ENDCHAR
STARTCHAR GREEK QUESTION MARK
ENCODING 894
SWIDTH 480 0
DWIDTH 9 0
BBX 9 18 0 -3
BITMAP
0000
0000
0000
0000
0000
0000
0000
0000
0800
0000
0000
0000
0000
0000
0800
0800
1000
0000
ENDCHAR
STARTCHAR GREEK TONOS
ENCODING 900
SWIDTH 480 0
DWIDTH 9 0
BBX 9 18 0 -3
BITMAP
0200
0400
0800
0000
0000
0000
0000
0000
0000
0000
0000
0000
0000
0000
0000
0000
0000
0000
ENDCHAR
STARTCHAR GREEK DIALYTIKA TONOS
ENCODING 901
SWIDTH 480 0
DWIDTH 9 0
BBX 9 18 0 -3
BITMAP
0200
0400
4900
0000
0000
0000
0000
0000
0000
0000
0000
0000
0000
0000
0000
0000
0000
0000
ENDCHAR
STARTCHAR GREEK CAPITAL LETTER ALPHA WITH TONOS
ENCODING 902
SWIDTH 480 0
DWIDTH 9 0
BBX 9 18 0 -3
BITMAP
0000
0000
2000
4000
BE00
4100
4100
4100
4100
4100
7F00
4100
4100
4100
4100
0000
0000
0000
ENDCHAR
STARTCHAR GREEK CAPITAL LETTER EPSILON WITH TONOS
ENCODING 904
SWIDTH 480 0
DWIDTH 9 0
BBX 9 18 0 -3
BITMAP
0000
0000
2000
4000
BF00
4000
4000
4000
4000
7C00
4000
4000
4000
4000
7F00
0000
0000
0000
ENDCHAR
STARTCHAR GREEK CAPITAL LETTER ETA WITH TONOS
ENCODING 905
SWIDTH 480 0
DWIDTH 9 0
BBX 9 18 0 -3
BITMAP
0000
0000
2000
4000
8100
4100
4100
4100
4100
7F00
4100
4100
4100
4100
4100
0000
0000
0000
ENDCHAR
STARTCHAR GREEK CAPITAL LETTER IOTA WITH TONOS
ENCODING 906
SWIDTH 480 0
DWIDTH 9 0
BBX 9 18 0 -3
BITMAP
0000
0000
1000
2000
5C00
0800
0800
0800
0800
0800
0800
0800
0800
0800
1C00
0000
0000
0000
ENDCHAR
STARTCHAR GREEK CAPITAL LETTER OMICRON WITH TONOS
ENCODING 908
SWIDTH 480 0
DWIDTH 9 0
BBX 9 18 0 -3
BITMAP
0000
0000
2000
4000
BE00
4100
4100
4100
4100
4100
4100
4100
4100
4100
3E00
0000
0000
0000
ENDCHAR
STARTCHAR GREEK CAPITAL LETTER UPSILON WITH TONOS
ENCODING 910
SWIDTH 480 0
DWIDTH 9 0
BBX 9 18 0 -3
BITMAP
0000
0000
2000
4000
8100
4100
4100
2200
1400
0800
0800
0800
0800
0800
0800
0000
0000
0000
ENDCHAR
STARTCHAR GREEK CAPITAL LETTER OMEGA WITH TONOS
ENCODING 911
SWIDTH 480 0
DWIDTH 9 0
BBX 9 18 0 -3
BITMAP
0000
0000
2000
4000
BE00
4100
4100
4100
4100
4100
4100
4100
2200
1400
7700
0000
0000
0000
ENDCHAR
STARTCHAR GREEK SMALL LETTER IOTA WITH DIALYTIKA AND TONOS
ENCODING 912
SWIDTH 480 0
DWIDTH 9 0
BBX 9 18 0 -3
BITMAP
0200
0400
0800
0000
0000
1400
0000
0000
0800
0800
0800
0800
0800
0800
0400
0000
0000
0000
ENDCHAR
STARTCHAR GREEK CAPITAL LETTER ALPHA
ENCODING 913
SWIDTH 480 0
DWIDTH 9 0
BBX 9 18 0 -3
BITMAP
0000
0000
0000
0000
3E00
4100
4100
4100
4100
4100
7F00
4100
4100
4100
4100
0000
0000
0000
ENDCHAR
STARTCHAR GREEK CAPITAL LETTER BETA
ENCODING 914
SWIDTH 480 0
DWIDTH 9 0
BBX 9 18 0 -3
BITMAP
0000
0000
0000
0000
7E00
4100
4100
4100
4100
7E00
4100
4100
4100
4100
7E00
0000
0000
0000
ENDCHAR
STARTCHAR GREEK CAPITAL LETTER GAMMA
ENCODING 915
SWIDTH 480 0
DWIDTH 9 0
BBX 9 18 0 -3
BITMAP
0000
0000
0000
0000
7F00
4000
4000
4000
4000
4000
4000
4000
4000
4000
4000
0000
0000
0000
ENDCHAR
STARTCHAR GREEK CAPITAL LETTER DELTA
ENCODING 916
SWIDTH 480 0
DWIDTH 9 0
BBX 9 18 0 -3
BITMAP
0000
0000
0000
0000
0800
0800
1400
1400
2200
2200
2200
4100
4100
4100
7F00
0000
0000
0000
ENDCHAR
STARTCHAR GREEK CAPITAL LETTER EPSILON
ENCODING 917
SWIDTH 480 0
DWIDTH 9 0
BBX 9 18 0 -3
BITMAP
0000
0000
0000
0000
7F00
4000
4000
4000
4000
7800
4000
4000
4000
4000
7F00
0000
0000
0000
ENDCHAR
STARTCHAR GREEK CAPITAL LETTER ZETA
ENCODING 918
SWIDTH 480 0
DWIDTH 9 0
BBX 9 18 0 -3
BITMAP
0000
0000
0000
0000
7F00
0100
0100
0200
0400
0800
1000
2000
4000
4000
7F00
0000
0000
0000
ENDCHAR
STARTCHAR GREEK CAPITAL LETTER ETA
ENCODING 919
SWIDTH 480 0
DWIDTH 9 0
BBX 9 18 0 -3
BITMAP
0000
0000
0000
0000
4100
4100
4100
4100
4100
7F00
4100
4100
4100
4100
4100
0000
0000
0000
ENDCHAR
STARTCHAR GREEK CAPITAL LETTER THETA
ENCODING 920
SWIDTH 480 0
DWIDTH 9 0
BBX 9 18 0 -3
BITMAP
0000
0000
0000
0000
3E00
4100
4100
4100
4100
7F00
4100
4100
4100
4100
3E00
0000
0000
0000
ENDCHAR
STARTCHAR GREEK CAPITAL LETTER IOTA
ENCODING 921
SWIDTH 480 0
DWIDTH 9 0
BBX 9 18 0 -3
BITMAP
0000
0000
0000
0000
1C00
0800
0800
0800
0800
0800
0800
0800
0800
0800
1C00
0000
0000
0000
ENDCHAR
STARTCHAR GREEK CAPITAL LETTER KAPPA
ENCODING 922
SWIDTH 480 0
DWIDTH 9 0
BBX 9 18 0 -3
BITMAP
0000
0000
0000
0000
4100
4200
4400
4800
5000
6000
5000
4800
4400
4200
4100
0000
0000
0000
ENDCHAR
STARTCHAR GREEK CAPITAL LETTER LAMDA
ENCODING 923
SWIDTH 480 0
DWIDTH 9 0
BBX 9 18 0 -3
BITMAP
0000
0000
0000
0000
0800
0800
1400
1400
2200
2200
2200
4100
4100
4100
4100
0000
0000
0000
ENDCHAR
STARTCHAR GREEK CAPITAL LETTER MU
ENCODING 924
SWIDTH 480 0
DWIDTH 9 0
BBX 9 18 0 -3
BITMAP
0000
0000
0000
0000
4100
6300
5500
4900
4100
4100
4100
4100
4100
4100
4100
0000
0000
0000
ENDCHAR
STARTCHAR GREEK CAPITAL LETTER NU
ENCODING 925
SWIDTH 480 0
DWIDTH 9 0
BBX 9 18 0 -3
BITMAP
0000
0000
0000
0000
4100
4100
4100
6100
5100
4900
4500
4300
4100
4100
4100
0000
0000
0000
ENDCHAR
STARTCHAR GREEK CAPITAL LETTER XI
ENCODING 926
SWIDTH 480 0
DWIDTH 9 0
BBX 9 18 0 -3
BITMAP
0000
0000
0000
0000
7F00
0000
0000
0000
0000
3E00
0000
0000
0000
0000
7F00
0000
0000
0000
ENDCHAR
STARTCHAR GREEK CAPITAL LETTER OMICRON
ENCODING 927
SWIDTH 480 0
DWIDTH 9 0
BBX 9 18 0 -3
BITMAP
0000
0000
0000
0000
3E00
4100
4100
4100
4100
4100
4100
4100
4100
4100
3E00
0000
0000
0000
ENDCHAR
STARTCHAR GREEK CAPITAL LETTER PI
ENCODING 928
SWIDTH 480 0
DWIDTH 9 0
BBX 9 18 0 -3
BITMAP
0000
0000
0000
0000
7F00
4100
4100
4100
4100
4100
4100
4100
4100
4100
4100
0000
0000
0000
ENDCHAR
STARTCHAR GREEK CAPITAL LETTER RHO
ENCODING 929
SWIDTH 480 0
DWIDTH 9 0
BBX 9 18 0 -3
BITMAP
0000
0000
0000
0000
7E00
4100
4100
4100
4100
4100
7E00
4000
4000
4000
4000
0000
0000
0000
ENDCHAR
STARTCHAR GREEK CAPITAL LETTER SIGMA
ENCODING 931
SWIDTH 480 0
DWIDTH 9 0
BBX 9 18 0 -3
BITMAP
0000
0000
0000
0000
7F00
4000
2000
1000
0800
0400
0800
1000
2000
4000
7F00
0000
0000
0000
ENDCHAR
STARTCHAR GREEK CAPITAL LETTER TAU
ENCODING 932
SWIDTH 480 0
DWIDTH 9 0
BBX 9 18 0 -3
BITMAP
0000
0000
0000
0000
7F00
0800
0800
0800
0800
0800
0800
0800
0800
0800
0800
0000
0000
0000
ENDCHAR
STARTCHAR GREEK CAPITAL LETTER UPSILON
ENCODING 933
SWIDTH 480 0
DWIDTH 9 0
BBX 9 18 0 -3
BITMAP
0000
0000
0000
0000
4100
4100
4100
2200
1400
0800
0800
0800
0800
0800
0800
0000
0000
0000
ENDCHAR
STARTCHAR GREEK CAPITAL LETTER PHI
ENCODING 934
SWIDTH 480 0
DWIDTH 9 0
BBX 9 18 0 -3
BITMAP
0000
0000
0000
0000
0800
3E00
4900
4900
4900
4900
4900
4900
4900
3E00
0800
0000
0000
0000
ENDCHAR
STARTCHAR GREEK CAPITAL LETTER CHI
ENCODING 935
SWIDTH 480 0
DWIDTH 9 0
BBX 9 18 0 -3
BITMAP
0000
0000
0000
0000
4100
4100
4100
2200
1400
0800
1400
2200
4100
4100
4100
0000
0000
0000
ENDCHAR
STARTCHAR GREEK CAPITAL LETTER PSI
ENCODING 936
SWIDTH 480 0
DWIDTH 9 0
BBX 9 18 0 -3
BITMAP
0000
0000
0000
0000
4900
4900
4900
4900
4900
3E00
0800
0800
0800
0800
0800
0000
0000
0000
ENDCHAR
STARTCHAR GREEK CAPITAL LETTER OMEGA
ENCODING 937
SWIDTH 480 0
DWIDTH 9 0
BBX 9 18 0 -3
BITMAP
0000
0000
0000
0000
3E00
4100
4100
4100
4100
4100
4100
4100
2200
1400
7700
0000
0000
0000
ENDCHAR
STARTCHAR GREEK CAPITAL LETTER IOTA WITH DIALYTIKA
ENCODING 938
SWIDTH 480 0
DWIDTH 9 0
BBX 9 18 0 -3
BITMAP
0000
2200
0000
0000
1C00
0800
0800
0800
0800
0800
0800
0800
0800
0800
1C00
0000
0000
0000
ENDCHAR
STARTCHAR GREEK CAPITAL LETTER UPSILON WITH DIALYTIKA
ENCODING 939
SWIDTH 480 0
DWIDTH 9 0
BBX 9 18 0 -3
BITMAP
0000
2200
0000
0000
4100
4100
4100
2200
1400
0800
0800
0800
0800
0800
0800
0000
0000
0000
ENDCHAR
STARTCHAR GREEK SMALL LETTER ALPHA WITH TONOS
ENCODING 940
SWIDTH 480 0
DWIDTH 9 0
BBX 9 18 0 -3
BITMAP
0000
0000
0000
0200
0400
0800
0000
0000
3D00
4200
4200
4200
4200
4200
3D00
0000
0000
0000
ENDCHAR
STARTCHAR GREEK SMALL LETTER EPSILON WITH TONOS
ENCODING 941
SWIDTH 480 0
DWIDTH 9 0
BBX 9 18 0 -3
BITMAP
0000
0000
0000
0200
0400
0800
0000
0000
3F00
4000
4000
3800
4000
4000
3F00
0000
0000
0000
ENDCHAR
STARTCHAR GREEK SMALL LETTER ETA WITH TONOS
ENCODING 942
SWIDTH 480 0
DWIDTH 9 0
BBX 9 18 0 -3
BITMAP
0000
0000
0000
0200
0400
0800
0000
0000
7E00
4100
4100
4100
4100
4100
4100
0100
0100
0100
ENDCHAR
STARTCHAR GREEK SMALL LETTER IOTA WITH TONOS
ENCODING 943
SWIDTH 480 0
DWIDTH 9 0
BBX 9 18 0 -3
BITMAP
0000
0000
0000
0200
0400
0800
0000
0000
0800
0800
0800
0800
0800
0800
0400
0000
0000
0000
ENDCHAR
STARTCHAR GREEK SMALL LETTER UPSILON WITH DIALYTIKA AND TONOS
ENCODING 944
SWIDTH 480 0
DWIDTH 9 0
BBX 9 18 0 -3
BITMAP
0200
0400
0800
0000
0000
2200
0000
0000
4100
4100
4100
4100
4100
4100
3E00
0000
0000
0000
ENDCHAR
STARTCHAR GREEK SMALL LETTER ALPHA
ENCODING 945
SWIDTH 480 0
DWIDTH 9 0
BBX 9 18 0 -3
BITMAP
0000
0000
0000
0000
0000
0000
0000
0000
3D00
4200
4200
4200
4200
4200
3D00
0000
0000
0000
ENDCHAR
STARTCHAR GREEK SMALL LETTER BETA
ENCODING 946
SWIDTH 480 0
DWIDTH 9 0
BBX 9 18 0 -3
BITMAP
0000
0000
0000
3C00
4200
4200
4200
4200
4C00
4200
4100
4100
4100
4100
5E00
4000
4000
4000
ENDCHAR
STARTCHAR GREEK SMALL LETTER GAMMA
ENCODING 947
SWIDTH 480 0
DWIDTH 9 0
BBX 9 18 0 -3
BITMAP
0000
0000
0000
0000
0000
0000
0000
0000
4100
4100
2200
2200
1400
1400
0800
0800
0800
0800
ENDCHAR
STARTCHAR GREEK SMALL LETTER DELTA
ENCODING 948
SWIDTH 480 0
DWIDTH 9 0
BBX 9 18 0 -3
BITMAP
0000
0000
0000
3E00
4000
4000
2000
1000
3E00
4100
4100
4100
4100
4100
3E00
0000
0000
0000
ENDCHAR
STARTCHAR GREEK SMALL LETTER EPSILON
ENCODING 949
SWIDTH 480 0
DWIDTH 9 0
BBX 9 18 0 -3
BITMAP
0000
0000
0000
0000
0000
0000
0000
0000
3F00
4000
4000
3800
4000
4000
3F00
0000
0000
0000
ENDCHAR
STARTCHAR GREEK SMALL LETTER ZETA
ENCODING 950
SWIDTH 480 0
DWIDTH 9 0
BBX 9 18 0 -3
BITMAP
0000
0000
0000
7F00
0100
0100
0200
0400
0800
1000
2000
4000
4000
4000
3E00
0100
0100
0000
ENDCHAR
STARTCHAR GREEK SMALL LETTER ETA
ENCODING 951
SWIDTH 480 0
DWIDTH 9 0
BBX 9 18 0 -3
BITMAP
0000
0000
0000
0000
0000
0000
0000
0000
7E00
4100
4100
4100
4100
4100
4100
0100
0100
0100
ENDCHAR
STARTCHAR GREEK SMALL LETTER THETA
ENCODING 952
SWIDTH 480 0
DWIDTH 9 0
BBX 9 18 0 -3
BITMAP
0000
0000
0000
3E00
4100
4100
4100
4100
7F00
4100
4100
4100
4100
4100
3E00
0000
0000
0000
ENDCHAR
STARTCHAR GREEK SMALL LETTER IOTA
ENCODING 953
SWIDTH 480 0
DWIDTH 9 0
BBX 9 18 0 -3
BITMAP
0000
0000
0000
0000
0000
0000
0000
0000
0800
0800
0800
0800
0800
0800
0400
0000
0000
0000
ENDCHAR
STARTCHAR GREEK SMALL LETTER KAPPA
ENCODING 954
SWIDTH 480 0
DWIDTH 9 0
BBX 9 18 0 -3
BITMAP
0000
0000
0000
0000
0000
0000
0000
0000
2200
2400
2800
3000
2800
2400
2200
0000
0000
0000
ENDCHAR
STARTCHAR GREEK SMALL LETTER LAMDA
ENCODING 955
SWIDTH 480 0
DWIDTH 9 0
BBX 9 18 0 -3
BITMAP
0000
0000
0000
3000
0800
0800
0800
0800
0800
1400
1400
2200
2200
4100
4100
0000
0000
0000
ENDCHAR
STARTCHAR GREEK SMALL LETTER MU
ENCODING 956
SWIDTH 480 0
DWIDTH 9 0
BBX 9 18 0 -3
BITMAP
0000
0000
0000
0000
0000
0000
0000
0000
4100
4100
4100
4100
4100
4100
7E00
4000
4000
4000
ENDCHAR
STARTCHAR GREEK SMALL LETTER NU
ENCODING 957
SWIDTH 480 0
DWIDTH 9 0
BBX 9 18 0 -3
BITMAP
0000
0000
0000
0000
0000
0000
0000
0000
4200
4100
2100
2100
1200
1400
0800
0000
0000
0000
ENDCHAR
STARTCHAR GREEK SMALL LETTER XI
ENCODING 958
SWIDTH 480 0
DWIDTH 9 0
BBX 9 18 0 -3
BITMAP
0000
0000
0000
3F00
1000
2000
2000
1E00
1000
2000
4000
4000
4000
4000
3E00
0100
0100
0000
ENDCHAR
STARTCHAR GREEK SMALL LETTER OMICRON
ENCODING 959
SWIDTH 480 0
DWIDTH 9 0
BBX 9 18 0 -3
BITMAP
0000
0000
0000
0000
0000
0000
0000
0000
3E00
4100
4100
4100
4100
4100
3E00
0000
0000
0000
ENDCHAR
STARTCHAR GREEK SMALL LETTER PI
ENCODING 960
SWIDTH 480 0
DWIDTH 9 0
BBX 9 18 0 -3
BITMAP
0000
0000
0000
0000
0000
0000
0000
0000
7F00
2200
2200
2200
2200
2200
4300
0000
0000
0000
ENDCHAR
STARTCHAR GREEK SMALL LETTER RHO
ENCODING 961
SWIDTH 480 0
DWIDTH 9 0
BBX 9 18 0 -3
BITMAP
0000
0000
0000
0000
0000
0000
0000
0000
3E00
4100
4100
4100
4100
4100
7E00
4000
4000
4000
ENDCHAR
STARTCHAR GREEK SMALL LETTER FINAL SIGMA
ENCODING 962
SWIDTH 480 0
DWIDTH 9 0
BBX 9 18 0 -3
BITMAP
0000
0000
0000
0000
0000
0000
0000
0000
3F00
4000
4000
4000
4000
4000
3E00
0100
0100
0000
ENDCHAR
STARTCHAR GREEK SMALL LETTER SIGMA
ENCODING 963
SWIDTH 480 0
DWIDTH 9 0
BBX 9 18 0 -3
BITMAP
0000
0000
0000
0000
0000
0000
0000
0000
3F00
4C00
4200
4100
4100
4100
3E00
0000
0000
0000
ENDCHAR
STARTCHAR GREEK SMALL LETTER TAU
ENCODING 964
SWIDTH 480 0
DWIDTH 9 0
BBX 9 18 0 -3
BITMAP
0000
0000
0000
0000
0000
0000
0000
0000
7F00
0800
0800
0800
0800
0800
0400
0000
0000
0000
ENDCHAR
STARTCHAR GREEK SMALL LETTER UPSILON
ENCODING 965
SWIDTH 480 0
DWIDTH 9 0
BBX 9 18 0 -3
BITMAP
0000
0000
0000
0000
0000
0000
0000
0000
4100
4100
4100
4100
4100
4100
3E00
0000
0000
0000
ENDCHAR
STARTCHAR GREEK SMALL LETTER PHI
ENCODING 966
SWIDTH 480 0
DWIDTH 9 0
BBX 9 18 0 -3
BITMAP
0000
0000
0000
0000
0000
0000
0000
0000
0600
4900
4900
4900
4900
4900
3E00
0800
0800
0800
ENDCHAR
STARTCHAR GREEK SMALL LETTER CHI
ENCODING 967
SWIDTH 480 0
DWIDTH 9 0
BBX 9 18 0 -3
BITMAP
0000
0000
0000
0000
0000
0000
0000
0000
7100
0900
0A00
0A00
0C00
1800
2800
2800
4800
4700
ENDCHAR
STARTCHAR GREEK SMALL LETTER PSI
ENCODING 968
SWIDTH 480 0
DWIDTH 9 0
BBX 9 18 0 -3
BITMAP
0000
0000
0000
0000
0000
0800
0800
0800
4900
4900
4900
4900
4900
4900
3E00
0800
0800
0800
ENDCHAR
STARTCHAR GREEK SMALL LETTER OMEGA
ENCODING 969
SWIDTH 480 0
DWIDTH 9 0
BBX 9 18 0 -3
BITMAP
0000
0000
0000
0000
0000
0000
0000
0000
2200
4100
4100
4100
4900
4900
3600
0000
0000
0000
ENDCHAR
STARTCHAR GREEK SMALL LETTER IOTA WITH DIALYTIKA
ENCODING 970
SWIDTH 480 0
DWIDTH 9 0
BBX 9 18 0 -3
BITMAP
0000
0000
0000
0000
0000
2200
0000
0000
0800
0800
0800
0800
0800
0800
0400
0000
0000
0000
ENDCHAR
STARTCHAR GREEK SMALL LETTER UPSILON WITH DIALYTIKA
ENCODING 971
SWIDTH 480 0
DWIDTH 9 0
BBX 9 18 0 -3
BITMAP
0000
0000
0000
0000
0000
2200
0000
0000
4100
4100
4100
4100
4100
4100
3E00
0000
0000
0000
ENDCHAR
STARTCHAR GREEK SMALL LETTER OMICRON WITH TONOS
ENCODING 972
SWIDTH 480 0
DWIDTH 9 0
BBX 9 18 0 -3
BITMAP
0000
0000
0000
0200
0400
0800
0000
0000
3E00
4100
4100
4100
4100
4100
3E00
0000
0000
0000
ENDCHAR
STARTCHAR GREEK SMALL LETTER UPSILON WITH TONOS
ENCODING 973
SWIDTH 480 0
DWIDTH 9 0
BBX 9 18 0 -3
BITMAP
0000
0000
0000
0200
0400
0800
0000
0000
4100
4100
4100
4100
4100
4100
3E00
0000
0000
0000
ENDCHAR
STARTCHAR GREEK SMALL LETTER OMEGA WITH TONOS
ENCODING 974
SWIDTH 480 0
DWIDTH 9 0
BBX 9 18 0 -3
BITMAP
0000
0000
0000
0200
0400
0800
0000
0000
2200
4100
4100
4100
4900
4900
3600
0000
0000
0000
ENDCHAR
STARTCHAR CYRILLIC CAPITAL LETTER IE WITH GRAVE
ENCODING 1024
SWIDTH 480 0
DWIDTH 9 0
BBX 9 18 0 -3
BITMAP
2000
1000
0800
0000
7F00
4000
4000
4000
4000
7800
4000
4000
4000
4000
7F00
0000
0000
0000
ENDCHAR
STARTCHAR CYRILLIC CAPITAL LETTER IO
ENCODING 1025
SWIDTH 480 0
DWIDTH 9 0
BBX 9 18 0 -3
BITMAP
0000
2200
0000
0000
7F00
4000
4000
4000
4000
7800
4000
4000
4000
4000
7F00
0000
0000
0000
ENDCHAR
STARTCHAR CYRILLIC CAPITAL LETTER DJE
ENCODING 1026
SWIDTH 480 0
DWIDTH 9 0
BBX 9 18 0 -3
BITMAP
0000
0000
0000
0000
F800
4000
4000
4000
7E00
4100
4100
4100
4100
4100
4100
0600
0000
0000
ENDCHAR
STARTCHAR CYRILLIC CAPITAL LETTER GJE
ENCODING 1027
SWIDTH 480 0
DWIDTH 9 0
BBX 9 18 0 -3
BITMAP
0200
0400
0800
0000
7F00
4000
4000
4000
4000
4000
4000
4000
4000
4000
4000
0000
0000
0000
ENDCHAR
STARTCHAR CYRILLIC CAPITAL LETTER UKRAINIAN IE
ENCODING 1028
SWIDTH 480 0
DWIDTH 9 0
BBX 9 18 0 -3
BITMAP
0000
0000
0000
0000
3F00
4000
4000
4000
4000
7800
4000
4000
4000
4000
3F00
0000
0000
0000
ENDCHAR
STARTCHAR CYRILLIC CAPITAL LETTER DZE
ENCODING 1029
SWIDTH 480 0
DWIDTH 9 0
BBX 9 18 0 -3
BITMAP
0000
0000
0000
0000
3F00
4000
4000
4000
4000
3E00
0100
0100
0100
0100
7E00
0000
0000
0000
ENDCHAR
STARTCHAR CYRILLIC CAPITAL LETTER BYELORUSSIAN-UKRAINIAN I
ENCODING 1030
SWIDTH 480 0
DWIDTH 9 0
BBX 9 18 0 -3
BITMAP
0000
0000
0000
0000
1C00
0800
0800
0800
0800
0800
0800
0800
0800
0800
1C00
0000
0000
0000
ENDCHAR
STARTCHAR CYRILLIC CAPITAL LETTER YI
ENCODING 1031
SWIDTH 480 0
DWIDTH 9 0
BBX 9 18 0 -3
BITMAP
0000
2200
0000
0000
1C00
0800
0800
0800
0800
0800
0800
0800
0800
0800
1C00
0000
0000
0000
ENDCHAR
STARTCHAR CYRILLIC CAPITAL LETTER JE
ENCODING 1032
SWIDTH 480 0
DWIDTH 9 0
BBX 9 18 0 -3
BITMAP
0000
0000
0000
0000
0100
0100
0100
0100
0100
0100
0100
0100
0100
4100
3E00
0000
0000
0000
ENDCHAR
STARTCHAR CYRILLIC CAPITAL LETTER LJE
ENCODING 1033
SWIDTH 480 0
DWIDTH 9 0
BBX 9 18 0 -3
BITMAP
0000
0000
0000
0000
3C00
4400
4400
4400
4400
4700
4480
4480
4480
4480
8700
0000
0000
0000
ENDCHAR
STARTCHAR CYRILLIC CAPITAL LETTER NJE
ENCODING 1034
SWIDTH 480 0
DWIDTH 9 0
BBX 9 18 0 -3
BITMAP
0000
0000
0000
0000
8800
8800
8800
8800
8800
FF00
8880
8880
8880
8880
8F00
0000
0000
0000
ENDCHAR
STARTCHAR CYRILLIC CAPITAL LETTER TSHE
ENCODING 1035
SWIDTH 480 0
DWIDTH 9 0
BBX 9 18 0 -3
BITMAP
0000
0000
0000
0000
F800
4000
4000
4000
7E00
4100
4100
4100
4100
4100
4100
0000
0000
0000
ENDCHAR
STARTCHAR CYRILLIC CAPITAL LETTER KJE
ENCODING 1036
SWIDTH 480 0
DWIDTH 9 0
BBX 9 18 0 -3
BITMAP
0200
0400
0800
0000
4100
4200
4400
4800
5000
6000
5000
4800
4400
4200
4100
0000
0000
0000
ENDCHAR
STARTCHAR CYRILLIC CAPITAL LETTER I WITH GRAVE
ENCODING 1037
SWIDTH 480 0
DWIDTH 9 0
BBX 9 18 0 -3
BITMAP
2000
1000
0800
0000
4100
4100
4100
4300
4500
4900
5100
6100
4100
4100
4100
0000
0000
0000
ENDCHAR
STARTCHAR CYRILLIC CAPITAL LETTER SHORT U
ENCODING 1038
SWIDTH 480 0
DWIDTH 9 0
BBX 9 18 0 -3
BITMAP
2200
2200
1C00
0000
4100
4100
4100
4100
4100
3F00
0100
0100
0100
0100
0E00
0000
0000
0000
ENDCHAR
STARTCHAR CYRILLIC CAPITAL LETTER DZHE
ENCODING 1039
SWIDTH 480 0
DWIDTH 9 0
BBX 9 18 0 -3
BITMAP
0000
0000
0000
0000
4100
4100
4100
4100
4100
4100
4100
4100
4100
4100
7F00
0800
0800
0000
ENDCHAR
STARTCHAR CYRILLIC CAPITAL LETTER A
ENCODING 1040
SWIDTH 480 0
DWIDTH 9 0
BBX 9 18 0 -3
BITMAP
0000
0000
0000
0000
3E00
4100
4100
4100
4100
4100
7F00
4100
4100
4100
4100
0000
0000
0000
ENDCHAR
STARTCHAR CYRILLIC CAPITAL LETTER BE
ENCODING 1041
SWIDTH 480 0
DWIDTH 9 0
BBX 9 18 0 -3
BITMAP
0000
0000
0000
0000
7E00
4000
4000
4000
4000
7E00
4100
4100
4100
4100
7E00
0000
0000
0000
ENDCHAR
STARTCHAR CYRILLIC CAPITAL LETTER VE
ENCODING 1042
SWIDTH 480 0
DWIDTH 9 0
BBX 9 18 0 -3
BITMAP
0000
0000
0000
0000
7E00
4100
4100
4100
4100
7E00
4100
4100
4100
4100
7E00
0000
0000
0000
ENDCHAR
STARTCHAR CYRILLIC CAPITAL LETTER GHE
ENCODING 1043
SWIDTH 480 0
DWIDTH 9 0
BBX 9 18 0 -3
BITMAP
0000
0000
0000
0000
7F00
4000
4000
4000
4000
4000
4000
4000
4000
4000
4000
0000
0000
0000
ENDCHAR
STARTCHAR CYRILLIC CAPITAL LETTER DE
ENCODING 1044
SWIDTH 480 0
DWIDTH 9 0
BBX 9 18 0 -3
BITMAP
0000
0000
0000
0000
3F00
4100
4100
4100
4100
4100
4100
4100
4100
4100
FF80
8080
8080
0000
ENDCHAR
STARTCHAR CYRILLIC CAPITAL LETTER IE
ENCODING 1045
SWIDTH 480 0
DWIDTH 9 0
BBX 9 18 0 -3
BITMAP
0000
0000
0000
0000
7F00
4000
4000
4000
4000
7800
4000
4000
4000
4000
7F00
0000
0000
0000
ENDCHAR
STARTCHAR CYRILLIC CAPITAL LETTER ZHE
ENCODING 1046
SWIDTH 480 0
DWIDTH 9 0
BBX 9 18 0 -3
BITMAP
0000
0000
0000
0000
8880
4900
4900
4900
4900
3E00
4900
4900
4900
4900
8880
0000
0000
0000
ENDCHAR
STARTCHAR CYRILLIC CAPITAL LETTER ZE
ENCODING 1047
SWIDTH 480 0
DWIDTH 9 0
BBX 9 18 0 -3
BITMAP
0000
0000
0000
0000
7E00
0100
0100
0100
0100
0E00
0100
0100
0100
0100
7E00
0000
0000
0000
ENDCHAR
STARTCHAR CYRILLIC CAPITAL LETTER I
ENCODING 1048
SWIDTH 480 0
DWIDTH 9 0
BBX 9 18 0 -3
BITMAP
0000
0000
0000
0000
4100
4100
4100
4300
4500
4900
5100
6100
4100
4100
4100
0000
0000
0000
ENDCHAR
STARTCHAR CYRILLIC CAPITAL LETTER SHORT I
ENCODING 1049
SWIDTH 480 0
DWIDTH 9 0
BBX 9 18 0 -3
BITMAP
2200
2200
1C00
0000
4100
4100
4100
4300
4500
4900
5100
6100
4100
4100
4100
0000
0000
0000
ENDCHAR
STARTCHAR CYRILLIC CAPITAL LETTER KA
ENCODING 1050
SWIDTH 480 0
DWIDTH 9 0
BBX 9 18 0 -3
BITMAP
0000
0000
0000
0000
4100
4200
4400
4800
5000
6000
5000
4800
4400
4200
4100
0000
0000
0000
ENDCHAR
STARTCHAR CYRILLIC CAPITAL LETTER EL
ENCODING 1051
SWIDTH 480 0
DWIDTH 9 0
BBX 9 18 0 -3
BITMAP
0000
0000
0000
0000
1F00
2100
2100
2100
2100
2100
2100
2100
2100
2100
4100
0000
0000
0000
ENDCHAR
STARTCHAR CYRILLIC CAPITAL LETTER EM
ENCODING 1052
SWIDTH 480 0
DWIDTH 9 0
BBX 9 18 0 -3
BITMAP
0000
0000
0000
0000
4100
6300
5500
4900
4100
4100
4100
4100
4100
4100
4100
0000
0000
0000
ENDCHAR
STARTCHAR CYRILLIC CAPITAL LETTER EN
ENCODING 1053
SWIDTH 480 0
DWIDTH 9 0
BBX 9 18 0 -3
BITMAP
0000
0000
0000
0000
4100
4100
4100
4100
4100
7F00
4100
4100
4100
4100
4100
0000
0000
0000
ENDCHAR
STARTCHAR CYRILLIC CAPITAL LETTER O
ENCODING 1054
SWIDTH 480 0
DWIDTH 9 0
BBX 9 18 0 -3
BITMAP
0000
0000
0000
0000
3E00
4100
4100
4100
4100
4100
4100
4100
4100
4100
3E00
0000
0000
0000
ENDCHAR
STARTCHAR CYRILLIC CAPITAL LETTER PE
ENCODING 1055
SWIDTH 480 0
DWIDTH 9 0
BBX 9 18 0 -3
BITMAP
0000
0000
0000
0000
7F00
4100
4100
4100
4100
4100
4100
4100
4100
4100
4100
0000
0000
0000
ENDCHAR
STARTCHAR CYRILLIC CAPITAL LETTER ER
ENCODING 1056
SWIDTH 480 0
DWIDTH 9 0
BBX 9 18 0 -3
BITMAP
0000
0000
0000
0000
7E00
4100
4100
4100
4100
4100
7E00
4000
4000
4000
4000
0000
0000
0000
ENDCHAR
STARTCHAR CYRILLIC CAPITAL LETTER ES
ENCODING 1057
SWIDTH 480 0
DWIDTH 9 0
BBX 9 18 0 -3
BITMAP
0000
0000
0000
0000
3F00
4000
4000
4000
4000
4000
4000
4000
4000
4000
3F00
0000
0000
0000
ENDCHAR
STARTCHAR CYRILLIC CAPITAL LETTER TE
ENCODING 1058
SWIDTH 480 0
DWIDTH 9 0
BBX 9 18 0 -3
BITMAP
0000
0000
0000
0000
7F00
0800
0800
0800
0800
0800
0800
0800
0800
0800
0800
0000
0000
0000
ENDCHAR
STARTCHAR CYRILLIC CAPITAL LETTER U
ENCODING 1059
SWIDTH 480 0
DWIDTH 9 0
BBX 9 18 0 -3
BITMAP
0000
0000
0000
0000
4100
4100
4100
4100
4100
3F00
0100
0100
0100
0100
0E00
0000
0000
0000
ENDCHAR
STARTCHAR CYRILLIC CAPITAL LETTER EF
ENCODING 1060
SWIDTH 480 0
DWIDTH 9 0
BBX 9 18 0 -3
BITMAP
0000
0000
0000
0000
0800
3E00
4900
4900
4900
4900
4900
4900
4900
3E00
0800
0000
0000
0000
ENDCHAR
STARTCHAR CYRILLIC CAPITAL LETTER HA
ENCODING 1061
SWIDTH 480 0
DWIDTH 9 0
BBX 9 18 0 -3
BITMAP
0000
0000
0000
0000
4100
4100
4100
2200
1400
0800
1400
2200
4100
4100
4100
0000
0000
0000
ENDCHAR
STARTCHAR CYRILLIC CAPITAL LETTER TSE
ENCODING 1062
SWIDTH 480 0
DWIDTH 9 0
BBX 9 18 0 -3
BITMAP
0000
0000
0000
0000
4100
4100
4100
4100
4100
4100
4100
4100
4100
4100
7F80
0080
0080
0000
ENDCHAR
STARTCHAR CYRILLIC CAPITAL LETTER CHE
ENCODING 1063
SWIDTH 480 0
DWIDTH 9 0
BBX 9 18 0 -3
BITMAP
0000
0000
0000
0000
4100
4100
4100
4100
4100
3F00
0100
0100
0100
0100
0100
0000
0000
0000
ENDCHAR
STARTCHAR CYRILLIC CAPITAL LETTER SHA
ENCODING 1064
SWIDTH 480 0
DWIDTH 9 0
BBX 9 18 0 -3
BITMAP
0000
0000
0000
0000
4900
4900
4900
4900
4900
4900
4900
4900
4900
4900
7F00
0000
0000
0000
ENDCHAR
STARTCHAR CYRILLIC CAPITAL LETTER SHCHA
ENCODING 1065
SWIDTH 480 0
DWIDTH 9 0
BBX 9 18 0 -3
BITMAP
0000
0000
0000
0000
4900
4900
4900
4900
4900
4900
4900
4900
4900
4900
7F80
0080
0080
0000
ENDCHAR
STARTCHAR CYRILLIC CAPITAL LETTER HARD SIGN
ENCODING 1066
SWIDTH 480 0
DWIDTH 9 0
BBX 9 18 0 -3
BITMAP
0000
0000
0000
0000
C000
4000
4000
4000
4000
7E00
4100
4100
4100
4100
7E00
0000
0000
0000
ENDCHAR
STARTCHAR CYRILLIC CAPITAL LETTER YERU
ENCODING 1067
SWIDTH 480 0
DWIDTH 9 0
BBX 9 18 0 -3
BITMAP
0000
0000
0000
0000
4100
4100
4100
4100
7900
4500
4500
4500
4500
4500
7900
0000
0000
0000
ENDCHAR
STARTCHAR CYRILLIC CAPITAL LETTER SOFT SIGN
ENCODING 1068
SWIDTH 480 0
DWIDTH 9 0
BBX 9 18 0 -3
BITMAP
0000
0000
0000
0000
4000
4000
4000
4000
4000
7E00
4100
4100
4100
4100
7E00
0000
0000
0000
ENDCHAR
STARTCHAR CYRILLIC CAPITAL LETTER E
ENCODING 1069
SWIDTH 480 0
DWIDTH 9 0
BBX 9 18 0 -3
BITMAP
0000
0000
0000
0000
7E00
0100
0100
0100
0100
0F00
0100
0100
0100
0100
7E00
0000
0000
0000
ENDCHAR
STARTCHAR CYRILLIC CAPITAL LETTER YU
ENCODING 1070
SWIDTH 480 0
DWIDTH 9 0
BBX 9 18 0 -3
BITMAP
0000
0000
0000
0000
4E00
5100
5100
5100
5100
7100
5100
5100
5100
5100
4E00
0000
0000
0000
ENDCHAR
STARTCHAR CYRILLIC CAPITAL LETTER YA
ENCODING 1071
SWIDTH 480 0
DWIDTH 9 0
BBX 9 18 0 -3
BITMAP
0000
0000
0000
0000
3F00
4100
4100
4100
4100
4100
3F00
2100
2100
4100
4100
0000
0000
0000
ENDCHAR
STARTCHAR CYRILLIC SMALL LETTER A
ENCODING 1072
SWIDTH 480 0
DWIDTH 9 0
BBX 9 18 0 -3
BITMAP
0000
0000
0000
0000
0000
0000
0000
0000
3E00
0100
0100
3F00
4100
4100
3F00
0000
0000
0000
ENDCHAR
STARTCHAR CYRILLIC SMALL LETTER BE
ENCODING 1073
SWIDTH 480 0
DWIDTH 9 0
BBX 9 18 0 -3
BITMAP
0000
0000
0000
0100
1E00
2000
4000
4000
7E00
4100
4100
4100
4100
4100
3E00
0000
0000
0000
ENDCHAR
STARTCHAR CYRILLIC SMALL LETTER VE
ENCODING 1074
SWIDTH 480 0
DWIDTH 9 0
BBX 9 18 0 -3
BITMAP
0000
0000
0000
0000
0000
0000
0000
0000
7E00
4100
4100
7E00
4100
4100
7E00
0000
0000
0000
ENDCHAR
STARTCHAR CYRILLIC SMALL LETTER GHE
ENCODING 1075
SWIDTH 480 0
DWIDTH 9 0
BBX 9 18 0 -3
BITMAP
0000
0000
0000
0000
0000
0000
0000
0000
7F00
4000
4000
4000
4000
4000
4000
0000
0000
0000
ENDCHAR
STARTCHAR CYRILLIC SMALL LETTER DE
ENCODING 1076
SWIDTH 480 0
DWIDTH 9 0
BBX 9 18 0 -3
BITMAP
0000
0000
0000
0000
0000
0000
0000
0000
1E00
2200
2200
2200
2200
2200
7F00
4100
0000
0000
ENDCHAR
STARTCHAR CYRILLIC SMALL LETTER IE
ENCODING 1077
SWIDTH 480 0
DWIDTH 9 0
BBX 9 18 0 -3
BITMAP
0000
0000
0000
0000
0000
0000
0000
0000
3E00
4100
4100
7F00
4000
4000
3E00
0000
0000
0000
ENDCHAR
STARTCHAR CYRILLIC SMALL LETTER ZHE
ENCODING 1078
SWIDTH 480 0
DWIDTH 9 0
BBX 9 18 0 -3
BITMAP
0000
0000
0000
0000
0000
0000
0000
0000
8880
4900
4900
3E00
4900
4900
8880
0000
0000
0000
ENDCHAR
STARTCHAR CYRILLIC SMALL LETTER ZE
ENCODING 1079
SWIDTH 480 0
DWIDTH 9 0
BBX 9 18 0 -3
BITMAP
0000
0000
0000
0000
0000
0000
0000
0000
7E00
0100
0100
0E00
0100
0100
7E00
0000
0000
0000
ENDCHAR
STARTCHAR CYRILLIC SMALL LETTER I
ENCODING 1080
SWIDTH 480 0
DWIDTH 9 0
BBX 9 18 0 -3
BITMAP
0000
0000
0000
0000
0000
0000
0000
0000
4100
4300
4500
4900
5100
6100
4100
0000
0000
0000
ENDCHAR
STARTCHAR CYRILLIC SMALL LETTER SHORT I
ENCODING 1081
SWIDTH 480 0
DWIDTH 9 0
BBX 9 18 0 -3
BITMAP
0000
0000
0000
2200
2200
1C00
0000
0000
4100
4300
4500
4900
5100
6100
4100
0000
0000
0000
ENDCHAR
STARTCHAR CYRILLIC SMALL LETTER KA
ENCODING 1082
SWIDTH 480 0
DWIDTH 9 0
BBX 9 18 0 -3
BITMAP
0000
0000
0000
0000
0000
0000
0000
0000
2200
2400
2800
3000
2800
2400
2200
0000
0000
0000
ENDCHAR
STARTCHAR CYRILLIC SMALL LETTER EL
ENCODING 1083
SWIDTH 480 0
DWIDTH 9 0
BBX 9 18 0 -3
BITMAP
0000
0000
0000
0000
0000
0000
0000
0000
1F00
2100
2100
2100
2100
2100
4100
0000
0000
0000
ENDCHAR
STARTCHAR CYRILLIC SMALL LETTER EM
ENCODING 1084
SWIDTH 480 0
DWIDTH 9 0
BBX 9 18 0 -3
BITMAP
0000
0000
0000
0000
0000
0000
0000
0000
4100
6300
5500
4900
4100
4100
4100
0000
0000
0000
ENDCHAR
STARTCHAR CYRILLIC SMALL LETTER EN
ENCODING 1085
SWIDTH 480 0
DWIDTH 9 0
BBX 9 18 0 -3
BITMAP
0000
0000
0000
0000
0000
0000
0000
0000
4100
4100
4100
7F00
4100
4100
4100
0000
0000
0000
ENDCHAR
STARTCHAR CYRILLIC SMALL LETTER O
ENCODING 1086
SWIDTH 480 0
DWIDTH 9 0
BBX 9 18 0 -3
BITMAP
0000
0000
0000
0000
0000
0000
0000
0000
3E00
4100
4100
4100
4100
4100
3E00
0000
0000
0000
ENDCHAR
STARTCHAR CYRILLIC SMALL LETTER PE
ENCODING 1087
SWIDTH 480 0
DWIDTH 9 0
BBX 9 18 0 -3
BITMAP
0000
0000
0000
0000
0000
0000
0000
0000
7F00
4100
4100
4100
4100
4100
4100
0000
0000
0000
ENDCHAR
STARTCHAR CYRILLIC SMALL LETTER ER
ENCODING 1088
SWIDTH 480 0
DWIDTH 9 0
BBX 9 18 0 -3
BITMAP
0000
0000
0000
0000
0000
0000
0000
0000
7E00
4100
4100
4100
4100
4100
7E00
4000
4000
4000
ENDCHAR
STARTCHAR CYRILLIC SMALL LETTER ES
ENCODING 1089
SWIDTH 480 0
DWIDTH 9 0
BBX 9 18 0 -3
BITMAP
0000
0000
0000
0000
0000
0000
0000
0000
3F00
4000
4000
4000
4000
4000
3F00
0000
0000
0000
ENDCHAR
STARTCHAR CYRILLIC SMALL LETTER TE
ENCODING 1090
SWIDTH 480 0
DWIDTH 9 0
BBX 9 18 0 -3
BITMAP
0000
0000
0000
0000
0000
0000
0000
0000
7F00
0800
0800
0800
0800
0800
0800
0000
0000
0000
ENDCHAR
STARTCHAR CYRILLIC SMALL LETTER U
ENCODING 1091
SWIDTH 480 0
DWIDTH 9 0
BBX 9 18 0 -3
BITMAP
0000
0000
0000
0000
0000
0000
0000
0000
4100
4100
4100
4100
4100
4100
3F00
0100
0100
1E00
ENDCHAR
STARTCHAR CYRILLIC SMALL LETTER EF
ENCODING 1092
SWIDTH 480 0
DWIDTH 9 0
BBX 9 18 0 -3
BITMAP
0000
0000
0000
0000
0000
0800
0800
0800
3E00
4900
4900
4900
4900
4900
3E00
0800
0800
0800
ENDCHAR
STARTCHAR CYRILLIC SMALL LETTER HA
ENCODING 1093
SWIDTH 480 0
DWIDTH 9 0
BBX 9 18 0 -3
BITMAP
0000
0000
0000
0000
0000
0000
0000
0000
4100
2200
1400
0800
1400
2200
4100
0000
0000
0000
ENDCHAR
STARTCHAR CYRILLIC SMALL LETTER TSE
ENCODING 1094
SWIDTH 480 0
DWIDTH 9 0
BBX 9 18 0 -3
BITMAP
0000
0000
0000
0000
0000
0000
0000
0000
4200
4200
4200
4200
4200
4200
7F00
0100
0100
0000
ENDCHAR
STARTCHAR CYRILLIC SMALL LETTER CHE
ENCODING 1095
SWIDTH 480 0
DWIDTH 9 0
BBX 9 18 0 -3
BITMAP
0000
0000
0000
0000
0000
0000
0000
0000
4100
4100
4100
3F00
0100
0100
0100
0000
0000
0000
ENDCHAR
STARTCHAR CYRILLIC SMALL LETTER SHA
ENCODING 1096
SWIDTH 480 0
DWIDTH 9 0
BBX 9 18 0 -3
BITMAP
0000
0000
0000
0000
0000
0000
0000
0000
4900
4900
4900
4900
4900
4900
7F00
0000
0000
0000
ENDCHAR
STARTCHAR CYRILLIC SMALL LETTER SHCHA
ENCODING 1097
SWIDTH 480 0
DWIDTH 9 0
BBX 9 18 0 -3
BITMAP
0000
0000
0000
0000
0000
0000
0000
0000
4900
4900
4900
4900
4900
4900
7F80
0080
0080
0000
ENDCHAR
STARTCHAR CYRILLIC SMALL LETTER HARD SIGN
ENCODING 1098
SWIDTH 480 0
DWIDTH 9 0
BBX 9 18 0 -3
BITMAP
0000
0000
0000
0000
0000
0000
0000
0000
C000
4000
4000
7E00
4100
4100
7E00
0000
0000
0000
ENDCHAR
STARTCHAR CYRILLIC SMALL LETTER YERU
ENCODING 1099
SWIDTH 480 0
DWIDTH 9 0
BBX 9 18 0 -3
BITMAP
0000
0000
0000
0000
0000
0000
0000
0000
4100
4100
4100
7900
4500
4500
7900
0000
0000
0000
ENDCHAR
STARTCHAR CYRILLIC SMALL LETTER SOFT SIGN
ENCODING 1100
SWIDTH 480 0
DWIDTH 9 0
BBX 9 18 0 -3
BITMAP
0000
0000
0000
0000
0000
0000
0000
0000
4000
4000
4000
7E00
4100
4100
7E00
0000
0000
0000
ENDCHAR
STARTCHAR CYRILLIC SMALL LETTER E
ENCODING 1101
SWIDTH 480 0
DWIDTH 9 0
BBX 9 18 0 -3
BITMAP
0000
0000
0000
0000
0000
0000
0000
0000
7E00
0100
0100
0F00
0100
0100
7E00
0000
0000
0000
ENDCHAR
STARTCHAR CYRILLIC SMALL LETTER YU
ENCODING 1102
SWIDTH 480 0
DWIDTH 9 0
BBX 9 18 0 -3
BITMAP
0000
0000
0000
0000
0000
0000
0000
0000
4E00
5100
5100
7100
5100
5100
4E00
0000
0000
0000
ENDCHAR
STARTCHAR CYRILLIC SMALL LETTER YA
ENCODING 1103
SWIDTH 480 0
DWIDTH 9 0
BBX 9 18 0 -3
BITMAP
0000
0000
0000
0000
0000
0000
0000
0000
3F00
4100
4100
4100
3F00
2100
4100
0000
0000
0000
ENDCHAR
STARTCHAR CYRILLIC SMALL LETTER IE WITH GRAVE
ENCODING 1104
SWIDTH 480 0
DWIDTH 9 0
BBX 9 18 0 -3
BITMAP
0000
0000
0000
2000
1000
0800
0000
0000
3E00
4100
4100
7F00
4000
4000
3E00
0000
0000
0000
ENDCHAR
STARTCHAR CYRILLIC SMALL LETTER IO
ENCODING 1105
SWIDTH 480 0
DWIDTH 9 0
BBX 9 18 0 -3
BITMAP
0000
0000
0000
0000
0000
2200
0000
0000
3E00
4100
4100
7F00
4000
4000
3E00
0000
0000
0000
ENDCHAR
STARTCHAR CYRILLIC SMALL LETTER DJE
ENCODING 1106
SWIDTH 480 0
DWIDTH 9 0
BBX 9 18 0 -3
BITMAP
0000
0000
0000
4000
4000
F800
4000
4000
7E00
4100
4100
4100
4100
4100
4100
0100
0600
0000
ENDCHAR
STARTCHAR CYRILLIC SMALL LETTER GJE
ENCODING 1107
SWIDTH 480 0
DWIDTH 9 0
BBX 9 18 0 -3
BITMAP
0000
0000
0000
0200
0400
0800
0000
0000
7F00
4000
4000
4000
4000
4000
4000
0000
0000
0000
ENDCHAR
STARTCHAR CYRILLIC SMALL LETTER UKRAINIAN IE
ENCODING 1108
SWIDTH 480 0
DWIDTH 9 0
BBX 9 18 0 -3
BITMAP
0000
0000
0000
0000
0000
0000
0000
0000
3F00
4000
4000
7800
4000
4000
3F00
0000
0000
0000
ENDCHAR
STARTCHAR CYRILLIC SMALL LETTER DZE
ENCODING 1109
SWIDTH 480 0
DWIDTH 9 0
BBX 9 18 0 -3
BITMAP
0000
0000
0000
0000
0000
0000
0000
0000
3F00
4000
4000
3E00
0100
0100
7E00
0000
0000
0000
ENDCHAR
STARTCHAR CYRILLIC SMALL LETTER BYELORUSSIAN-UKRAINIAN I
ENCODING 1110
SWIDTH 480 0
DWIDTH 9 0
BBX 9 18 0 -3
BITMAP
0000
0000
0000
0000
0000
0800
0000
0000
1800
0800
0800
0800
0800
0800
0800
0000
0000
0000
ENDCHAR
STARTCHAR CYRILLIC SMALL LETTER YI
ENCODING 1111
SWIDTH 480 0
DWIDTH 9 0
BBX 9 18 0 -3
BITMAP
0000
0000
0000
0000
0000
2200
0000
0000
1800
0800
0800
0800
0800
0800
0800
0000
0000
0000
ENDCHAR
STARTCHAR CYRILLIC SMALL LETTER JE
ENCODING 1112
SWIDTH 480 0
DWIDTH 9 0
BBX 9 18 0 -3
BITMAP
0000
0000
0000
0000
0000
0800
0000
0000
1800
0800
0800
0800
0800
0800
0800
0800
0800
1000
ENDCHAR
STARTCHAR CYRILLIC SMALL LETTER LJE
ENCODING 1113
SWIDTH 480 0
DWIDTH 9 0
BBX 9 18 0 -3
BITMAP
0000
0000
0000
0000
0000
0000
0000
0000
3800
4800
4800
4F00
4880
4880
8F00
0000
0000
0000
ENDCHAR
STARTCHAR CYRILLIC SMALL LETTER NJE
ENCODING 1114
SWIDTH 480 0
DWIDTH 9 0
BBX 9 18 0 -3
BITMAP
0000
0000
0000
0000
0000
0000
0000
0000
8800
8800
8800
FF00
8880
8880
8F00
0000
0000
0000
ENDCHAR
STARTCHAR CYRILLIC SMALL LETTER TSHE
ENCODING 1115
SWIDTH 480 0
DWIDTH 9 0
BBX 9 18 0 -3
BITMAP
0000
0000
0000
4000
4000
F800
4000
4000
7E00
4100
4100
4100
4100
4100
4100
0000
0000
0000
ENDCHAR
STARTCHAR CYRILLIC SMALL LETTER KJE
ENCODING 1116
SWIDTH 480 0
DWIDTH 9 0
BBX 9 18 0 -3
BITMAP
0000
0000
0000
0200
0400
0800
0000
0000
2200
2400
2800
3000
2800
2400
2200
0000
0000
0000
ENDCHAR
STARTCHAR CYRILLIC SMALL LETTER I WITH GRAVE
ENCODING 1117
SWIDTH 480 0
DWIDTH 9 0
BBX 9 18 0 -3
BITMAP
0000
0000
0000
2000
1000
0800
0000
0000
4100
4300
4500
4900
5100
6100
4100
0000
0000
0000
ENDCHAR
STARTCHAR CYRILLIC SMALL LETTER SHORT U
ENCODING 1118
SWIDTH 480 0
DWIDTH 9 0
BBX 9 18 0 -3
BITMAP
0000
0000
0000
2200
2200
1C00
0000
0000
4100
4100
4100
4100
4100
4100
3F00
0100
0100
1E00
ENDCHAR
STARTCHAR CYRILLIC SMALL LETTER DZHE
ENCODING 1119
SWIDTH 480 0
DWIDTH 9 0
BBX 9 18 0 -3
BITMAP
0000
0000
0000
0000
0000
0000
0000
0000
4100
4100
4100
4100
4100
4100
7F00
0800
0800
0800
ENDCHAR
STARTCHAR CYRILLIC CAPITAL LETTER OMEGA
ENCODING 1120
SWIDTH 480 0
DWIDTH 9 0
BBX 9 18 0 -3
BITMAP
0000
0000
0000
0000
4100
4100
4100
4100
4900
4900
4900
4900
4900
4900
3600
0000
0000
0000
ENDCHAR
STARTCHAR CYRILLIC SMALL LETTER OMEGA
ENCODING 1121
SWIDTH 480 0
DWIDTH 9 0
BBX 9 18 0 -3
BITMAP
0000
0000
0000
0000
0000
0000
0000
0000
4100
4100
4900
4900
4900
4900
3600
0000
0000
0000
ENDCHAR
STARTCHAR CYRILLIC CAPITAL LETTER YAT
ENCODING 1122
SWIDTH 480 0
DWIDTH 9 0
BBX 9 18 0 -3
BITMAP
0000
0000
0000
0000
4000
F800
4000
4000
4000
7E00
4100
4100
4100
4100
7E00
0000
0000
0000
ENDCHAR
STARTCHAR CYRILLIC SMALL LETTER YAT
ENCODING 1123
SWIDTH 480 0
DWIDTH 9 0
BBX 9 18 0 -3
BITMAP
0000
0000
0000
0000
0000
0000
0000
0000
4000
F800
4000
7E00
4100
4100
7E00
0000
0000
0000
ENDCHAR
STARTCHAR CYRILLIC CAPITAL LETTER IOTIFIED E
ENCODING 1124
SWIDTH 480 0
DWIDTH 9 0
BBX 9 18 0 -3
BITMAP
0000
0000
0000
0000
4F00
5000
5000
5000
5000
7C00
5000
5000
5000
5000
4F00
0000
0000
0000
ENDCHAR
STARTCHAR CYRILLIC SMALL LETTER IOTIFIED E
ENCODING 1125
SWIDTH 480 0
DWIDTH 9 0
BBX 9 18 0 -3
BITMAP
0000
0000
0000
0000
0000
0000
0000
0000
4F00
5000
5000
7C00
5000
5000
4F00
0000
0000
0000
ENDCHAR
STARTCHAR CYRILLIC CAPITAL LETTER LITTLE YUS
ENCODING 1126
SWIDTH 480 0
DWIDTH 9 0
BBX 9 18 0 -3
BITMAP
0000
0000
0000
0000
3E00
4100
4100
4100
4100
7F00
4900
4900
4900
4900
4900
0000
0000
0000
ENDCHAR
STARTCHAR CYRILLIC SMALL LETTER LITTLE YUS
ENCODING 1127
SWIDTH 480 0
DWIDTH 9 0
BBX 9 18 0 -3
BITMAP
0000
0000
0000
0000
0000
0000
0000
0000
3E00
4100
4100
7F00
4900
4900
4900
0000
0000
0000
ENDCHAR
STARTCHAR CYRILLIC CAPITAL LETTER IOTIFIED LITTLE YUS
ENCODING 1128
SWIDTH 480 0
DWIDTH 9 0
BBX 9 18 0 -3
BITMAP
0000
0000
0000
0000
4E00
5100
5100
5100
5100
7F00
5500
5500
5500
5500
5500
0000
0000
0000
ENDCHAR
STARTCHAR CYRILLIC SMALL LETTER IOTIFIED LITTLE YUS
ENCODING 1129
SWIDTH 480 0
DWIDTH 9 0
BBX 9 18 0 -3
BITMAP
0000
0000
0000
0000
0000
0000
0000
0000
4E00
5100
5100
7F00
5500
5500
5500
0000
0000
0000
ENDCHAR
STARTCHAR CYRILLIC CAPITAL LETTER BIG YUS
ENCODING 1130
SWIDTH 480 0
DWIDTH 9 0
BBX 9 18 0 -3
BITMAP
0000
0000
0000
0000
7F00
2200
1400
0800
1C00
2A00
4900
4900
4900
4900
4900
0000
0000
0000
ENDCHAR
STARTCHAR CYRILLIC SMALL LETTER BIG YUS
ENCODING 1131
SWIDTH 480 0
DWIDTH 9 0
BBX 9 18 0 -3
BITMAP
0000
0000
0000
0000
0000
0000
0000
0000
3E00
1400
0800
1C00
2A00
4900
4900
0000
0000
0000
ENDCHAR
STARTCHAR CYRILLIC CAPITAL LETTER IOTIFIED BIG YUS
ENCODING 1132
SWIDTH 480 0
DWIDTH 9 0
BBX 9 18 0 -3
BITMAP
0000
0000
0000
0000
5F00
5100
4A00
4400
7E00
5500
5500
5500
5500
5500
5500
0000
0000
0000
ENDCHAR
STARTCHAR CYRILLIC SMALL LETTER IOTIFIED BIG YUS
ENCODING 1133
SWIDTH 480 0
DWIDTH 9 0
BBX 9 18 0 -3
BITMAP
0000
0000
0000
0000
0000
0000
0000
0000
5F00
4A00
4400
7E00
5500
5500
5500
0000
0000
0000
ENDCHAR
STARTCHAR CYRILLIC CAPITAL LETTER KSI
ENCODING 1134
SWIDTH 480 0
DWIDTH 9 0
BBX 9 18 0 -3
BITMAP
0000
0000
1400
0800
7E00
0100
0100
0100
0100
0E00
0100
0100
0100
0100
3E00
4000
4000
3F00
ENDCHAR
STARTCHAR CYRILLIC SMALL LETTER KSI
ENCODING 1135
SWIDTH 480 0
DWIDTH 9 0
BBX 9 18 0 -3
BITMAP
0000
0000
0000
0000
0000
0000
1400
0800
7E00
0100
0100
0E00
0100
0100
3E00
4000
4000
3F00
ENDCHAR
STARTCHAR CYRILLIC CAPITAL LETTER PSI
ENCODING 1136
SWIDTH 480 0
DWIDTH 9 0
BBX 9 18 0 -3
BITMAP
0000
0000
0000
0000
4900
4900
4900
4900
4900
3E00
0800
0800
0800
0800
0800
0000
0000
0000
ENDCHAR
STARTCHAR CYRILLIC SMALL LETTER PSI
ENCODING 1137
SWIDTH 480 0
DWIDTH 9 0
BBX 9 18 0 -3
BITMAP
0000
0000
0000
0000
0000
0000
0000
0000
4900
4900
4900
4900
4900
4900
3E00
0800
0800
0800
ENDCHAR
STARTCHAR CYRILLIC CAPITAL LETTER FITA
ENCODING 1138
SWIDTH 480 0
DWIDTH 9 0
BBX 9 18 0 -3
BITMAP
0000
0000
0000
0000
3E00
4100
4100
4100
4100
7F00
4100
4100
4100
4100
3E00
0000
0000
0000
ENDCHAR
STARTCHAR CYRILLIC SMALL LETTER FITA
ENCODING 1139
SWIDTH 480 0
DWIDTH 9 0
BBX 9 18 0 -3
BITMAP
0000
0000
0000
0000
0000
0000
0000
0000
3E00
4100
4100
7F00
4100
4100
3E00
0000
0000
0000
ENDCHAR
STARTCHAR CYRILLIC CAPITAL LETTER IZHITSA
ENCODING 1140
SWIDTH 480 0
DWIDTH 9 0
BBX 9 18 0 -3
BITMAP
0000
0000
0000
0000
4100
4100
4100
4100
4100
2200
2200
2200
1400
1400
0800
0000
0000
0000
ENDCHAR
STARTCHAR CYRILLIC SMALL LETTER IZHITSA
ENCODING 1141
SWIDTH 480 0
DWIDTH 9 0
BBX 9 18 0 -3
BITMAP
0000
0000
0000
0000
0000
0000
0000
0000
4100
4100
2200
2200
1400
1400
0800
0000
0000
0000
ENDCHAR
STARTCHAR CYRILLIC CAPITAL LETTER IZHITSA WITH DOUBLE GRAVE ACCENT
ENCODING 1142
SWIDTH 480 0
DWIDTH 9 0
BBX 9 18 0 -3
BITMAP
4800
2400
1200
0000
4100
4100
4100
4100
4100
2200
2200
2200
1400
1400
0800
0000
0000
0000
ENDCHAR
STARTCHAR CYRILLIC SMALL LETTER IZHITSA WITH DOUBLE GRAVE ACCENT
ENCODING 1143
SWIDTH 480 0
DWIDTH 9 0
BBX 9 18 0 -3
BITMAP
0000
0000
0000
0000
4800
2400
1200
0000
4100
4100
2200
2200
1400
1400
0800
0000
0000
0000
ENDCHAR
STARTCHAR CYRILLIC CAPITAL LETTER KOPPA
ENCODING 1152
SWIDTH 480 0
DWIDTH 9 0
BBX 9 18 0 -3
BITMAP
0000
0000
0000
0000
3F00
4000
4000
4000
4000
4000
4000
4000
4000
4000
3F00
0100
0100
0100
ENDCHAR
STARTCHAR CYRILLIC SMALL LETTER KOPPA
ENCODING 1153
SWIDTH 480 0
DWIDTH 9 0
BBX 9 18 0 -3
BITMAP
0000
0000
0000
0000
0000
0000
0000
0000
3F00
4000
4000
4000
4000
4000
3F00
0100
0100
0100
ENDCHAR
STARTCHAR CYRILLIC CAPITAL LETTER SHORT I WITH TAIL
ENCODING 1162
SWIDTH 480 0
DWIDTH 9 0
BBX 9 18 0 -3
BITMAP
2200
2200
1C00
0000
4100
4100
4100
4300
4500
4900
5100
6100
4100
4100
4180
0080
0080
0000
ENDCHAR
STARTCHAR CYRILLIC SMALL LETTER SHORT I WITH TAIL
ENCODING 1163
SWIDTH 480 0
DWIDTH 9 0
BBX 9 18 0 -3
BITMAP
0000
0000
0000
2200
2200
1C00
0000
0000
4100
4300
4500
4900
5100
6100
4180
0080
0080
0000
ENDCHAR
STARTCHAR CYRILLIC CAPITAL LETTER SEMISOFT SIGN
ENCODING 1164
SWIDTH 480 0
DWIDTH 9 0
BBX 9 18 0 -3
BITMAP
0000
0000
0000
0000
4000
F800
4000
4000
4000
7E00
4100
4100
4100
4100
7E00
0000
0000
0000
ENDCHAR
STARTCHAR CYRILLIC SMALL LETTER SEMISOFT SIGN
ENCODING 1165
SWIDTH 480 0
DWIDTH 9 0
BBX 9 18 0 -3
BITMAP
0000
0000
0000
0000
0000
0000
0000
0000
4000
F800
4000
7E00
4100
4100
7E00
0000
0000
0000
ENDCHAR
STARTCHAR CYRILLIC CAPITAL LETTER ER WITH TICK
ENCODING 1166
SWIDTH 480 0
DWIDTH 9 0
BBX 9 18 0 -3
BITMAP
0000
0000
0000
0000
7E00
4100
4100
4100
4500
4200
7D00
4000
4000
4000
4000
0000
0000
0000
ENDCHAR
STARTCHAR CYRILLIC SMALL LETTER ER WITH TICK
ENCODING 1167
SWIDTH 480 0
DWIDTH 9 0
BBX 9 18 0 -3
BITMAP
0000
0000
0000
0000
0000
0000
0000
0000
7E00
4100
4100
4100
4500
4200
7D00
4000
4000
4000
ENDCHAR
STARTCHAR CYRILLIC CAPITAL LETTER GHE WITH UPTURN
ENCODING 1168
SWIDTH 480 0
DWIDTH 9 0
BBX 9 18 0 -3
BITMAP
0000
0000
0100
0100
7F00
4000
4000
4000
4000
4000
4000
4000
4000
4000
4000
0000
0000
0000
ENDCHAR
STARTCHAR CYRILLIC SMALL LETTER GHE WITH UPTURN
ENCODING 1169
SWIDTH 480 0
DWIDTH 9 0
BBX 9 18 0 -3
BITMAP
0000
0000
0000
0000
0000
0000
0100
0100
7F00
4000
4000
4000
4000
4000
4000
0000
0000
0000
ENDCHAR
STARTCHAR CYRILLIC CAPITAL LETTER GHE WITH STROKE
ENCODING 1170
SWIDTH 480 0
DWIDTH 9 0
BBX 9 18 0 -3
BITMAP
0000
0000
0000
0000
7F00
4000
4000
4000
4000
F800
4000
4000
4000
4000
4000
0000
0000
0000
ENDCHAR
STARTCHAR CYRILLIC SMALL LETTER GHE WITH STROKE
ENCODING 1171
SWIDTH 480 0
DWIDTH 9 0
BBX 9 18 0 -3
BITMAP
0000
0000
0000
0000
0000
0000
0000
0000
7F00
4000
4000
F800
4000
4000
4000
0000
0000
0000
ENDCHAR
STARTCHAR CYRILLIC CAPITAL LETTER ZHE WITH DESCENDER
ENCODING 1174
SWIDTH 480 0
DWIDTH 9 0
BBX 9 18 0 -3
BITMAP
0000
0000
0000
0000
8880
4900
4900
4900
4900
3E00
4900
4900
4900
4900
8880
0080
0080
0000
ENDCHAR
STARTCHAR CYRILLIC SMALL LETTER ZHE WITH DESCENDER
ENCODING 1175
SWIDTH 480 0
DWIDTH 9 0
BBX 9 18 0 -3
BITMAP
0000
0000
0000
0000
0000
0000
0000
0000
8880
4900
4900
3E00
4900
4900
8880
0080
0080
0000
ENDCHAR
STARTCHAR CYRILLIC CAPITAL LETTER ZE WITH DESCENDER
ENCODING 1176
SWIDTH 480 0
DWIDTH 9 0
BBX 9 18 0 -3
BITMAP
0000
0000
0000
0000
7E00
0100
0100
0100
0100
0E00
0100
0100
0100
0100
7E00
0800
0800
0000
ENDCHAR
STARTCHAR CYRILLIC SMALL LETTER ZE WITH DESCENDER
ENCODING 1177
SWIDTH 480 0
DWIDTH 9 0
BBX 9 18 0 -3
BITMAP
0000
0000
0000
0000
0000
0000
0000
0000
7E00
0100
0100
0E00
0100
0100
7E00
0800
0800
0000
ENDCHAR
STARTCHAR CYRILLIC CAPITAL LETTER KA WITH DESCENDER
ENCODING 1178
SWIDTH 480 0
DWIDTH 9 0
BBX 9 18 0 -3
BITMAP
0000
0000
0000
0000
4100
4200
4400
4800
5000
6000
5000
4800
4400
4200
4100
0100
0100
0000
ENDCHAR
STARTCHAR CYRILLIC SMALL LETTER KA WITH DESCENDER
ENCODING 1179
SWIDTH 480 0
DWIDTH 9 0
BBX 9 18 0 -3
BITMAP
0000
0000
0000
0000
0000
0000
0000
0000
2200
2400
2800
3000
2800
2400
2200
0200
0200
0000
ENDCHAR
STARTCHAR CYRILLIC CAPITAL LETTER KA WITH VERTICAL STROKE
ENCODING 1180
SWIDTH 480 0
DWIDTH 9 0
BBX 9 18 0 -3
BITMAP
0000
0000
0000
0000
4100
4200
5400
5800
5000
7000
5000
5800
5400
4200
4100
0000
0000
0000
ENDCHAR
STARTCHAR CYRILLIC SMALL LETTER KA WITH VERTICAL STROKE
ENCODING 1181
SWIDTH 480 0
DWIDTH 9 0
BBX 9 18 0 -3
BITMAP
0000
0000
0000
0000
0000
0000
0000
0000
4200
5400
5800
7000
5800
5400
4200
0000
0000
0000
ENDCHAR
STARTCHAR CYRILLIC CAPITAL LETTER BASHKIR KA
ENCODING 1184
SWIDTH 480 0
DWIDTH 9 0
BBX 9 18 0 -3
BITMAP
0000
0000
0000
0000
E080
2100
2200
2400
2800
3000
2800
2400
2200
2100
2080
0000
0000
0000
ENDCHAR
STARTCHAR CYRILLIC SMALL LETTER BASHKIR KA
ENCODING 1185
SWIDTH 480 0
DWIDTH 9 0
BBX 9 18 0 -3
BITMAP
0000
0000
0000
0000
0000
0000
0000
0000
7100
1200
1400
1800
1400
1200
1100
0000
0000
0000
ENDCHAR
STARTCHAR CYRILLIC CAPITAL LETTER EN WITH DESCENDER
ENCODING 1186
SWIDTH 480 0
DWIDTH 9 0
BBX 9 18 0 -3
BITMAP
0000
0000
0000
0000
4100
4100
4100
4100
4100
7F00
4100
4100
4100
4100
4180
0080
0080
0000
ENDCHAR
STARTCHAR CYRILLIC SMALL LETTER EN WITH DESCENDER
ENCODING 1187
SWIDTH 480 0
DWIDTH 9 0
BBX 9 18 0 -3
BITMAP
0000
0000
0000
0000
0000
0000
0000
0000
4200
4200
4200
7E00
4200
4200
4300
0100
0100
0000
ENDCHAR
STARTCHAR CYRILLIC CAPITAL LETTER ES WITH DESCENDER
ENCODING 1194
SWIDTH 480 0
DWIDTH 9 0
BBX 9 18 0 -3
BITMAP
0000
0000
0000
0000
3F00
4000
4000
4000
4000
4000
4000
4000
4000
4000
3F00
0800
0800
0000
ENDCHAR
STARTCHAR CYRILLIC SMALL LETTER ES WITH DESCENDER
ENCODING 1195
SWIDTH 480 0
DWIDTH 9 0
BBX 9 18 0 -3
BITMAP
0000
0000
0000
0000
0000
0000
0000
0000
3F00
4000
4000
4000
4000
4000
3F00
0800
0800
0000
ENDCHAR
STARTCHAR CYRILLIC CAPITAL LETTER STRAIGHT U
ENCODING 1198
SWIDTH 480 0
DWIDTH 9 0
BBX 9 18 0 -3
BITMAP
0000
0000
0000
0000
4100
4100
4100
2200
1400
0800
0800
0800
0800
0800
0800
0000
0000
0000
ENDCHAR
STARTCHAR CYRILLIC SMALL LETTER STRAIGHT U
ENCODING 1199
SWIDTH 480 0
DWIDTH 9 0
BBX 9 18 0 -3
BITMAP
0000
0000
0000
0000
0000
0000
0000
0000
4100
4100
2200
2200
1400
1400
0800
0800
0800
0800
ENDCHAR
STARTCHAR CYRILLIC CAPITAL LETTER STRAIGHT U WITH STROKE
ENCODING 1200
SWIDTH 480 0
DWIDTH 9 0
BBX 9 18 0 -3
BITMAP
0000
0000
0000
0000
4100
4100
4100
2200
1400
0800
3E00
0800
0800
0800
0800
0000
0000
0000
ENDCHAR
STARTCHAR CYRILLIC SMALL LETTER STRAIGHT U WITH STROKE
ENCODING 1201
SWIDTH 480 0
DWIDTH 9 0
BBX 9 18 0 -3
BITMAP
0000
0000
0000
0000
0000
0000
0000
0000
4100
4100
2200
2200
1400
1400
0800
3E00
0800
0800
ENDCHAR
STARTCHAR CYRILLIC CAPITAL LETTER SHHA
ENCODING 1210
SWIDTH 480 0
DWIDTH 9 0
BBX 9 18 0 -3
BITMAP
0000
0000
0000
0000
4000
4000
4000
4000
4000
7E00
4100
4100
4100
4100
4100
0000
0000
0000
ENDCHAR
STARTCHAR CYRILLIC SMALL LETTER SHHA
ENCODING 1211
SWIDTH 480 0
DWIDTH 9 0
BBX 9 18 0 -3
BITMAP
0000
0000
0000
0000
0000
0000
0000
0000
4000
4000
4000
7E00
4100
4100
4100
0000
0000
0000
ENDCHAR
STARTCHAR CYRILLIC LETTER PALOCHKA
ENCODING 1216
SWIDTH 480 0
DWIDTH 9 0
BBX 9 18 0 -3
BITMAP
0000
0000
0000
0000
1C00
0800
0800
0800
0800
0800
0800
0800
0800
0800
1C00
0000
0000
0000
ENDCHAR
STARTCHAR CYRILLIC CAPITAL LETTER EL WITH TAIL
ENCODING 1221
SWIDTH 480 0
DWIDTH 9 0
BBX 9 18 0 -3
BITMAP
0000
0000
0000
0000
1F00
2100
2100
2100
2100
2100
2100
2100
2100
2100
4180
0080
0080
0000
ENDCHAR
STARTCHAR CYRILLIC SMALL LETTER EL WITH TAIL
ENCODING 1222
SWIDTH 480 0
DWIDTH 9 0
BBX 9 18 0 -3
BITMAP
0000
0000
0000
0000
0000
0000
0000
0000
1F00
2100
2100
2100
2100
2100
4180
0080
0080
0000
ENDCHAR
STARTCHAR CYRILLIC CAPITAL LETTER EN WITH HOOK
ENCODING 1223
SWIDTH 480 0
DWIDTH 9 0
BBX 9 18 0 -3
BITMAP
0000
0000
0000
0000
4100
4100
4100
4100
4100
7F00
4100
4100
4100
4100
4100
0100
0600
0000
ENDCHAR
STARTCHAR CYRILLIC SMALL LETTER EN WITH HOOK
ENCODING 1224
SWIDTH 480 0
DWIDTH 9 0
BBX 9 18 0 -3
BITMAP
0000
0000
0000
0000
0000
0000
0000
0000
4100
4100
4100
7F00
4100
4100
4100
0100
0600
0000
ENDCHAR
STARTCHAR CYRILLIC CAPITAL LETTER EN WITH TAIL
ENCODING 1225
SWIDTH 480 0
DWIDTH 9 0
BBX 9 18 0 -3
BITMAP
0000
0000
0000
0000
4100
4100
4100
4100
4100
7F00
4100
4100
4100
4100
4180
0080
0080
0000
ENDCHAR
STARTCHAR CYRILLIC SMALL LETTER EN WITH TAIL
ENCODING 1226
SWIDTH 480 0
DWIDTH 9 0
BBX 9 18 0 -3
BITMAP
0000
0000
0000
0000
0000
0000
0000
0000
4100
4100
4100
7F00
4100
4100
4180
0080
0080
0000
ENDCHAR
STARTCHAR CYRILLIC CAPITAL LETTER EM WITH TAIL
ENCODING 1229
SWIDTH 480 0
DWIDTH 9 0
BBX 9 18 0 -3
BITMAP
0000
0000
0000
0000
4100
6300
5500
4900
4100
4100
4100
4100
4100
4100
4180
0080
0080
0000
ENDCHAR
STARTCHAR CYRILLIC SMALL LETTER EM WITH TAIL
ENCODING 1230
SWIDTH 480 0
DWIDTH 9 0
BBX 9 18 0 -3
BITMAP
0000
0000
0000
0000
0000
0000
0000
0000
4100
6300
5500
4900
4100
4100
4180
0080
0080
0000
ENDCHAR
STARTCHAR CYRILLIC SMALL LETTER PALOCHKA
ENCODING 1231
SWIDTH 480 0
DWIDTH 9 0
BBX 9 18 0 -3
BITMAP
0000
0000
0000
1000
1000
1000
1000
1000
1000
1000
1000
1000
1000
1000
0E00
0000
0000
0000
ENDCHAR
STARTCHAR CYRILLIC CAPITAL LETTER A WITH BREVE
ENCODING 1232
SWIDTH 480 0
DWIDTH 9 0
BBX 9 18 0 -3
BITMAP
2200
2200
1C00
0000
3E00
4100
4100
4100
4100
4100
7F00
4100
4100
4100
4100
0000
0000
0000
ENDCHAR
STARTCHAR CYRILLIC SMALL LETTER A WITH BREVE
ENCODING 1233
SWIDTH 480 0
DWIDTH 9 0
BBX 9 18 0 -3
BITMAP
0000
0000
0000
2200
2200
1C00
0000
0000
3E00
0100
0100
3F00
4100
4100
3F00
0000
0000
0000
ENDCHAR
STARTCHAR CYRILLIC CAPITAL LETTER A WITH DIAERESIS
ENCODING 1234
SWIDTH 480 0
DWIDTH 9 0
BBX 9 18 0 -3
BITMAP
0000
2200
0000
0000
3E00
4100
4100
4100
4100
4100
7F00
4100
4100
4100
4100
0000
0000
0000
ENDCHAR
STARTCHAR CYRILLIC SMALL LETTER A WITH DIAERESIS
ENCODING 1235
SWIDTH 480 0
DWIDTH 9 0
BBX 9 18 0 -3
BITMAP
0000
0000
0000
0000
0000
2200
0000
0000
3E00
0100
0100
3F00
4100
4100
3F00
0000
0000
0000
ENDCHAR
STARTCHAR CYRILLIC CAPITAL LIGATURE A IE
ENCODING 1236
SWIDTH 480 0
DWIDTH 9 0
BBX 9 18 0 -3
BITMAP
0000
0000
0000
0000
7F80
8800
8800
8800
8800
8E00
F800
8800
8800
8800
8F80
0000
0000
0000
ENDCHAR
STARTCHAR CYRILLIC SMALL LIGATURE A IE
ENCODING 1237
SWIDTH 480 0
DWIDTH 9 0
BBX 9 18 0 -3
BITMAP
0000
0000
0000
0000
0000
0000
0000
0000
7700
0880
0880
7F80
8800
8800
7700
0000
0000
0000
ENDCHAR
STARTCHAR CYRILLIC CAPITAL LETTER IE WITH BREVE
ENCODING 1238
SWIDTH 480 0
DWIDTH 9 0
BBX 9 18 0 -3
BITMAP
2200
2200
1C00
0000
7F00
4000
4000
4000
4000
7800
4000
4000
4000
4000
7F00
0000
0000
0000
ENDCHAR
STARTCHAR CYRILLIC SMALL LETTER IE WITH BREVE
ENCODING 1239
SWIDTH 480 0
DWIDTH 9 0
BBX 9 18 0 -3
BITMAP
0000
0000
0000
2200
2200
1C00
0000
0000
3E00
4100
4100
7F00
4000
4000
3E00
0000
0000
0000
ENDCHAR
STARTCHAR CYRILLIC CAPITAL LETTER SCHWA
ENCODING 1240
SWIDTH 480 0
DWIDTH 9 0
BBX 9 18 0 -3
BITMAP
0000
0000
0000
0000
3E00
0100
0100
0100
0100
7F00
4100
4100
4100
4100
3E00
0000
0000
0000
ENDCHAR
STARTCHAR CYRILLIC SMALL LETTER SCHWA
ENCODING 1241
SWIDTH 480 0
DWIDTH 9 0
BBX 9 18 0 -3
BITMAP
0000
0000
0000
0000
0000
0000
0000
0000
3E00
0100
0100
7F00
4100
4100
3E00
0000
0000
0000
ENDCHAR
STARTCHAR CYRILLIC CAPITAL LETTER I WITH MACRON
ENCODING 1250
SWIDTH 480 0
DWIDTH 9 0
BBX 9 18 0 -3
BITMAP
0000
3E00
0000
0000
4100
4100
4100
4300
4500
4900
5100
6100
4100
4100
4100
0000
0000
0000
ENDCHAR
STARTCHAR CYRILLIC SMALL LETTER I WITH MACRON
ENCODING 1251
SWIDTH 480 0
DWIDTH 9 0
BBX 9 18 0 -3
BITMAP
0000
0000
0000
0000
0000
3E00
0000
0000
4100
4300
4500
4900
5100
6100
4100
0000
0000
0000
ENDCHAR
STARTCHAR CYRILLIC CAPITAL LETTER O WITH DIAERESIS
ENCODING 1254
SWIDTH 480 0
DWIDTH 9 0
BBX 9 18 0 -3
BITMAP
0000
2200
0000
0000
3E00
4100
4100
4100
4100
4100
4100
4100
4100
4100
3E00
0000
0000
0000
ENDCHAR
STARTCHAR CYRILLIC SMALL LETTER O WITH DIAERESIS
ENCODING 1255
SWIDTH 480 0
DWIDTH 9 0
BBX 9 18 0 -3
BITMAP
0000
0000
0000
0000
0000
2200
0000
0000
3E00
4100
4100
4100
4100
4100
3E00
0000
0000
0000
ENDCHAR
STARTCHAR CYRILLIC CAPITAL LETTER BARRED O
ENCODING 1256
SWIDTH 480 0
DWIDTH 9 0
BBX 9 18 0 -3
BITMAP
0000
0000
0000
0000
3E00
4100
4100
4100
4100
7F00
4100
4100
4100
4100
3E00
0000
0000
0000
ENDCHAR
STARTCHAR CYRILLIC SMALL LETTER BARRED O
ENCODING 1257
SWIDTH 480 0
DWIDTH 9 0
BBX 9 18 0 -3
BITMAP
0000
0000
0000
0000
0000
0000
0000
0000
3E00
4100
4100
7F00
4100
4100
3E00
0000
0000
0000
ENDCHAR
STARTCHAR CYRILLIC CAPITAL LETTER E WITH DIAERESIS
ENCODING 1260
SWIDTH 480 0
DWIDTH 9 0
BBX 9 18 0 -3
BITMAP
0000
2200
0000
0000
7E00
0100
0100
0100
0100
0F00
0100
0100
0100
0100
7E00
0000
0000
0000
ENDCHAR
STARTCHAR CYRILLIC SMALL LETTER E WITH DIAERESIS
ENCODING 1261
SWIDTH 480 0
DWIDTH 9 0
BBX 9 18 0 -3
BITMAP
0000
0000
0000
0000
0000
2200
0000
0000
7E00
0100
0100
0F00
0100
0100
7E00
0000
0000
0000
ENDCHAR
STARTCHAR CYRILLIC CAPITAL LETTER U WITH MACRON
ENCODING 1262
SWIDTH 480 0
DWIDTH 9 0
BBX 9 18 0 -3
BITMAP
0000
3E00
0000
0000
4100
4100
4100
4100
4100
3F00
0100
0100
0100
0100
0E00
0000
0000
0000
ENDCHAR
STARTCHAR CYRILLIC SMALL LETTER U WITH MACRON
ENCODING 1263
SWIDTH 480 0
DWIDTH 9 0
BBX 9 18 0 -3
BITMAP
0000
0000
0000
0000
0000
3E00
0000
0000
4100
4100
4100
4100
4100
4100
3F00
0100
0100
1E00
ENDCHAR
STARTCHAR CYRILLIC CAPITAL LETTER U WITH DIAERESIS
ENCODING 1264
SWIDTH 480 0
DWIDTH 9 0
BBX 9 18 0 -3
BITMAP
0000
2200
0000
0000
4100
4100
4100
4100
4100
3F00
0100
0100
0100
0100
0E00
0000
0000
0000
ENDCHAR
STARTCHAR CYRILLIC SMALL LETTER U WITH DIAERESIS
ENCODING 1265
SWIDTH 480 0
DWIDTH 9 0
BBX 9 18 0 -3
BITMAP
0000
0000
0000
0000
0000
2200
0000
0000
4100
4100
4100
4100
4100
4100
3F00
0100
0100
1E00
ENDCHAR
STARTCHAR CYRILLIC CAPITAL LETTER U WITH DOUBLE ACUTE
ENCODING 1266
SWIDTH 480 0
DWIDTH 9 0
BBX 9 18 0 -3
BITMAP
0900
1200
2400
0000
4100
4100
4100
4100
4100
3F00
0100
0100
0100
0100
0E00
0000
0000
0000
ENDCHAR
STARTCHAR CYRILLIC SMALL LETTER U WITH DOUBLE ACUTE
ENCODING 1267
SWIDTH 480 0
DWIDTH 9 0
BBX 9 18 0 -3
BITMAP
0000
0000
0000
0900
1200
2400
0000
0000
4100
4100
4100
4100
4100
4100
3F00
0100
0100
1E00
ENDCHAR
STARTCHAR CYRILLIC CAPITAL LETTER YERU WITH DIAERESIS
ENCODING 1272
SWIDTH 480 0
DWIDTH 9 0
BBX 9 18 0 -3
BITMAP
0000
2200
0000
0000
4100
4100
4100
4100
7900
4500
4500
4500
4500
4500
7900
0000
0000
0000
ENDCHAR
STARTCHAR CYRILLIC SMALL LETTER YERU WITH DIAERESIS
ENCODING 1273
SWIDTH 480 0
DWIDTH 9 0
BBX 9 18 0 -3
BITMAP
0000
0000
0000
0000
0000
2200
0000
0000
4100
4100
4100
7900
4500
4500
7900
0000
0000
0000
ENDCHAR
STARTCHAR ARMENIAN CAPITAL LETTER AYB
ENCODING 1329
SWIDTH 480 0
DWIDTH 9 0
BBX 9 18 0 -3
BITMAP
0000
0000
0000
0000
4100
4100
4100
4100
4100
4100
4100
4900
4500
4200
3D00
0000
0000
0000
ENDCHAR
STARTCHAR ARMENIAN CAPITAL LETTER BEN
ENCODING 1330
SWIDTH 480 0
DWIDTH 9 0
BBX 9 18 0 -3
BITMAP
0000
0000
0000
0000
3F00
4000
4000
4000
4000
4000
7C00
4000
4000
4000
4000
0000
0000
0000
ENDCHAR
STARTCHAR ARMENIAN CAPITAL LETTER GIM
ENCODING 1331
SWIDTH 480 0
DWIDTH 9 0
BBX 9 18 0 -3
BITMAP
0000
0000
0000
0000
3C00
4200
4200
4200
4200
4200
4200
3F00
0200
0200
0200
0000
0000
0000
ENDCHAR
STARTCHAR ARMENIAN CAPITAL LETTER DA
ENCODING 1332
SWIDTH 480 0
DWIDTH 9 0
BBX 9 18 0 -3
BITMAP
0000
0000
0000
0000
7C00
0200
0200
0200
0200
0200
0200
0300
0200
0200
0200
0000
0000
0000
ENDCHAR
STARTCHAR ARMENIAN CAPITAL LETTER ECH
ENCODING 1333
SWIDTH 480 0
DWIDTH 9 0
BBX 9 18 0 -3
BITMAP
0000
0000
0000
0000
4000
4000
4000
4000
7F00
4000
4000
4000
4000
4000
3F00
0000
0000
0000
ENDCHAR
STARTCHAR ARMENIAN CAPITAL LETTER ZA
ENCODING 1334
SWIDTH 480 0
DWIDTH 9 0
BBX 9 18 0 -3
BITMAP
0000
0000
0000
0000
3E00
4100
4100
4100
4100
0100
0100
0100
4100
4200
7F00
0000
0000
0000
ENDCHAR
STARTCHAR ARMENIAN CAPITAL LETTER EH
ENCODING 1335
SWIDTH 480 0
DWIDTH 9 0
BBX 9 18 0 -3
BITMAP
0000
0000
0000
0000
4000
4000
4000
4000
4000
7F00
4000
4000
4000
4000
7C00
0000
0000
0000
ENDCHAR
STARTCHAR ARMENIAN CAPITAL LETTER ET
ENCODING 1336
SWIDTH 480 0
DWIDTH 9 0
BBX 9 18 0 -3
BITMAP
0000
0000
0000
0000
3F00
4000
4000
4000
4000
4000
4000
4000
4000
4000
7F00
0000
0000
0000
ENDCHAR
STARTCHAR ARMENIAN CAPITAL LETTER TO
ENCODING 1337
SWIDTH 480 0
DWIDTH 9 0
BBX 9 18 0 -3
BITMAP
0000
0000
0000
0000
3E00
4100
4100
4100
4100
4700
4900
4900
4900
4900
4600
0000
0000
0000
ENDCHAR
STARTCHAR ARMENIAN CAPITAL LETTER ZHE
ENCODING 1338
SWIDTH 480 0
DWIDTH 9 0
BBX 9 18 0 -3
BITMAP
0000
0000
0000
0000
0200
0200
0200
3F00
4200
4200
4200
4200
4200
4200
3C00
0000
0000
0000
ENDCHAR
STARTCHAR ARMENIAN CAPITAL LETTER INI
ENCODING 1339
SWIDTH 480 0
DWIDTH 9 0
BBX 9 18 0 -3
BITMAP
0000
0000
0000
0000
4000
4000
4000
7E00
4100
4100
4100
4100
4000
4000
4000
0000
0000
0000
ENDCHAR
STARTCHAR ARMENIAN CAPITAL LETTER LIWN
ENCODING 1340
SWIDTH 480 0
DWIDTH 9 0
BBX 9 18 0 -3
BITMAP
0000
0000
0000
0000
4000
4000
4000
4000
4000
4000
4000
4000
4000
4000
7F00
0000
0000
0000
ENDCHAR
STARTCHAR ARMENIAN CAPITAL LETTER XEH
ENCODING 1341
SWIDTH 480 0
DWIDTH 9 0
BBX 9 18 0 -3
BITMAP
0000
0000
0000
0000
4000
4000
4000
4000
7900
4900
4900
4900
4900
4900
4600
0000
0000
0000
ENDCHAR
STARTCHAR ARMENIAN CAPITAL LETTER CA
ENCODING 1342
SWIDTH 480 0
DWIDTH 9 0
BBX 9 18 0 -3
BITMAP
0000
0000
0000
0000
4700
4800
4800
7E00
1100
2100
2100
4100
4100
4100
3E00
0000
0000
0000
ENDCHAR
STARTCHAR ARMENIAN CAPITAL LETTER KEN
ENCODING 1343
SWIDTH 480 0
DWIDTH 9 0
BBX 9 18 0 -3
BITMAP
0000
0000
0000
0000
4000
4000
4000
4000
4100
4100
4100
3F00
0100
0100
0100
0000
0000
0000
ENDCHAR
STARTCHAR ARMENIAN CAPITAL LETTER HO
ENCODING 1344
SWIDTH 480 0
DWIDTH 9 0
BBX 9 18 0 -3
BITMAP
0000
0000
0000
0000
0800
0400
0200
0100
0300
0C00
3000
4000
3000
0C00
0300
0000
0000
0000
ENDCHAR
STARTCHAR ARMENIAN CAPITAL LETTER JA
ENCODING 1345
SWIDTH 480 0
DWIDTH 9 0
BBX 9 18 0 -3
BITMAP
0000
0000
0000
0000
3E00
4100
4100
0100
0100
0100
0100
3900
4500
4200
3D00
0000
0000
0000
ENDCHAR
STARTCHAR ARMENIAN CAPITAL LETTER GHAD
ENCODING 1346
SWIDTH 480 0
DWIDTH 9 0
BBX 9 18 0 -3
BITMAP
0000
0000
0000
0000
7800
0400
0400
0400
0400
0400
0400
0400
0400
0400
0700
0000
0000
0000
ENDCHAR
STARTCHAR ARMENIAN CAPITAL LETTER CHEH
ENCODING 1347
SWIDTH 480 0
DWIDTH 9 0
BBX 9 18 0 -3
BITMAP
0000
0000
0000
0000
2300
1400
1400
0800
1800
1400
2400
2200
4200
4100
7F00
0000
0000
0000
ENDCHAR
STARTCHAR ARMENIAN CAPITAL LETTER MEN
ENCODING 1348
SWIDTH 480 0
DWIDTH 9 0
BBX 9 18 0 -3
BITMAP
0000
0000
0000
0000
4300
4200
4200
4200
4200
4200
4200
4200
4200
4200
3C00
0000
0000
0000
ENDCHAR
STARTCHAR ARMENIAN CAPITAL LETTER YI
ENCODING 1349
SWIDTH 480 0
DWIDTH 9 0
BBX 9 18 0 -3
BITMAP
0000
0000
0000
0000
7E00
0100
0100
0100
0100
7E00
0100
0100
0100
0100
7E00
0000
0000
0000
ENDCHAR
STARTCHAR ARMENIAN CAPITAL LETTER NOW
ENCODING 1350
SWIDTH 480 0
DWIDTH 9 0
BBX 9 18 0 -3
BITMAP
0000
0000
0000
0000
6000
2000
2000
2000
2000
2000
2000
2100
2100
2100
1E00
0000
0000
0000
ENDCHAR
STARTCHAR ARMENIAN CAPITAL LETTER SHA
ENCODING 1351
SWIDTH 480 0
DWIDTH 9 0
BBX 9 18 0 -3
BITMAP
0000
0000
0000
0000
6000
1800
0600
3F00
4000
4000
4000
4000
4100
4100
3E00
0000
0000
0000
ENDCHAR
STARTCHAR ARMENIAN CAPITAL LETTER VO
ENCODING 1352
SWIDTH 480 0
DWIDTH 9 0
BBX 9 18 0 -3
BITMAP
0000
0000
0000
0000
3E00
4100
4100
4100
4100
4100
4100
4100
4100
4100
4100
0000
0000
0000
ENDCHAR
STARTCHAR ARMENIAN CAPITAL LETTER CHA
ENCODING 1353
SWIDTH 480 0
DWIDTH 9 0
BBX 9 18 0 -3
BITMAP
0000
0000
0000
0000
3E00
4100
4100
0100
0100
0100
0100
3E00
6000
1800
0600
0000
0000
0000
ENDCHAR
STARTCHAR ARMENIAN CAPITAL LETTER PEH
ENCODING 1354
SWIDTH 480 0
DWIDTH 9 0
BBX 9 18 0 -3
BITMAP
0000
0000
0000
0000
7E00
0900
0900
0900
0900
0900
0900
0100
0100
0100
0100
0000
0000
0000
ENDCHAR
STARTCHAR ARMENIAN CAPITAL LETTER JHEH
ENCODING 1355
SWIDTH 480 0
DWIDTH 9 0
BBX 9 18 0 -3
BITMAP
0000
0000
0000
0000
3E00
4100
4100
4100
4100
4100
2100
1100
0900
4600
7F00
0000
0000
0000
ENDCHAR
STARTCHAR ARMENIAN CAPITAL LETTER RA
ENCODING 1356
SWIDTH 480 0
DWIDTH 9 0
BBX 9 18 0 -3
BITMAP
0000
0000
0000
0000
3C00
4200
4200
4200
4200
4200
4200
4300
4200
4200
4200
0000
0000
0000
ENDCHAR
STARTCHAR ARMENIAN CAPITAL LETTER SEH
ENCODING 1357
SWIDTH 480 0
DWIDTH 9 0
BBX 9 18 0 -3
BITMAP
0000
0000
0000
0000
4100
4100
4100
4100
4100
4100
4100
4100
4100
4100
3E00
0000
0000
0000
ENDCHAR
STARTCHAR ARMENIAN CAPITAL LETTER VEW
ENCODING 1358
SWIDTH 480 0
DWIDTH 9 0
BBX 9 18 0 -3
BITMAP
0000
0000
0000
0000
0200
0200
0200
4200
4200
4200
4200
3E00
0200
0200
0300
0000
0000
0000
ENDCHAR
STARTCHAR ARMENIAN CAPITAL LETTER TIWN
ENCODING 1359
SWIDTH 480 0
DWIDTH 9 0
BBX 9 18 0 -3
BITMAP
0000
0000
0000
0000
3F00
4000
4000
4000
4000
3E00
0100
0100
0100
0100
7E00
0000
0000
0000
ENDCHAR
STARTCHAR ARMENIAN CAPITAL LETTER REH
ENCODING 1360
SWIDTH 480 0
DWIDTH 9 0
BBX 9 18 0 -3
BITMAP
0000
0000
0000
0000
3F00
4000
4000
4000
4000
4000
4000
4000
4000
4000
4000
0000
0000
0000
ENDCHAR
STARTCHAR ARMENIAN CAPITAL LETTER CO
ENCODING 1361
SWIDTH 480 0
DWIDTH 9 0
BBX 9 18 0 -3
BITMAP
0000
0000
0000
0000
3E00
4100
4100
4100
4100
7E00
0100
0100
0100
0100
7E00
0000
0000
0000
ENDCHAR
STARTCHAR ARMENIAN CAPITAL LETTER YIWN
ENCODING 1362
SWIDTH 480 0
DWIDTH 9 0
BBX 9 18 0 -3
BITMAP
0000
0000
0000
0000
4000
4000
4000
4000
7F00
4000
4000
4000
4000
4000
4000
0000
0000
0000
ENDCHAR
STARTCHAR ARMENIAN CAPITAL LETTER PIWR
ENCODING 1363
SWIDTH 480 0
DWIDTH 9 0
BBX 9 18 0 -3
BITMAP
0000
0000
0000
0000
0800
3E00
4900
4900
4900
4900
4900
4900
4900
3E00
0800
0000
0000
0000
ENDCHAR
STARTCHAR ARMENIAN CAPITAL LETTER KEH
ENCODING 1364
SWIDTH 480 0
DWIDTH 9 0
BBX 9 18 0 -3
BITMAP
0000
0000
0000
0000
1E00
2100
2100
2100
2100
3E00
2000
2000
7F00
2000
2000
0000
0000
0000
ENDCHAR
STARTCHAR ARMENIAN CAPITAL LETTER OH
ENCODING 1365
SWIDTH 480 0
DWIDTH 9 0
BBX 9 18 0 -3
BITMAP
0000
0000
0000
0000
3E00
4100
4100
4100
4100
4100
4100
4100
4100
4100
3E00
0000
0000
0000
ENDCHAR
STARTCHAR ARMENIAN CAPITAL LETTER FEH
ENCODING 1366
SWIDTH 480 0
DWIDTH 9 0
BBX 9 18 0 -3
BITMAP
0000
0000
0000
0000
3800
4800
4800
4800
4800
3E00
0900
0900
0900
0900
7E00
0000
0000
0000
ENDCHAR
STARTCHAR ARMENIAN MODIFIER LETTER LEFT HALF RING
ENCODING 1369
SWIDTH 480 0
DWIDTH 9 0
BBX 9 18 0 -3
BITMAP
0000
0800
1000
0800
0000
0000
0000
0000
0000
0000
0000
0000
0000
0000
0000
0000
0000
0000
ENDCHAR
STARTCHAR ARMENIAN APOSTROPHE
ENCODING 1370
SWIDTH 480 0
DWIDTH 9 0
BBX 9 18 0 -3
BITMAP
0000
0000
0000
0000
0800
0800
1000
0000
0000
0000
0000
0000
0000
0000
0000
0000
0000
0000
ENDCHAR
STARTCHAR ARMENIAN EMPHASIS MARK
ENCODING 1371
SWIDTH 480 0
DWIDTH 9 0
BBX 9 18 0 -3
BITMAP
0200
0400
0800
0000
0000
0000
0000
0000
0000
0000
0000
0000
0000
0000
0000
0000
0000
0000
ENDCHAR
STARTCHAR ARMENIAN EXCLAMATION MARK
ENCODING 1372
SWIDTH 480 0
DWIDTH 9 0
BBX 9 18 0 -3
BITMAP
0000
0000
0000
0000
0200
1C00
2000
0000
0000
0000
0000
0000
0000
0000
0000
0000
0000
0000
ENDCHAR
STARTCHAR ARMENIAN COMMA
ENCODING 1373
SWIDTH 480 0
DWIDTH 9 0
BBX 9 18 0 -3
BITMAP
0000
0000
0000
0000
1000
0800
0400
0000
0000
0000
0000
0000
0000
0000
0000
0000
0000
0000
ENDCHAR
STARTCHAR ARMENIAN QUESTION MARK
ENCODING 1374
SWIDTH 480 0
DWIDTH 9 0
BBX 9 18 0 -3
BITMAP
0000
0000
0000
0000
1C00
2200
2C00
0000
0000
0000
0000
0000
0000
0000
0000
0000
0000
0000
ENDCHAR
STARTCHAR ARMENIAN ABBREVIATION MARK
ENCODING 1375
SWIDTH 480 0
DWIDTH 9 0
BBX 9 18 0 -3
BITMAP
0000
0000
0000
0000
2000
3E00
0000
0000
0000
0000
0000
0000
0000
0000
0000
0000
0000
0000
ENDCHAR
STARTCHAR ARMENIAN SMALL LETTER AYB
ENCODING 1377
SWIDTH 480 0
DWIDTH 9 0
BBX 9 18 0 -3
BITMAP
0000
0000
0000
0000
0000
0000
0000
0000
4900
4900
4900
4900
4900
4900
3700
0000
0000
0000
ENDCHAR
STARTCHAR ARMENIAN SMALL LETTER BEN
ENCODING 1378
SWIDTH 480 0
DWIDTH 9 0
BBX 9 18 0 -3
BITMAP
0000
0000
0000
0000
0000
0000
0000
0000
7E00
4100
4100
4000
4000
4000
7F00
4000
4000
4000
ENDCHAR
STARTCHAR ARMENIAN SMALL LETTER GIM
ENCODING 1379
SWIDTH 480 0
DWIDTH 9 0
BBX 9 18 0 -3
BITMAP
0000
0000
0000
0000
0000
0000
0000
0000
3C00
4400
4400
4400
4400
4400
3F00
0400
0400
0400
ENDCHAR
STARTCHAR ARMENIAN SMALL LETTER DA
ENCODING 1380
SWIDTH 480 0
DWIDTH 9 0
BBX 9 18 0 -3
BITMAP
0000
0000
0000
0000
0000
0000
0000
0000
7C00
4200
4200
4200
4200
4200
4300
0200
0200
0200
ENDCHAR
STARTCHAR ARMENIAN SMALL LETTER ECH
ENCODING 1381
SWIDTH 480 0
DWIDTH 9 0
BBX 9 18 0 -3
BITMAP
0000
0000
0000
4000
4000
4000
4000
4000
7F00
4000
4000
4100
4100
4100
3F00
0000
0000
0000
ENDCHAR
STARTCHAR ARMENIAN SMALL LETTER ZA
ENCODING 1382
SWIDTH 480 0
DWIDTH 9 0
BBX 9 18 0 -3
BITMAP
0000
0000
0000
0000
0000
0000
0000
0000
3C00
4400
4400
4400
4400
4400
3C00
0400
0400
0700
ENDCHAR
STARTCHAR ARMENIAN SMALL LETTER EH
ENCODING 1383
SWIDTH 480 0
DWIDTH 9 0
BBX 9 18 0 -3
BITMAP
0000
0000
0000
4000
4000
4000
4000
4000
7F00
4000
4000
4000
4000
4000
7C00
0000
0000
0000
ENDCHAR
STARTCHAR ARMENIAN SMALL LETTER ET
ENCODING 1384
SWIDTH 480 0
DWIDTH 9 0
BBX 9 18 0 -3
BITMAP
0000
0000
0000
0000
0000
0000
0000
0000
7E00
4100
4100
4100
4100
4100
4100
4000
4000
7F00
ENDCHAR
STARTCHAR ARMENIAN SMALL LETTER TO
ENCODING 1385
SWIDTH 480 0
DWIDTH 9 0
BBX 9 18 0 -3
BITMAP
0000
0000
0000
0000
0000
0000
0000
0000
7E00
4100
4F00
5100
5100
5100
4E00
4000
4000
4000
ENDCHAR
STARTCHAR ARMENIAN SMALL LETTER ZHE
ENCODING 1386
SWIDTH 480 0
DWIDTH 9 0
BBX 9 18 0 -3
BITMAP
0000
0000
0000
0400
0400
0400
0400
0400
3F00
4400
4400
4400
4400
4400
3800
0000
0000
0000
ENDCHAR
STARTCHAR ARMENIAN SMALL LETTER INI
ENCODING 1387
SWIDTH 480 0
DWIDTH 9 0
BBX 9 18 0 -3
BITMAP
0000
0000
0000
4000
4000
4000
4000
4000
7E00
4100
4100
4100
4100
4100
4100
4000
4000
4000
ENDCHAR
STARTCHAR ARMENIAN SMALL LETTER LIWN
ENCODING 1388
SWIDTH 480 0
DWIDTH 9 0
BBX 9 18 0 -3
BITMAP
0000
0000
0000
0000
0000
0000
0000
0000
1000
1000
1000
1000
1000
1000
1000
1000
1000
1C00
ENDCHAR
STARTCHAR ARMENIAN SMALL LETTER XEH
ENCODING 1389
SWIDTH 480 0
DWIDTH 9 0
BBX 9 18 0 -3
BITMAP
0000
0000
0000
4000
4000
4000
4000
4000
7100
4900
4900
4900
4900
4900
4600
4000
4000
4000
ENDCHAR
STARTCHAR ARMENIAN SMALL LETTER CA
ENCODING 1390
SWIDTH 480 0
DWIDTH 9 0
BBX 9 18 0 -3
BITMAP
0000
0000
0000
3000
4000
4000
2000
1000
3F00
4400
4200
4100
4100
4100
3E00
0000
0000
0000
ENDCHAR
STARTCHAR ARMENIAN SMALL LETTER KEN
ENCODING 1391
SWIDTH 480 0
DWIDTH 9 0
BBX 9 18 0 -3
BITMAP
0000
0000
0000
4000
4000
4000
4000
4000
4100
4100
4100
4100
4100
4100
3F00
0100
0100
0100
ENDCHAR
STARTCHAR ARMENIAN SMALL LETTER HO
ENCODING 1392
SWIDTH 480 0
DWIDTH 9 0
BBX 9 18 0 -3
BITMAP
0000
0000
0000
4000
4000
4000
4000
4000
7E00
4100
4100
4100
4100
4100
4100
0000
0000
0000
ENDCHAR
STARTCHAR ARMENIAN SMALL LETTER JA
ENCODING 1393
SWIDTH 480 0
DWIDTH 9 0
BBX 9 18 0 -3
BITMAP
0000
0000
0000
1000
2000
1800
0400
0800
3E00
4100
4100
4100
4100
4100
3F00
0000
0000
0000
ENDCHAR
STARTCHAR ARMENIAN SMALL LETTER GHAD
ENCODING 1394
SWIDTH 480 0
DWIDTH 9 0
BBX 9 18 0 -3
BITMAP
0000
0000
0000
0000
0000
0000
0000
0000
7C00
4200
4200
4200
4200
4200
4200
0200
0200
0300
ENDCHAR
STARTCHAR ARMENIAN SMALL LETTER CHEH
ENCODING 1395
SWIDTH 480 0
DWIDTH 9 0
BBX 9 18 0 -3
BITMAP
0000
0000
0000
0700
0800
0800
1000
1000
7E00
2100
2100
4100
4100
4300
3D00
0000
0000
0000
ENDCHAR
STARTCHAR ARMENIAN SMALL LETTER MEN
ENCODING 1396
SWIDTH 480 0
DWIDTH 9 0
BBX 9 18 0 -3
BITMAP
0000
0000
0000
0300
0200
0200
0200
0200
4200
4200
4200
4200
4200
4200
3E00
0000
0000
0000
ENDCHAR
STARTCHAR ARMENIAN SMALL LETTER YI
ENCODING 1397
SWIDTH 480 0
DWIDTH 9 0
BBX 9 18 0 -3
BITMAP
0000
0000
0000
0000
0000
0000
0000
0000
0800
0800
0800
0800
0800
0800
0800
0800
0800
1000
ENDCHAR
STARTCHAR ARMENIAN SMALL LETTER NOW
ENCODING 1398
SWIDTH 480 0
DWIDTH 9 0
BBX 9 18 0 -3
BITMAP
0000
0000
0000
6000
2000
2000
2000
2000
2100
2100
2100
2100
2100
2100
1F00
0000
0000
0000
ENDCHAR
STARTCHAR ARMENIAN SMALL LETTER SHA
ENCODING 1399
SWIDTH 480 0
DWIDTH 9 0
BBX 9 18 0 -3
BITMAP
0000
0000
0000
0000
0000
0000
0000
0000
7E00
0100
0100
0100
0200
0400
0800
1000
2000
7F00
ENDCHAR
STARTCHAR ARMENIAN SMALL LETTER VO
ENCODING 1400
SWIDTH 480 0
DWIDTH 9 0
BBX 9 18 0 -3
BITMAP
0000
0000
0000
0000
0000
0000
0000
0000
7E00
4100
4100
4100
4100
4100
4100
0000
0000
0000
ENDCHAR
STARTCHAR ARMENIAN SMALL LETTER CHA
ENCODING 1401
SWIDTH 480 0
DWIDTH 9 0
BBX 9 18 0 -3
BITMAP
0000
0000
0000
0000
0000
0000
2000
4000
3F00
0100
0200
0400
0800
1000
2000
4000
4000
7F00
ENDCHAR
STARTCHAR ARMENIAN SMALL LETTER PEH
ENCODING 1402
SWIDTH 480 0
DWIDTH 9 0
BBX 9 18 0 -3
BITMAP
0000
0000
0000
0000
0000
0000
0000
0000
4900
4900
4900
4900
4900
4900
3700
0100
0100
0100
ENDCHAR
STARTCHAR ARMENIAN SMALL LETTER JHEH
ENCODING 1403
SWIDTH 480 0
DWIDTH 9 0
BBX 9 18 0 -3
BITMAP
0000
0000
0000
0000
0000
0000
0000
0000
3E00
4100
4100
4100
2200
1400
0800
1000
2000
7F00
ENDCHAR
STARTCHAR ARMENIAN SMALL LETTER RA
ENCODING 1404
SWIDTH 480 0
DWIDTH 9 0
BBX 9 18 0 -3
BITMAP
0000
0000
0000
0000
0000
0000
0000
0000
7E00
4100
4100
4100
4200
4400
4F00
0000
0000
0000
ENDCHAR
STARTCHAR ARMENIAN SMALL LETTER SEH
ENCODING 1405
SWIDTH 480 0
DWIDTH 9 0
BBX 9 18 0 -3
BITMAP
0000
0000
0000
0000
0000
0000
0000
0000
4100
4100
4100
4100
4100
4100
3F00
0000
0000
0000
ENDCHAR
STARTCHAR ARMENIAN SMALL LETTER VEW
ENCODING 1406
SWIDTH 480 0
DWIDTH 9 0
BBX 9 18 0 -3
BITMAP
0000
0000
0000
0200
0200
0200
0200
0200
4200
4200
4200
4200
4200
4200
3E00
0200
0300
0000
ENDCHAR
STARTCHAR ARMENIAN SMALL LETTER TIWN
ENCODING 1407
SWIDTH 480 0
DWIDTH 9 0
BBX 9 18 0 -3
BITMAP
0000
0000
0000
0000
0000
0000
0000
0000
4E00
4900
4900
4900
4900
4900
3900
0000
0000
0000
ENDCHAR
STARTCHAR ARMENIAN SMALL LETTER REH
ENCODING 1408
SWIDTH 480 0
DWIDTH 9 0
BBX 9 18 0 -3
BITMAP
0000
0000
0000
0000
0000
0000
0000
0000
7E00
4100
4100
4100
4100
4100
4100
4000
4000
4000
ENDCHAR
STARTCHAR ARMENIAN SMALL LETTER CO
ENCODING 1409
SWIDTH 480 0
DWIDTH 9 0
BBX 9 18 0 -3
BITMAP
0000
0000
0000
0000
0000
0000
0000
0000
3F00
4100
4100
4100
4100
4100
3F00
0100
0100
3E00
ENDCHAR
STARTCHAR ARMENIAN SMALL LETTER YIWN
ENCODING 1410
SWIDTH 480 0
DWIDTH 9 0
BBX 9 18 0 -3
BITMAP
0000
0000
0000
0000
0000
0000
0000
0000
2000
2000
2000
2000
2000
2000
3E00
0000
0000
0000
ENDCHAR
STARTCHAR ARMENIAN SMALL LETTER PIWR
ENCODING 1411
SWIDTH 480 0
DWIDTH 9 0
BBX 9 18 0 -3
BITMAP
0000
0000
0000
0000
0000
0800
0800
0800
4E00
4900
4900
4900
4900
4900
3900
0800
0800
0800
ENDCHAR
STARTCHAR ARMENIAN SMALL LETTER KEH
ENCODING 1412
SWIDTH 480 0
DWIDTH 9 0
BBX 9 18 0 -3
BITMAP
0000
0000
0000
0000
0000
0000
0000
0000
1E00
1100
1100
1100
1100
1100
1E00
1000
1000
7F00
ENDCHAR
STARTCHAR ARMENIAN SMALL LETTER OH
ENCODING 1413
SWIDTH 480 0
DWIDTH 9 0
BBX 9 18 0 -3
BITMAP
0000
0000
0000
0000
0000
0000
0000
0000
3E00
4100
4100
4100
4100
4100
3E00
0000
0000
0000
ENDCHAR
STARTCHAR ARMENIAN SMALL LETTER FEH
ENCODING 1414
SWIDTH 480 0
DWIDTH 9 0
BBX 9 18 0 -3
BITMAP
0000
0000
0000
0000
3800
4800
4800
4800
4800
3E00
0900
0900
0900
0900
7E00
0800
0800
0800
ENDCHAR
STARTCHAR ARMENIAN SMALL LIGATURE ECH YIWN
ENCODING 1415
SWIDTH 480 0
DWIDTH 9 0
BBX 9 18 0 -3
BITMAP
0000
0000
0000
0000
4000
4000
4000
4000
4800
4800
4800
4800
4800
4800
3F00
0000
0000
0000
ENDCHAR
STARTCHAR ARMENIAN FULL STOP
ENCODING 1417
SWIDTH 480 0
DWIDTH 9 0
BBX 9 18 0 -3
BITMAP
0000
0000
0000
0000
0000
0000
0000
0000
0800
0000
0000
0000
0000
0000
0800
0000
0000
0000
ENDCHAR
STARTCHAR ARMENIAN HYPHEN
ENCODING 1418
SWIDTH 480 0
DWIDTH 9 0
BBX 9 18 0 -3
BITMAP
0000
0000
0000
0000
0000
0000
0000
0000
0000
0000
4100
2200
1C00
0000
0000
0000
0000
0000
ENDCHAR
STARTCHAR RIGHT-FACING ARMENIAN ETERNITY SIGN
ENCODING 1421
SWIDTH 480 0
DWIDTH 9 0
BBX 9 18 0 -3
BITMAP
0000
0000
0000
0000
0000
0000
7F00
9080
9080
9F80
9480
FC80
8480
8480
7F00
0000
0000
0000
ENDCHAR
STARTCHAR LEFT-FACING ARMENIAN ETERNITY SIGN
ENCODING 1422
SWIDTH 480 0
DWIDTH 9 0
BBX 9 18 0 -3
BITMAP
0000
0000
0000
0000
0000
0000
7F00
8480
8480
FC80
9480
9F80
9080
9080
7F00
0000
0000
0000
ENDCHAR
STARTCHAR ARMENIAN DRAM SIGN
ENCODING 1423
SWIDTH 480 0
DWIDTH 9 0
BBX 9 18 0 -3
BITMAP
0000
0000
0000
0000
7800
0400
0400
0400
0400
1F00
0400
0400
1F00
0400
0400
0000
0000
0000
ENDCHAR
STARTCHAR HEBREW LETTER ALEF
ENCODING 1488
SWIDTH 480 0
DWIDTH 9 0
BBX 9 18 0 -3
BITMAP
0000
0000
0000
0000
0000
0000
0000
0000
4100
2100
1100
2A00
4400
4200
4100
0000
0000
0000
ENDCHAR
STARTCHAR HEBREW LETTER BET
ENCODING 1489
SWIDTH 480 0
DWIDTH 9 0
BBX 9 18 0 -3
BITMAP
0000
0000
0000
0000
0000
0000
0000
0000
7C00
0200
0200
0200
0200
0200
7F00
0000
0000
0000
ENDCHAR
STARTCHAR HEBREW LETTER GIMEL
ENCODING 1490
SWIDTH 480 0
DWIDTH 9 0
BBX 9 18 0 -3
BITMAP
0000
0000
0000
0000
0000
0000
0000
0000
7C00
0200
0200
0200
0200
0200
7D00
0000
0000
0000
ENDCHAR
STARTCHAR HEBREW LETTER DALET
ENCODING 1491
SWIDTH 480 0
DWIDTH 9 0
BBX 9 18 0 -3
BITMAP
0000
0000
0000
0000
0000
0000
0000
0000
7F00
0400
0400
0400
0400
0400
0400
0000
0000
0000
ENDCHAR
STARTCHAR HEBREW LETTER HE
ENCODING 1492
SWIDTH 480 0
DWIDTH 9 0
BBX 9 18 0 -3
BITMAP
0000
0000
0000
0000
0000
0000
0000
0000
7E00
0100
0100
4100
4100
4100
4100
0000
0000
0000
ENDCHAR
STARTCHAR HEBREW LETTER VAV
ENCODING 1493
SWIDTH 480 0
DWIDTH 9 0
BBX 9 18 0 -3
BITMAP
0000
0000
0000
0000
0000
0000
0000
0000
0800
0800
0800
0800
0800
0800
0800
0000
0000
0000
ENDCHAR
STARTCHAR HEBREW LETTER ZAYIN
ENCODING 1494
SWIDTH 480 0
DWIDTH 9 0
BBX 9 18 0 -3
BITMAP
0000
0000
0000
0000
0000
0000
0000
0000
7F00
0100
0200
0400
0800
0800
0800
0000
0000
0000
ENDCHAR
STARTCHAR HEBREW LETTER HET
ENCODING 1495
SWIDTH 480 0
DWIDTH 9 0
BBX 9 18 0 -3
BITMAP
0000
0000
0000
0000
0000
0000
0000
0000
7E00
4100
4100
4100
4100
4100
4100
0000
0000
0000
ENDCHAR
STARTCHAR HEBREW LETTER TET
ENCODING 1496
SWIDTH 480 0
DWIDTH 9 0
BBX 9 18 0 -3
BITMAP
0000
0000
0000
0000
0000
0000
0000
0000
4E00
4100
4100
4100
4100
4100
3E00
0000
0000
0000
ENDCHAR
STARTCHAR HEBREW LETTER YOD
ENCODING 1497
SWIDTH 480 0
DWIDTH 9 0
BBX 9 18 0 -3
BITMAP
0000
0000
0000
0000
0000
0000
0000
0000
0800
0800
0800
0800
0000
0000
0000
0000
0000
0000
ENDCHAR
STARTCHAR HEBREW LETTER FINAL KAF
ENCODING 1498
SWIDTH 480 0
DWIDTH 9 0
BBX 9 18 0 -3
BITMAP
0000
0000
0000
0000
0000
0000
0000
0000
7E00
0100
0100
0100
0100
0100
0100
0100
0100
0100
ENDCHAR
STARTCHAR HEBREW LETTER KAF
ENCODING 1499
SWIDTH 480 0
DWIDTH 9 0
BBX 9 18 0 -3
BITMAP
0000
0000
0000
0000
0000
0000
0000
0000
7E00
0100
0100
0100
0100
0100
7E00
0000
0000
0000
ENDCHAR
STARTCHAR HEBREW LETTER LAMED
ENCODING 1500
SWIDTH 480 0
DWIDTH 9 0
BBX 9 18 0 -3
BITMAP
0000
0000
0000
0000
0000
0000
0000
4000
7F00
0100
0200
0400
0800
1000
2000
0000
0000
0000
ENDCHAR
STARTCHAR HEBREW LETTER FINAL MEM
ENCODING 1501
SWIDTH 480 0
DWIDTH 9 0
BBX 9 18 0 -3
BITMAP
0000
0000
0000
0000
0000
0000
0000
0000
7E00
4100
4100
4100
4100
4100
7F00
0000
0000
0000
ENDCHAR
STARTCHAR HEBREW LETTER MEM
ENCODING 1502
SWIDTH 480 0
DWIDTH 9 0
BBX 9 18 0 -3
BITMAP
0000
0000
0000
0000
0000
0000
0000
0000
4E00
3100
1100
2100
2100
4100
5F00
0000
0000
0000
ENDCHAR
STARTCHAR HEBREW LETTER FINAL NUN
ENCODING 1503
SWIDTH 480 0
DWIDTH 9 0
BBX 9 18 0 -3
BITMAP
0000
0000
0000
0000
0000
0000
0000
0000
0800
0800
0800
0800
0800
0800
0800
0800
0800
0800
ENDCHAR
STARTCHAR HEBREW LETTER NUN
ENCODING 1504
SWIDTH 480 0
DWIDTH 9 0
BBX 9 18 0 -3
BITMAP
0000
0000
0000
0000
0000
0000
0000
0000
7E00
0100
0100
0100
0100
0100
7F00
0000
0000
0000
ENDCHAR
STARTCHAR HEBREW LETTER SAMEKH
ENCODING 1505
SWIDTH 480 0
DWIDTH 9 0
BBX 9 18 0 -3
BITMAP
0000
0000
0000
0000
0000
0000
0000
0000
7E00
4100
4100
4100
4100
4100
3E00
0000
0000
0000
ENDCHAR
STARTCHAR HEBREW LETTER AYIN
ENCODING 1506
SWIDTH 480 0
DWIDTH 9 0
BBX 9 18 0 -3
BITMAP
0000
0000
0000
0000
0000
0000
0000
0000
4100
4100
2100
2100
1100
1100
7E00
0000
0000
0000
ENDCHAR
STARTCHAR HEBREW LETTER FINAL PE
ENCODING 1507
SWIDTH 480 0
DWIDTH 9 0
BBX 9 18 0 -3
BITMAP
0000
0000
0000
0000
0000
0000
0000
0000
7E00
4100
4100
3900
0100
0100
0100
0100
0100
0100
ENDCHAR
STARTCHAR HEBREW LETTER PE
ENCODING 1508
SWIDTH 480 0
DWIDTH 9 0
BBX 9 18 0 -3
BITMAP
0000
0000
0000
0000
0000
0000
0000
0000
7E00
4100
4100
3900
0100
0100
7E00
0000
0000
0000
ENDCHAR
STARTCHAR HEBREW LETTER FINAL TSADI
ENCODING 1509
SWIDTH 480 0
DWIDTH 9 0
BBX 9 18 0 -3
BITMAP
0000
0000
0000
0000
0000
0000
0000
0000
4100
2100
1100
0E00
0800
0800
0800
0800
0800
0800
ENDCHAR
STARTCHAR HEBREW LETTER TSADI
ENCODING 1510
SWIDTH 480 0
DWIDTH 9 0
BBX 9 18 0 -3
BITMAP
0000
0000
0000
0000
0000
0000
0000
0000
4100
2100
1100
0A00
0400
0400
7F00
0000
0000
0000
ENDCHAR
STARTCHAR HEBREW LETTER QOF
ENCODING 1511
SWIDTH 480 0
DWIDTH 9 0
BBX 9 18 0 -3
BITMAP
0000
0000
0000
0000
0000
0000
0000
0000
7F00
0100
0100
0100
4200
4400
4800
4000
4000
4000
ENDCHAR
STARTCHAR HEBREW LETTER RESH
ENCODING 1512
SWIDTH 480 0
DWIDTH 9 0
BBX 9 18 0 -3
BITMAP
0000
0000
0000
0000
0000
0000
0000
0000
7E00
0100
0100
0100
0100
0100
0100
0000
0000
0000
ENDCHAR
STARTCHAR HEBREW LETTER SHIN
ENCODING 1513
SWIDTH 480 0
DWIDTH 9 0
BBX 9 18 0 -3
BITMAP
0000
0000
0000
0000
0000
0000
0000
0000
4900
4900
4900
4900
7100
4100
7E00
0000
0000
0000
ENDCHAR
STARTCHAR HEBREW LETTER TAV
ENCODING 1514
SWIDTH 480 0
DWIDTH 9 0
BBX 9 18 0 -3
BITMAP
0000
0000
0000
0000
0000
0000
0000
0000
7E00
1100
1100
1100
1100
1100
6100
0000
0000
0000
ENDCHAR
STARTCHAR KANNADA LETTER TTHA
ENCODING 3232
SWIDTH 480 0
DWIDTH 9 0
BBX 9 18 0 -3
BITMAP
0000
0000
0000
0000
0000
0100
0100
0100
7E00
4100
4100
4900
4100
4100
3E00
0000
0000
0000
ENDCHAR
STARTCHAR GEORGIAN LETTER AN
ENCODING 4304
SWIDTH 480 0
DWIDTH 9 0
BBX 9 18 0 -3
BITMAP
0000
0000
0000
0000
0000
0000
0000
0800
0600
0100
0100
0100
0100
0100
7E00
0000
0000
0000
ENDCHAR
STARTCHAR GEORGIAN LETTER BAN
ENCODING 4305
SWIDTH 480 0
DWIDTH 9 0
BBX 9 18 0 -3
BITMAP
0000
0000
0000
7800
0800
0800
0800
0800
3600
4100
4100
4100
4100
4100
3E00
0000
0000
0000
ENDCHAR
STARTCHAR GEORGIAN LETTER GAN
ENCODING 4306
SWIDTH 480 0
DWIDTH 9 0
BBX 9 18 0 -3
BITMAP
0000
0000
0000
0000
0000
0000
0000
0000
3000
4800
0800
3600
4100
4100
4100
4100
4100
3E00
ENDCHAR
STARTCHAR GEORGIAN LETTER DON
ENCODING 4307
SWIDTH 480 0
DWIDTH 9 0
BBX 9 18 0 -3
BITMAP
0000
0000
0000
0000
0000
0000
0000
0000
3600
4900
4900
4900
4900
4900
2600
1000
6C00
0300
ENDCHAR
STARTCHAR GEORGIAN LETTER EN
ENCODING 4308
SWIDTH 480 0
DWIDTH 9 0
BBX 9 18 0 -3
BITMAP
0000
0000
0000
0000
0000
0000
0000
0000
7E00
0100
0100
0100
0100
0100
0100
0100
0100
7E00
ENDCHAR
STARTCHAR GEORGIAN LETTER VIN
ENCODING 4309
SWIDTH 480 0
DWIDTH 9 0
BBX 9 18 0 -3
BITMAP
0000
0000
0000
0000
0000
0000
0000
0000
7E00
0100
0100
0E00
0100
0100
0100
0100
0100
7E00
ENDCHAR
STARTCHAR GEORGIAN LETTER ZEN
ENCODING 4310
SWIDTH 480 0
DWIDTH 9 0
BBX 9 18 0 -3
BITMAP
0000
0000
0000
0000
3000
4900
4A00
3C00
0E00
0900
0900
0900
0900
0900
0600
0000
0000
0000
ENDCHAR
STARTCHAR GEORGIAN LETTER TAN
ENCODING 4311
SWIDTH 480 0
DWIDTH 9 0
BBX 9 18 0 -3
BITMAP
0000
0000
0000
0000
0000
0000
0000
0000
3600
4900
4900
4900
4900
4900
3100
0000
0000
0000
ENDCHAR
STARTCHAR GEORGIAN LETTER IN
ENCODING 4312
SWIDTH 480 0
DWIDTH 9 0
BBX 9 18 0 -3
BITMAP
0000
0000
0000
0000
0000
0000
0000
0000
3E00
4100
4100
4100
4100
4100
4100
0000
0000
0000
ENDCHAR
STARTCHAR GEORGIAN LETTER KAN
ENCODING 4313
SWIDTH 480 0
DWIDTH 9 0
BBX 9 18 0 -3
BITMAP
0000
0000
0000
0000
0000
0000
0000
0000
0100
0100
0100
0E00
0100
0100
0100
0100
0100
7E00
ENDCHAR
STARTCHAR GEORGIAN LETTER LAS
ENCODING 4314
SWIDTH 480 0
DWIDTH 9 0
BBX 9 18 0 -3
BITMAP
0000
0000
0000
0000
0000
0000
0000
0000
3E00
5500
5500
4100
4100
4100
2100
1000
6C00
0300
ENDCHAR
STARTCHAR GEORGIAN LETTER MAN
ENCODING 4315
SWIDTH 480 0
DWIDTH 9 0
BBX 9 18 0 -3
BITMAP
0000
0000
0000
3E00
4100
0100
0100
0100
3F00
4100
4100
4100
4100
4100
3E00
0000
0000
0000
ENDCHAR
STARTCHAR GEORGIAN LETTER NAR
ENCODING 4316
SWIDTH 480 0
DWIDTH 9 0
BBX 9 18 0 -3
BITMAP
0000
0000
0000
7F00
4000
4000
4000
4000
7E00
4100
4100
4100
4100
4100
3E00
0000
0000
0000
ENDCHAR
STARTCHAR GEORGIAN LETTER ON
ENCODING 4317
SWIDTH 480 0
DWIDTH 9 0
BBX 9 18 0 -3
BITMAP
0000
0000
0000
0000
0000
0000
0000
0000
3600
4900
4900
4900
4900
4900
4100
0000
0000
0000
ENDCHAR
STARTCHAR GEORGIAN LETTER PAR
ENCODING 4318
SWIDTH 480 0
DWIDTH 9 0
BBX 9 18 0 -3
BITMAP
0000
0000
0000
4000
3E00
0100
0100
0100
0100
0E00
0100
0100
0100
0100
7E00
0000
0000
0000
ENDCHAR
STARTCHAR GEORGIAN LETTER ZHAR
ENCODING 4319
SWIDTH 480 0
DWIDTH 9 0
BBX 9 18 0 -3
BITMAP
0000
0000
0000
0000
0000
0000
0000
0000
0100
0F00
0900
4900
3100
0100
0100
0100
0100
7E00
ENDCHAR
STARTCHAR GEORGIAN LETTER RAE
ENCODING 4320
SWIDTH 480 0
DWIDTH 9 0
BBX 9 18 0 -3
BITMAP
0000
0000
0000
0400
1800
2000
4000
4000
7600
4900
4900
4900
4900
4900
4100
0000
0000
0000
ENDCHAR
STARTCHAR GEORGIAN LETTER SAN
ENCODING 4321
SWIDTH 480 0
DWIDTH 9 0
BBX 9 18 0 -3
BITMAP
0000
0000
0000
4000
4000
4000
4000
4000
4100
4200
4100
4100
4100
4100
3E00
0000
0000
0000
ENDCHAR
STARTCHAR GEORGIAN LETTER TAR
ENCODING 4322
SWIDTH 480 0
DWIDTH 9 0
BBX 9 18 0 -3
BITMAP
0000
0000
0000
0000
0000
0000
0000
0000
1C00
2200
2200
6300
5D00
4900
4900
4100
4100
3E00
ENDCHAR
STARTCHAR GEORGIAN LETTER UN
ENCODING 4323
SWIDTH 480 0
DWIDTH 9 0
BBX 9 18 0 -3
BITMAP
0000
0000
0000
0000
0000
0000
0000
0000
1600
6900
0900
0900
0900
0900
0100
0100
0100
7E00
ENDCHAR
STARTCHAR GEORGIAN LETTER PHAR
ENCODING 4324
SWIDTH 480 0
DWIDTH 9 0
BBX 9 18 0 -3
BITMAP
0000
0000
0000
0000
0000
0000
0000
0000
3600
4900
4900
4900
4900
4900
3100
0100
0100
7E00
ENDCHAR
STARTCHAR GEORGIAN LETTER KHAR
ENCODING 4325
SWIDTH 480 0
DWIDTH 9 0
BBX 9 18 0 -3
BITMAP
0000
0000
0000
0100
0300
0500
0100
0100
7F00
0100
0100
0100
0100
0100
0100
0100
0100
7E00
ENDCHAR
STARTCHAR GEORGIAN LETTER GHAN
ENCODING 4326
SWIDTH 480 0
DWIDTH 9 0
BBX 9 18 0 -3
BITMAP
0000
0000
0000
0000
0000
0000
0000
0000
3600
4900
4900
4900
4900
4900
2100
1000
6C00
0300
ENDCHAR
STARTCHAR GEORGIAN LETTER QAR
ENCODING 4327
SWIDTH 480 0
DWIDTH 9 0
BBX 9 18 0 -3
BITMAP
0000
0000
0000
0000
0000
0000
0000
0000
4100
4100
4100
4100
4100
3F00
0100
0100
0100
7E00
ENDCHAR
STARTCHAR GEORGIAN LETTER SHIN
ENCODING 4328
SWIDTH 480 0
DWIDTH 9 0
BBX 9 18 0 -3
BITMAP
0000
0000
0000
3600
4900
4900
0100
0100
3F00
4100
4100
4100
4100
4100
3E00
0000
0000
0000
ENDCHAR
STARTCHAR GEORGIAN LETTER CHIN
ENCODING 4329
SWIDTH 480 0
DWIDTH 9 0
BBX 9 18 0 -3
BITMAP
0000
0000
0000
3000
4800
4800
7000
4000
7E00
4100
4100
4100
4100
4100
4100
0000
0000
0000
ENDCHAR
STARTCHAR GEORGIAN LETTER CAN
ENCODING 4330
SWIDTH 480 0
DWIDTH 9 0
BBX 9 18 0 -3
BITMAP
0000
0000
0000
0000
0000
0000
0000
0000
5000
4C00
4200
4100
4100
4E00
4100
4100
4100
3E00
ENDCHAR
STARTCHAR GEORGIAN LETTER JIL
ENCODING 4331
SWIDTH 480 0
DWIDTH 9 0
BBX 9 18 0 -3
BITMAP
0000
0000
0000
0100
0100
0100
0100
0100
3F00
4100
4100
4100
4100
4100
3E00
0000
0000
0000
ENDCHAR
STARTCHAR GEORGIAN LETTER CIL
ENCODING 4332
SWIDTH 480 0
DWIDTH 9 0
BBX 9 18 0 -3
BITMAP
0000
0000
0000
3600
4900
4900
4000
4000
7F00
4100
2200
2200
1400
1400
0800
0000
0000
0000
ENDCHAR
STARTCHAR GEORGIAN LETTER CHAR
ENCODING 4333
SWIDTH 480 0
DWIDTH 9 0
BBX 9 18 0 -3
BITMAP
0000
0000
0000
0000
0200
0200
0200
0200
0200
3A00
4700
4200
4700
3A00
0200
0200
0200
7C00
ENDCHAR
STARTCHAR GEORGIAN LETTER XAN
ENCODING 4334
SWIDTH 480 0
DWIDTH 9 0
BBX 9 18 0 -3
BITMAP
0000
0000
0000
4000
4400
4800
5000
6000
7E00
4100
4100
4100
4100
4100
3E00
0000
0000
0000
ENDCHAR
STARTCHAR GEORGIAN LETTER JHAN
ENCODING 4335
SWIDTH 480 0
DWIDTH 9 0
BBX 9 18 0 -3
BITMAP
0000
0000
0000
0800
0800
0800
0800
0800
7F00
0800
0800
0400
0200
0100
0100
0100
0100
7E00
ENDCHAR
STARTCHAR GEORGIAN LETTER HAE
ENCODING 4336
SWIDTH 480 0
DWIDTH 9 0
BBX 9 18 0 -3
BITMAP
0000
0000
0000
4000
3E00
0100
0100
0E00
0100
0100
0E00
0100
0100
0100
7E00
0000
0000
0000
ENDCHAR
STARTCHAR GEORGIAN LETTER FI
ENCODING 4342
SWIDTH 480 0
DWIDTH 9 0
BBX 9 18 0 -3
BITMAP
0000
0000
0000
0800
0800
0800
3E00
4900
4900
4900
4900
4900
4900
4900
3E00
0800
0800
0800
ENDCHAR
STARTCHAR GEORGIAN LETTER YN
ENCODING 4343
SWIDTH 480 0
DWIDTH 9 0
BBX 9 18 0 -3
BITMAP
0000
0000
0000
0000
0000
0000
0000
0000
7E00
0100
0100
0100
3E00
4000
4000
4000
4000
3F00
ENDCHAR
STARTCHAR GEORGIAN LETTER ELIFI
ENCODING 4344
SWIDTH 480 0
DWIDTH 9 0
BBX 9 18 0 -3
BITMAP
0000
0000
0000
0000
0000
0000
0000
0000
4100
4100
4100
4100
4100
7E00
4000
4000
4000
3F00
ENDCHAR
STARTCHAR GEORGIAN LETTER TURNED GAN
ENCODING 4345
SWIDTH 480 0
DWIDTH 9 0
BBX 9 18 0 -3
BITMAP
0000
0000
0000
0000
0000
0000
0000
0000
3E00
4100
4100
4100
4100
4100
3600
0800
0900
0600
ENDCHAR
STARTCHAR GEORGIAN LETTER AIN
ENCODING 4346
SWIDTH 480 0
DWIDTH 9 0
BBX 9 18 0 -3
BITMAP
0000
0000
0000
0000
0000
0000
0000
0000
3E00
4100
4100
4100
4100
4100
2100
1000
6C00
0300
ENDCHAR
STARTCHAR GEORGIAN PARAGRAPH SEPARATOR
ENCODING 4347
SWIDTH 480 0
DWIDTH 9 0
BBX 9 18 0 -3
BITMAP
0000
0000
0000
0000
0000
0000
0000
0000
4000
0000
0000
0100
0000
0000
4000
0000
0000
0000
ENDCHAR
STARTCHAR MODIFIER LETTER GEORGIAN NAR
ENCODING 4348
SWIDTH 480 0
DWIDTH 9 0
BBX 9 18 0 -3
BITMAP
7F00
4000
4000
4000
4000
7E00
4100
4100
4100
4100
4100
3E00
0000
0000
0000
0000
0000
0000
ENDCHAR
STARTCHAR GEORGIAN LETTER AEN
ENCODING 4349
SWIDTH 480 0
DWIDTH 9 0
BBX 9 18 0 -3
BITMAP
0000
0000
0000
0000
3F00
4000
4000
4000
4000
3E00
0100
0100
0100
0100
7E00
0000
0000
0000
ENDCHAR
STARTCHAR GEORGIAN LETTER HARD SIGN
ENCODING 4350
SWIDTH 480 0
DWIDTH 9 0
BBX 9 18 0 -3
BITMAP
0000
0000
0000
0000
0000
0000
0000
0000
7700
0800
3600
4100
4100
4100
3E00
0000
0000
0000
ENDCHAR
STARTCHAR GEORGIAN LETTER LABIAL SIGN
ENCODING 4351
SWIDTH 480 0
DWIDTH 9 0
BBX 9 18 0 -3
BITMAP
0000
0000
0000
0000
0000
0000
0000
0000
3E00
4100
4100
4100
4100
4100
3E00
0000
0000
0000
ENDCHAR
STARTCHAR LATIN CAPITAL LETTER B WITH DOT ABOVE
ENCODING 7682
SWIDTH 480 0
DWIDTH 9 0
BBX 9 18 0 -3
BITMAP
0000
0800
0000
0000
7E00
4100
4100
4100
4100
7E00
4100
4100
4100
4100
7E00
0000
0000
0000
ENDCHAR
STARTCHAR LATIN SMALL LETTER B WITH DOT ABOVE
ENCODING 7683
SWIDTH 480 0
DWIDTH 9 0
BBX 9 18 0 -3
BITMAP
4000
0000
0000
4000
4000
4000
4000
4000
7E00
4100
4100
4100
4100
4100
7E00
0000
0000
0000
ENDCHAR
STARTCHAR LATIN CAPITAL LETTER D WITH DOT ABOVE
ENCODING 7690
SWIDTH 480 0
DWIDTH 9 0
BBX 9 18 0 -3
BITMAP
0000
0800
0000
0000
7E00
4100
4100
4100
4100
4100
4100
4100
4100
4100
7E00
0000
0000
0000
ENDCHAR
STARTCHAR LATIN SMALL LETTER D WITH DOT ABOVE
ENCODING 7691
SWIDTH 480 0
DWIDTH 9 0
BBX 9 18 0 -3
BITMAP
0100
0000
0000
0100
0100
0100
0100
0100
3F00
4100
4100
4100
4100
4100
3F00
0000
0000
0000
ENDCHAR
STARTCHAR LATIN CAPITAL LETTER F WITH DOT ABOVE
ENCODING 7710
SWIDTH 480 0
DWIDTH 9 0
BBX 9 18 0 -3
BITMAP
0000
0800
0000
0000
7F00
4000
4000
4000
4000
7800
4000
4000
4000
4000
4000
0000
0000
0000
ENDCHAR
STARTCHAR LATIN SMALL LETTER F WITH DOT ABOVE
ENCODING 7711
SWIDTH 480 0
DWIDTH 9 0
BBX 9 18 0 -3
BITMAP
0400
0000
0000
0E00
1000
1000
1000
1000
1C00
1000
1000
1000
1000
1000
1000
0000
0000
0000
ENDCHAR
STARTCHAR LATIN CAPITAL LETTER H WITH DOT BELOW
ENCODING 7716
SWIDTH 480 0
DWIDTH 9 0
BBX 9 18 0 -3
BITMAP
0000
0000
0000
0000
4100
4100
4100
4100
4100
7F00
4100
4100
4100
4100
4100
0000
0800
0000
ENDCHAR
STARTCHAR LATIN SMALL LETTER H WITH DOT BELOW
ENCODING 7717
SWIDTH 480 0
DWIDTH 9 0
BBX 9 18 0 -3
BITMAP
0000
0000
0000
4000
4000
4000
4000
4000
7E00
4100
4100
4100
4100
4100
4100
0000
0800
0000
ENDCHAR
STARTCHAR LATIN CAPITAL LETTER L WITH DOT BELOW
ENCODING 7734
SWIDTH 480 0
DWIDTH 9 0
BBX 9 18 0 -3
BITMAP
0000
0000
0000
0000
4000
4000
4000
4000
4000
4000
4000
4000
4000
4000
7F00
0000
0800
0000
ENDCHAR
STARTCHAR LATIN SMALL LETTER L WITH DOT BELOW
ENCODING 7735
SWIDTH 480 0
DWIDTH 9 0
BBX 9 18 0 -3
BITMAP
0000
0000
0000
1000
1000
1000
1000
1000
1000
1000
1000
1000
1000
1000
0E00
0000
0800
0000
ENDCHAR
STARTCHAR LATIN CAPITAL LETTER M WITH DOT ABOVE
ENCODING 7744
SWIDTH 480 0
DWIDTH 9 0
BBX 9 18 0 -3
BITMAP
0000
0800
0000
0000
4100
6300
5500
4900
4100
4100
4100
4100
4100
4100
4100
0000
0000
0000
ENDCHAR
STARTCHAR LATIN SMALL LETTER M WITH DOT ABOVE
ENCODING 7745
SWIDTH 480 0
DWIDTH 9 0
BBX 9 18 0 -3
BITMAP
0000
0000
0000
0000
0000
0800
0000
0000
7600
4900
4900
4900
4900
4900
4100
0000
0000
0000
ENDCHAR
STARTCHAR LATIN CAPITAL LETTER P WITH DOT ABOVE
ENCODING 7766
SWIDTH 480 0
DWIDTH 9 0
BBX 9 18 0 -3
BITMAP
0000
0800
0000
0000
7E00
4100
4100
4100
4100
4100
7E00
4000
4000
4000
4000
0000
0000
0000
ENDCHAR
STARTCHAR LATIN SMALL LETTER P WITH DOT ABOVE
ENCODING 7767
SWIDTH 480 0
DWIDTH 9 0
BBX 9 18 0 -3
BITMAP
0000
0000
0000
0000
0000
0800
0000
0000
7E00
4100
4100
4100
4100
4100
7E00
4000
4000
4000
ENDCHAR
STARTCHAR LATIN CAPITAL LETTER S WITH DOT ABOVE
ENCODING 7776
SWIDTH 480 0
DWIDTH 9 0
BBX 9 18 0 -3
BITMAP
0000
0800
0000
0000
3F00
4000
4000
4000
4000
3E00
0100
0100
0100
0100
7E00
0000
0000
0000
ENDCHAR
STARTCHAR LATIN SMALL LETTER S WITH DOT ABOVE
ENCODING 7777
SWIDTH 480 0
DWIDTH 9 0
BBX 9 18 0 -3
BITMAP
0000
0000
0000
0000
0000
0800
0000
0000
3F00
4000
4000
3E00
0100
0100
7E00
0000
0000
0000
ENDCHAR
STARTCHAR LATIN CAPITAL LETTER T WITH DOT ABOVE
ENCODING 7786
SWIDTH 480 0
DWIDTH 9 0
BBX 9 18 0 -3
BITMAP
0000
0800
0000
0000
7F00
0800
0800
0800
0800
0800
0800
0800
0800
0800
0800
0000
0000
0000
ENDCHAR
STARTCHAR LATIN SMALL LETTER T WITH DOT ABOVE
ENCODING 7787
SWIDTH 480 0
DWIDTH 9 0
BBX 9 18 0 -3
BITMAP
1000
0000
0000
1000
1000
1000
1000
1000
3C00
1000
1000
1000
1000
1000
0E00
0000
0000
0000
ENDCHAR
STARTCHAR LATIN CAPITAL LETTER W WITH GRAVE
ENCODING 7808
SWIDTH 480 0
DWIDTH 9 0
BBX 9 18 0 -3
BITMAP
2000
1000
0800
0000
4100
4100
4100
4100
4100
4100
4100
4900
5500
6300
4100
0000
0000
0000
ENDCHAR
STARTCHAR LATIN SMALL LETTER W WITH GRAVE
ENCODING 7809
SWIDTH 480 0
DWIDTH 9 0
BBX 9 18 0 -3
BITMAP
0000
0000
0000
2000
1000
0800
0000
0000
4100
4100
4100
4900
5500
6300
4100
0000
0000
0000
ENDCHAR
STARTCHAR LATIN CAPITAL LETTER W WITH ACUTE
ENCODING 7810
SWIDTH 480 0
DWIDTH 9 0
BBX 9 18 0 -3
BITMAP
0200
0400
0800
0000
4100
4100
4100
4100
4100
4100
4100
4900
5500
6300
4100
0000
0000
0000
ENDCHAR
STARTCHAR LATIN SMALL LETTER W WITH ACUTE
ENCODING 7811
SWIDTH 480 0
DWIDTH 9 0
BBX 9 18 0 -3
BITMAP
0000
0000
0000
0200
0400
0800
0000
0000
4100
4100
4100
4900
5500
6300
4100
0000
0000
0000
ENDCHAR
STARTCHAR LATIN CAPITAL LETTER W WITH DIAERESIS
ENCODING 7812
SWIDTH 480 0
DWIDTH 9 0
BBX 9 18 0 -3
BITMAP
0000
2200
0000
0000
4100
4100
4100
4100
4100
4100
4100
4900
5500
6300
4100
0000
0000
0000
ENDCHAR
STARTCHAR LATIN SMALL LETTER W WITH DIAERESIS
ENCODING 7813
SWIDTH 480 0
DWIDTH 9 0
BBX 9 18 0 -3
BITMAP
0000
0000
0000
0000
0000
2200
0000
0000
4100
4100
4100
4900
5500
6300
4100
0000
0000
0000
ENDCHAR
STARTCHAR LATIN CAPITAL LETTER X WITH DOT ABOVE
ENCODING 7818
SWIDTH 480 0
DWIDTH 9 0
BBX 9 18 0 -3
BITMAP
0000
0800
0000
0000
4100
4100
4100
2200
1400
0800
1400
2200
4100
4100
4100
0000
0000
0000
ENDCHAR
STARTCHAR LATIN SMALL LETTER X WITH DOT ABOVE
ENCODING 7819
SWIDTH 480 0
DWIDTH 9 0
BBX 9 18 0 -3
BITMAP
0000
0000
0000
0000
0000
0800
0000
0000
4100
2200
1400
0800
1400
2200
4100
0000
0000
0000
ENDCHAR
STARTCHAR LATIN CAPITAL LETTER A WITH DOT BELOW
ENCODING 7840
SWIDTH 480 0
DWIDTH 9 0
BBX 9 18 0 -3
BITMAP
0000
0000
0000
0000
3E00
4100
4100
4100
4100
4100
7F00
4100
4100
4100
4100
0000
0800
0000
ENDCHAR
STARTCHAR LATIN SMALL LETTER A WITH DOT BELOW
ENCODING 7841
SWIDTH 480 0
DWIDTH 9 0
BBX 9 18 0 -3
BITMAP
0000
0000
0000
0000
0000
0000
0000
0000
3E00
0100
0100
3F00
4100
4100
3F00
0000
0800
0000
ENDCHAR
STARTCHAR LATIN CAPITAL LETTER A WITH HOOK ABOVE
ENCODING 7842
SWIDTH 480 0
DWIDTH 9 0
BBX 9 18 0 -3
BITMAP
1800
0400
0800
0000
3E00
4100
4100
4100
4100
4100
7F00
4100
4100
4100
4100
0000
0000
0000
ENDCHAR
STARTCHAR LATIN SMALL LETTER A WITH HOOK ABOVE
ENCODING 7843
SWIDTH 480 0
DWIDTH 9 0
BBX 9 18 0 -3
BITMAP
0000
0000
0000
1800
0400
0800
0000
0000
3E00
0100
0100
3F00
4100
4100
3F00
0000
0000
0000
ENDCHAR
STARTCHAR LATIN CAPITAL LETTER A WITH CIRCUMFLEX AND ACUTE
ENCODING 7844
SWIDTH 480 0
DWIDTH 9 0
BBX 9 18 0 -3
BITMAP
2080
5100
8A00
0000
3E00
4100
4100
4100
4100
4100
7F00
4100
4100
4100
4100
0000
0000
0000
ENDCHAR
STARTCHAR LATIN SMALL LETTER A WITH CIRCUMFLEX AND ACUTE
ENCODING 7845
SWIDTH 480 0
DWIDTH 9 0
BBX 9 18 0 -3
BITMAP
0200
0400
0800
0000
0800
1400
2200
0000
3E00
0100
0100
3F00
4100
4100
3F00
0000
0000
0000
ENDCHAR
STARTCHAR LATIN CAPITAL LETTER A WITH CIRCUMFLEX AND GRAVE
ENCODING 7846
SWIDTH 480 0
DWIDTH 9 0
BBX 9 18 0 -3
BITMAP
8200
4500
2880
0000
3E00
4100
4100
4100
4100
4100
7F00
4100
4100
4100
4100
0000
0000
0000
ENDCHAR
STARTCHAR LATIN SMALL LETTER A WITH CIRCUMFLEX AND GRAVE
ENCODING 7847
SWIDTH 480 0
DWIDTH 9 0
BBX 9 18 0 -3
BITMAP
2000
1000
0800
0000
0800
1400
2200
0000
3E00
0100
0100
3F00
4100
4100
3F00
0000
0000
0000
ENDCHAR
STARTCHAR LATIN CAPITAL LETTER A WITH CIRCUMFLEX AND HOOK ABOVE
ENCODING 7848
SWIDTH 480 0
DWIDTH 9 0
BBX 9 18 0 -3
BITMAP
2300
5080
8900
0000
3E00
4100
4100
4100
4100
4100
7F00
4100
4100
4100
4100
0000
0000
0000
ENDCHAR
STARTCHAR LATIN SMALL LETTER A WITH CIRCUMFLEX AND HOOK ABOVE
ENCODING 7849
SWIDTH 480 0
DWIDTH 9 0
BBX 9 18 0 -3
BITMAP
1800
0400
0800
0000
0800
1400
2200
0000
3E00
0100
0100
3F00
4100
4100
3F00
0000
0000
0000
ENDCHAR
STARTCHAR LATIN CAPITAL LETTER A WITH CIRCUMFLEX AND TILDE
ENCODING 7850
SWIDTH 480 0
DWIDTH 9 0
BBX 9 18 0 -3
BITMAP
6400
9A00
0500
0880
3E00
4100
4100
4100
4100
4100
7F00
4100
4100
4100
4100
0000
0000
0000
ENDCHAR
STARTCHAR LATIN SMALL LETTER A WITH CIRCUMFLEX AND TILDE
ENCODING 7851
SWIDTH 480 0
DWIDTH 9 0
BBX 9 18 0 -3
BITMAP
3000
4900
0600
0000
0800
1400
2200
0000
3E00
0100
0100
3F00
4100
4100
3F00
0000
0000
0000
ENDCHAR
STARTCHAR LATIN CAPITAL LETTER A WITH CIRCUMFLEX AND DOT BELOW
ENCODING 7852
SWIDTH 480 0
DWIDTH 9 0
BBX 9 18 0 -3
BITMAP
0800
1400
2200
0000
3E00
4100
4100
4100
4100
4100
7F00
4100
4100
4100
4100
0000
0800
0000
ENDCHAR
STARTCHAR LATIN SMALL LETTER A WITH CIRCUMFLEX AND DOT BELOW
ENCODING 7853
SWIDTH 480 0
DWIDTH 9 0
BBX 9 18 0 -3
BITMAP
0000
0000
0000
0800
1400
2200
0000
0000
3E00
0100
0100
3F00
4100
4100
3F00
0000
0800
0000
ENDCHAR
STARTCHAR LATIN CAPITAL LETTER A WITH BREVE AND ACUTE
ENCODING 7854
SWIDTH 480 0
DWIDTH 9 0
BBX 9 18 0 -3
BITMAP
0400
0800
2200
1C00
3E00
4100
4100
4100
4100
4100
7F00
4100
4100
4100
4100
0000
0000
0000
ENDCHAR
STARTCHAR LATIN SMALL LETTER A WITH BREVE AND ACUTE
ENCODING 7855
SWIDTH 480 0
DWIDTH 9 0
BBX 9 18 0 -3
BITMAP
0200
0400
0800
0000
2200
2200
1C00
0000
3E00
0100
0100
3F00
4100
4100
3F00
0000
0000
0000
ENDCHAR
STARTCHAR LATIN CAPITAL LETTER A WITH BREVE AND GRAVE
ENCODING 7856
SWIDTH 480 0
DWIDTH 9 0
BBX 9 18 0 -3
BITMAP
1000
0800
2200
1C00
3E00
4100
4100
4100
4100
4100
7F00
4100
4100
4100
4100
0000
0000
0000
ENDCHAR
STARTCHAR LATIN SMALL LETTER A WITH BREVE AND GRAVE
ENCODING 7857
SWIDTH 480 0
DWIDTH 9 0
BBX 9 18 0 -3
BITMAP
2000
1000
0800
0000
2200
2200
1C00
0000
3E00
0100
0100
3F00
4100
4100
3F00
0000
0000
0000
ENDCHAR
STARTCHAR LATIN CAPITAL LETTER A WITH BREVE AND HOOK ABOVE
ENCODING 7858
SWIDTH 480 0
DWIDTH 9 0
BBX 9 18 0 -3
BITMAP
1800
0400
4900
3E00
3E00
4100
4100
4100
4100
4100
7F00
4100
4100
4100
4100
0000
0000
0000
ENDCHAR
STARTCHAR LATIN SMALL LETTER A WITH BREVE AND HOOK ABOVE
ENCODING 7859
SWIDTH 480 0
DWIDTH 9 0
BBX 9 18 0 -3
BITMAP
1800
0400
0800
0000
2200
2200
1C00
0000
3E00
0100
0100
3F00
4100
4100
3F00
0000
0000
0000
ENDCHAR
STARTCHAR LATIN CAPITAL LETTER A WITH BREVE AND TILDE
ENCODING 7860
SWIDTH 480 0
DWIDTH 9 0
BBX 9 18 0 -3
BITMAP
3200
4C00
2200
1C00
3E00
4100
4100
4100
4100
4100
7F00
4100
4100
4100
4100
0000
0000
0000
ENDCHAR
STARTCHAR LATIN SMALL LETTER A WITH BREVE AND TILDE
ENCODING 7861
SWIDTH 480 0
DWIDTH 9 0
BBX 9 18 0 -3
BITMAP
3000
4900
0600
0000
2200
2200
1C00
0000
3E00
0100
0100
3F00
4100
4100
3F00
0000
0000
0000
ENDCHAR
STARTCHAR LATIN CAPITAL LETTER A WITH BREVE AND DOT BELOW
ENCODING 7862
SWIDTH 480 0
DWIDTH 9 0
BBX 9 18 0 -3
BITMAP
2200
2200
1C00
0000
3E00
4100
4100
4100
4100
4100
7F00
4100
4100
4100
4100
0000
0800
0000
ENDCHAR
STARTCHAR LATIN SMALL LETTER A WITH BREVE AND DOT BELOW
ENCODING 7863
SWIDTH 480 0
DWIDTH 9 0
BBX 9 18 0 -3
BITMAP
0000
0000
0000
2200
2200
1C00
0000
0000
3E00
0100
0100
3F00
4100
4100
3F00
0000
0800
0000
ENDCHAR
STARTCHAR LATIN CAPITAL LETTER E WITH DOT BELOW
ENCODING 7864
SWIDTH 480 0
DWIDTH 9 0
BBX 9 18 0 -3
BITMAP
0000
0000
0000
0000
7F00
4000
4000
4000
4000
7800
4000
4000
4000
4000
7F00
0000
0800
0000
ENDCHAR
STARTCHAR LATIN SMALL LETTER E WITH DOT BELOW
ENCODING 7865
SWIDTH 480 0
DWIDTH 9 0
BBX 9 18 0 -3
BITMAP
0000
0000
0000
0000
0000
0000
0000
0000
3E00
4100
4100
7F00
4000
4000
3E00
0000
0800
0000
ENDCHAR
STARTCHAR LATIN CAPITAL LETTER E WITH HOOK ABOVE
ENCODING 7866
SWIDTH 480 0
DWIDTH 9 0
BBX 9 18 0 -3
BITMAP
1800
0400
0800
0000
7F00
4000
4000
4000
4000
7800
4000
4000
4000
4000
7F00
0000
0000
0000
ENDCHAR
STARTCHAR LATIN SMALL LETTER E WITH HOOK ABOVE
ENCODING 7867
SWIDTH 480 0
DWIDTH 9 0
BBX 9 18 0 -3
BITMAP
0000
0000
0000
1800
0400
0800
0000
0000
3E00
4100
4100
7F00
4000
4000
3E00
0000
0000
0000
ENDCHAR
STARTCHAR LATIN CAPITAL LETTER E WITH TILDE
ENCODING 7868
SWIDTH 480 0
DWIDTH 9 0
BBX 9 18 0 -3
BITMAP
3000
4900
0600
0000
7F00
4000
4000
4000
4000
7800
4000
4000
4000
4000
7F00
0000
0000
0000
ENDCHAR
STARTCHAR LATIN SMALL LETTER E WITH TILDE
ENCODING 7869
SWIDTH 480 0
DWIDTH 9 0
BBX 9 18 0 -3
BITMAP
0000
0000
0000
3000
4900
0600
0000
0000
3E00
4100
4100
7F00
4000
4000
3E00
0000
0000
0000
ENDCHAR
STARTCHAR LATIN CAPITAL LETTER E WITH CIRCUMFLEX AND ACUTE
ENCODING 7870
SWIDTH 480 0
DWIDTH 9 0
BBX 9 18 0 -3
BITMAP
2080
5100
8A00
0000
7F00
4000
4000
4000
4000
7800
4000
4000
4000
4000
7F00
0000
0000
0000
ENDCHAR
STARTCHAR LATIN SMALL LETTER E WITH CIRCUMFLEX AND ACUTE
ENCODING 7871
SWIDTH 480 0
DWIDTH 9 0
BBX 9 18 0 -3
BITMAP
0200
0400
0800
0000
0800
1400
2200
0000
3E00
4100
4100
7F00
4000
4000
3E00
0000
0000
0000
ENDCHAR
STARTCHAR LATIN CAPITAL LETTER E WITH CIRCUMFLEX AND GRAVE
ENCODING 7872
SWIDTH 480 0
DWIDTH 9 0
BBX 9 18 0 -3
BITMAP
8200
4500
2880
0000
7F00
4000
4000
4000
4000
7800
4000
4000
4000
4000
7F00
0000
0000
0000
ENDCHAR
STARTCHAR LATIN SMALL LETTER E WITH CIRCUMFLEX AND GRAVE
ENCODING 7873
SWIDTH 480 0
DWIDTH 9 0
BBX 9 18 0 -3
BITMAP
2000
1000
0800
0000
0800
1400
2200
0000
3E00
4100
4100
7F00
4000
4000
3E00
0000
0000
0000
ENDCHAR
STARTCHAR LATIN CAPITAL LETTER E WITH CIRCUMFLEX AND HOOK ABOVE
ENCODING 7874
SWIDTH 480 0
DWIDTH 9 0
BBX 9 18 0 -3
BITMAP
2300
5080
8900
0000
7F00
4000
4000
4000
4000
7800
4000
4000
4000
4000
7F00
0000
0000
0000
ENDCHAR
STARTCHAR LATIN SMALL LETTER E WITH CIRCUMFLEX AND HOOK ABOVE
ENCODING 7875
SWIDTH 480 0
DWIDTH 9 0
BBX 9 18 0 -3
BITMAP
1800
0400
0800
0000
0800
1400
2200
0000
3E00
4100
4100
7F00
4000
4000
3E00
0000
0000
0000
ENDCHAR
STARTCHAR LATIN CAPITAL LETTER E WITH CIRCUMFLEX AND TILDE
ENCODING 7876
SWIDTH 480 0
DWIDTH 9 0
BBX 9 18 0 -3
BITMAP
6400
9A00
0500
0880
7F00
4000
4000
4000
4000
7800
4000
4000
4000
4000
7F00
0000
0000
0000
ENDCHAR
STARTCHAR LATIN SMALL LETTER E WITH CIRCUMFLEX AND TILDE
ENCODING 7877
SWIDTH 480 0
DWIDTH 9 0
BBX 9 18 0 -3
BITMAP
3000
4900
0600
0000
0800
1400
2200
0000
3E00
4100
4100
7F00
4000
4000
3E00
0000
0000
0000
ENDCHAR
STARTCHAR LATIN CAPITAL LETTER E WITH CIRCUMFLEX AND DOT BELOW
ENCODING 7878
SWIDTH 480 0
DWIDTH 9 0
BBX 9 18 0 -3
BITMAP
0800
1400
2200
0000
7F00
4000
4000
4000
4000
7800
4000
4000
4000
4000
7F00
0000
0800
0000
ENDCHAR
STARTCHAR LATIN SMALL LETTER E WITH CIRCUMFLEX AND DOT BELOW
ENCODING 7879
SWIDTH 480 0
DWIDTH 9 0
BBX 9 18 0 -3
BITMAP
0000
0000
0000
0800
1400
2200
0000
0000
3E00
4100
4100
7F00
4000
4000
3E00
0000
0800
0000
ENDCHAR
STARTCHAR LATIN CAPITAL LETTER I WITH HOOK ABOVE
ENCODING 7880
SWIDTH 480 0
DWIDTH 9 0
BBX 9 18 0 -3
BITMAP
1800
0400
0800
0000
1C00
0800
0800
0800
0800
0800
0800
0800
0800
0800
1C00
0000
0000
0000
ENDCHAR
STARTCHAR LATIN SMALL LETTER I WITH HOOK ABOVE
ENCODING 7881
SWIDTH 480 0
DWIDTH 9 0
BBX 9 18 0 -3
BITMAP
0000
0000
0000
1800
0400
0800
0000
0000
1800
0800
0800
0800
0800
0800
0800
0000
0000
0000
ENDCHAR
STARTCHAR LATIN CAPITAL LETTER I WITH DOT BELOW
ENCODING 7882
SWIDTH 480 0
DWIDTH 9 0
BBX 9 18 0 -3
BITMAP
0000
0000
0000
0000
1C00
0800
0800
0800
0800
0800
0800
0800
0800
0800
1C00
0000
0800
0000
ENDCHAR
STARTCHAR LATIN SMALL LETTER I WITH DOT BELOW
ENCODING 7883
SWIDTH 480 0
DWIDTH 9 0
BBX 9 18 0 -3
BITMAP
0000
0000
0000
0000
0000
0800
0000
0000
1800
0800
0800
0800
0800
0800
0800
0000
0800
0000
ENDCHAR
STARTCHAR LATIN CAPITAL LETTER O WITH DOT BELOW
ENCODING 7884
SWIDTH 480 0
DWIDTH 9 0
BBX 9 18 0 -3
BITMAP
0000
0000
0000
0000
3E00
4100
4100
4100
4100
4100
4100
4100
4100
4100
3E00
0000
0800
0000
ENDCHAR
STARTCHAR LATIN SMALL LETTER O WITH DOT BELOW
ENCODING 7885
SWIDTH 480 0
DWIDTH 9 0
BBX 9 18 0 -3
BITMAP
0000
0000
0000
0000
0000
0000
0000
0000
3E00
4100
4100
4100
4100
4100
3E00
0000
0800
0000
ENDCHAR
ENDFONT
